<?xml version="1.0" encoding="UTF-8" standalone="no"?>
<!-- Generator: Adobe Illustrator 12.0.1, SVG Export Plug-In . SVG Version: 6.00 Build 51448)  -->
<svg xmlns:dc="http://purl.org/dc/elements/1.1/" xmlns:cc="http://web.resource.org/cc/" xmlns:rdf="http://www.w3.org/1999/02/22-rdf-syntax-ns#" xmlns:svg="http://www.w3.org/2000/svg" xmlns="http://www.w3.org/2000/svg" xmlns:sodipodi="http://sodipodi.sourceforge.net/DTD/sodipodi-0.dtd" xmlns:inkscape="http://www.inkscape.org/namespaces/inkscape" version="1.1" id="Layer_1" width="230.317" height="97.081" viewBox="0 0 230.317 97.081" style="overflow:visible;enable-background:new 0 0 230.317 97.081;" xml:space="preserve" sodipodi:version="0.32" inkscape:version="0.44.1" sodipodi:docname="Dopamin - Dopamine.svg" sodipodi:docbase="E:\Eigene Dateien"><metadata id="metadata56"><rdf:RDF><cc:Work rdf:about=""><dc:format>image/svg+xml</dc:format><dc:type rdf:resource="http://purl.org/dc/dcmitype/StillImage"/></cc:Work></rdf:RDF></metadata><defs id="defs54"/><sodipodi:namedview inkscape:window-height="573" inkscape:window-width="925" inkscape:pageshadow="2" inkscape:pageopacity="0.0" guidetolerance="10.0" gridtolerance="10.0" objecttolerance="10.0" borderopacity="1.0" bordercolor="#666666" pagecolor="#ffffff" id="base" inkscape:zoom="3.651489" inkscape:cx="115.1585" inkscape:cy="48.540501" inkscape:window-x="22" inkscape:window-y="22" inkscape:current-layer="Layer_1"/>
<path d="M 62.627775,66.10935 L 61.820275,66.58435 L 61.012775,66.10935 L 61.012775,29.34435 L 61.820275,28.86935 L 62.627775,29.34435 L 62.627775,66.10935 z " id="polygon3"/>
<path d="M 66.665274,32.14685 L 68.280274,32.14685 L 68.280274,63.30685 L 66.665274,63.30685 L 66.665274,32.14685 z " id="rect5"/>
<path d="M 94.452775,84.49185 L 94.452775,86.34435 L 61.820275,67.48685 L 61.820275,66.58435 L 62.627775,66.10935 L 94.452775,84.49185 z " id="polygon7"/>
<path d="M 126.32433,66.10935 L 127.94028,67.05935 L 94.452775,86.34435 L 94.452775,84.49185 L 126.32433,66.10935 z " id="polygon9"/>
<path d="M 121.05278,62.59435 L 121.86027,64.01935 L 94.880275,79.59935 L 94.072775,78.22185 L 121.05278,62.59435 z " id="polygon11"/>
<path d="M 126.32433,29.34435 L 127.13278,28.86935 L 127.94028,29.34435 L 127.94028,67.05935 L 126.32433,66.10935 L 126.32433,29.34435 z " id="polygon13"/>
<path d="M 94.452775,10.96185 L 94.452775,9.10935 L 127.13278,27.96685 L 127.13278,28.86935 L 126.32433,29.34435 L 94.452775,10.96185 z " id="polygon15"/>
<path d="M 94.072775,17.27935 L 94.880275,15.85435 L 121.86027,31.43435 L 121.05278,32.85935 L 94.072775,17.27935 z " id="polygon17"/>
<path d="M 62.627775,29.34435 L 61.820275,28.86935 L 61.820275,27.96685 L 94.452775,9.10935 L 94.452775,10.96185 L 62.627775,29.34435 z " id="polygon19"/>
<g id="g21" transform="matrix(0.95,0,0,0.95,5.757925,2.42705)">
	<path d="M 0,96.784 L 0,79.597 L 2.281,79.597 L 2.281,86.66 L 11.172,86.66 L 11.172,79.597 L 13.453,79.597 L 13.453,96.785 L 11.172,96.785 L 11.172,88.69 L 2.281,88.69 L 2.281,96.784 L 0,96.784 L 0,96.784 z " id="path23"/>
	<path d="M 16.551,88.419 C 16.551,85.567 17.317,83.334 18.849,81.72 C 20.381,80.107 22.359,79.3 24.782,79.3 C 26.369,79.3 27.799,79.679 29.073,80.437 C 30.347,81.195 31.318,82.252 31.987,83.608 C 32.655,84.964 32.989,86.502 32.989,88.22 C 32.989,89.962 32.637,91.522 31.934,92.897 C 31.23,94.273 30.234,95.314 28.944,96.021 C 27.654,96.728 26.263,97.082 24.77,97.082 C 23.152,97.082 21.706,96.691 20.432,95.91 C 19.158,95.129 18.193,94.062 17.536,92.71 C 16.879,91.357 16.551,89.927 16.551,88.419 z M 18.895,88.448 C 18.895,90.518 19.452,92.149 20.566,93.341 C 21.68,94.533 23.078,95.128 24.758,95.128 C 26.47,95.128 27.879,94.526 28.986,93.323 C 30.092,92.12 30.645,90.413 30.645,88.202 C 30.645,86.804 30.409,85.583 29.936,84.54 C 29.463,83.497 28.771,82.688 27.86,82.114 C 26.949,81.54 25.927,81.253 24.794,81.253 C 23.184,81.253 21.798,81.806 20.637,82.911 C 19.476,84.016 18.895,85.862 18.895,88.448 z " id="path25"/>
</g>
<path d="M 38.212775,81.16685 L 37.405275,79.74185 L 61.012775,66.10935 L 61.820275,66.58435 L 61.820275,67.48685 L 38.212775,81.16685 z " id="polygon27"/>
<path d="M 159.76528,9.10935 L 159.76528,10.96185 L 127.94028,29.34435 L 127.13278,28.86935 L 127.13278,27.96685 L 159.76528,9.10935 z " id="polygon29"/>
<path d="M 193.15777,28.39435 L 191.54277,29.34435 L 159.76528,10.96185 L 159.76528,9.10935 L 193.15777,28.39435 z " id="polygon31"/>
<g id="g33" transform="matrix(0.95,0,0,0.95,5.757925,2.42705)">
	<path d="M 189.641,76.934 L 189.641,59.746 L 191.981,59.746 L 200.985,73.234 L 200.985,59.746 L 203.173,59.746 L 203.173,76.934 L 200.833,76.934 L 191.829,63.445 L 191.829,76.934 L 189.641,76.934 z " id="path35"/>
	<path d="M 207.082,76.934 L 207.082,59.746 L 209.363,59.746 L 209.363,66.809 L 218.254,66.809 L 218.254,59.746 L 220.535,59.746 L 220.535,76.934 L 218.254,76.934 L 218.254,68.84 L 209.363,68.84 L 209.363,76.934 L 207.082,76.934 z " id="path37"/>
</g>
<g id="g39" transform="matrix(0.95,0,0,0.95,5.757925,2.42705)">
	<path d="M 230.317,79.918 L 230.317,81.434 L 221.786,81.434 C 221.774,81.053 221.836,80.687 221.972,80.334 C 222.19,79.754 222.539,79.184 223.02,78.622 C 223.501,78.06 224.191,77.411 225.09,76.674 C 226.486,75.522 227.432,74.611 227.93,73.941 C 228.428,73.271 228.677,72.637 228.677,72.038 C 228.677,71.412 228.451,70.884 228.002,70.454 C 227.551,70.024 226.965,69.809 226.241,69.809 C 225.475,69.809 224.864,70.038 224.405,70.497 C 223.946,70.955 223.714,71.591 223.708,72.402 L 222.083,72.23 C 222.194,71.015 222.614,70.088 223.343,69.451 C 224.071,68.814 225.049,68.496 226.277,68.496 C 227.516,68.496 228.497,68.839 229.219,69.525 C 229.941,70.211 230.302,71.06 230.302,72.075 C 230.302,72.592 230.196,73.098 229.985,73.596 C 229.774,74.094 229.422,74.618 228.932,75.17 C 228.441,75.721 227.627,76.478 226.492,77.439 C 225.542,78.236 224.93,78.777 224.659,79.06 C 224.388,79.345 224.163,79.63 223.986,79.917 L 230.317,79.917 L 230.317,79.918 z " id="path41"/>
</g>
<path d="M 193.15777,57.03685 L 191.54277,57.03685 L 191.54277,29.34435 L 193.15777,28.39435 L 193.15777,57.03685 z " id="polygon43"/>
<g id="g45" transform="matrix(0.95,0,0,0.95,5.757925,2.42705)">
	<path d="M 0,17.484 L 0,0.297 L 2.281,0.297 L 2.281,7.36 L 11.172,7.36 L 11.172,0.297 L 13.453,0.297 L 13.453,17.485 L 11.172,17.485 L 11.172,9.391 L 2.281,9.391 L 2.281,17.485 L 0,17.485 L 0,17.484 z " id="path47"/>
	<path d="M 16.551,9.119 C 16.551,6.267 17.317,4.034 18.849,2.42 C 20.381,0.807 22.358,0 24.781,0 C 26.368,0 27.798,0.379 29.072,1.137 C 30.346,1.895 31.317,2.952 31.986,4.308 C 32.654,5.664 32.988,7.202 32.988,8.92 C 32.988,10.662 32.636,12.222 31.933,13.597 C 31.229,14.973 30.233,16.014 28.943,16.721 C 27.653,17.428 26.262,17.782 24.769,17.782 C 23.151,17.782 21.705,17.391 20.431,16.61 C 19.157,15.829 18.192,14.762 17.535,13.41 C 16.879,12.058 16.551,10.627 16.551,9.119 z M 18.895,9.148 C 18.895,11.218 19.452,12.849 20.566,14.041 C 21.68,15.233 23.078,15.828 24.758,15.828 C 26.47,15.828 27.879,15.226 28.986,14.023 C 30.092,12.82 30.645,11.113 30.645,8.902 C 30.645,7.504 30.409,6.283 29.936,5.24 C 29.463,4.197 28.771,3.388 27.86,2.814 C 26.949,2.24 25.927,1.953 24.794,1.953 C 23.184,1.953 21.798,2.506 20.637,3.611 C 19.476,4.716 18.895,6.563 18.895,9.148 z " id="path49"/>
</g>
<path d="M 38.070275,16.09185 L 38.877775,14.71435 L 61.820275,27.96685 L 61.820275,28.86935 L 61.012775,29.34435 L 38.070275,16.09185 z " id="polygon51"/>
</svg>