<?xml version="1.0" encoding="UTF-8" standalone="no"?>
<!-- Created with Inkscape (http://www.inkscape.org/) -->

<svg
   xmlns:dc="http://purl.org/dc/elements/1.1/"
   xmlns:cc="http://creativecommons.org/ns#"
   xmlns:rdf="http://www.w3.org/1999/02/22-rdf-syntax-ns#"
   xmlns:svg="http://www.w3.org/2000/svg"
   xmlns="http://www.w3.org/2000/svg"
   xmlns:xlink="http://www.w3.org/1999/xlink"
   xmlns:sodipodi="http://sodipodi.sourceforge.net/DTD/sodipodi-0.dtd"
   xmlns:inkscape="http://www.inkscape.org/namespaces/inkscape"
   width="141.20627mm"
   height="48.602932mm"
   viewBox="0 0 141.20627 48.602932"
   version="1.1"
   id="svg8"
   inkscape:version="0.92.2 2405546, 2018-03-11"
   sodipodi:docname="levels_of_analysis.svg">
  <sodipodi:namedview
     id="base"
     pagecolor="#ffffff"
     bordercolor="#666666"
     borderopacity="1.0"
     inkscape:pageopacity="0.0"
     inkscape:pageshadow="2"
     inkscape:zoom="2.8"
     inkscape:cx="268.37106"
     inkscape:cy="88.836762"
     inkscape:document-units="mm"
     inkscape:current-layer="layer5"
     showgrid="false"
     showguides="true"
     inkscape:measure-start="71.1899,858.125"
     inkscape:measure-end="142.937,851.559"
     inkscape:window-width="3840"
     inkscape:window-height="2081"
     inkscape:window-x="0"
     inkscape:window-y="41"
     inkscape:window-maximized="1"
     fit-margin-top="0"
     fit-margin-left="0"
     fit-margin-right="0"
     fit-margin-bottom="0" />
  <defs
     id="defs2">
    <pattern
       inkscape:collect="always"
       xlink:href="#Strips1_8"
       id="pattern24479"
       patternTransform="matrix(0.2164815,0.17357148,-1.2103326,1.5095488,48.853423,61.326637)" />
    <pattern
       inkscape:stockid="Stripes 1:8"
       id="Strips1_8"
       patternTransform="translate(0,0) scale(10,10)"
       height="1"
       width="9"
       patternUnits="userSpaceOnUse"
       inkscape:collect="always">
      <rect
         id="rect23783"
         height="2"
         width="1"
         y="-0.5"
         x="0"
         style="fill:black;stroke:none" />
    </pattern>
    <marker
       inkscape:stockid="StopL"
       orient="auto"
       refY="0"
       refX="0"
       id="marker15309"
       style="overflow:visible"
       inkscape:isstock="true">
      <path
         id="path15307"
         d="M 0,5.65 V -5.65"
         style="fill:#000000;fill-opacity:1;fill-rule:evenodd;stroke:#000000;stroke-width:1.00000003pt;stroke-opacity:1"
         transform="scale(0.8)"
         inkscape:connector-curvature="0" />
    </marker>
    <marker
       inkscape:stockid="StopL"
       orient="auto"
       refY="0"
       refX="0"
       id="marker15047"
       style="overflow:visible"
       inkscape:isstock="true">
      <path
         id="path15045"
         d="M 0,5.65 V -5.65"
         style="fill:#000000;fill-opacity:1;fill-rule:evenodd;stroke:#000000;stroke-width:1.00000003pt;stroke-opacity:1"
         transform="scale(0.8)"
         inkscape:connector-curvature="0" />
    </marker>
    <marker
       inkscape:stockid="Arrow1Mend"
       orient="auto"
       refY="0"
       refX="0"
       id="marker14887"
       style="overflow:visible"
       inkscape:isstock="true">
      <path
         id="path14885"
         d="M 0,0 5,-5 -12.5,0 5,5 Z"
         style="fill:#000000;fill-opacity:1;fill-rule:evenodd;stroke:#000000;stroke-width:1.00000003pt;stroke-opacity:1"
         transform="matrix(-0.4,0,0,-0.4,-4,0)"
         inkscape:connector-curvature="0" />
    </marker>
    <marker
       inkscape:collect="always"
       inkscape:isstock="true"
       style="overflow:visible"
       id="marker5494"
       refX="0"
       refY="0"
       orient="auto"
       inkscape:stockid="StopL">
      <path
         transform="scale(0.8)"
         style="fill:#000000;fill-opacity:1;fill-rule:evenodd;stroke:#000000;stroke-width:1.00000003pt;stroke-opacity:1"
         d="M 0,5.65 V -5.65"
         id="path5492"
         inkscape:connector-curvature="0" />
    </marker>
    <marker
       inkscape:collect="always"
       inkscape:isstock="true"
       style="overflow:visible"
       id="StopL"
       refX="0"
       refY="0"
       orient="auto"
       inkscape:stockid="StopL">
      <path
         transform="scale(0.8)"
         style="fill:#000000;fill-opacity:1;fill-rule:evenodd;stroke:#000000;stroke-width:1.00000003pt;stroke-opacity:1"
         d="M 0,5.65 V -5.65"
         id="path4715"
         inkscape:connector-curvature="0" />
    </marker>
    <marker
       inkscape:isstock="true"
       style="overflow:visible"
       id="marker5020"
       refX="0"
       refY="0"
       orient="auto"
       inkscape:stockid="Arrow1Lend">
      <path
         transform="matrix(-0.8,0,0,-0.8,-10,0)"
         style="fill:#000000;fill-opacity:1;fill-rule:evenodd;stroke:#000000;stroke-width:1.00000003pt;stroke-opacity:1"
         d="M 0,0 5,-5 -12.5,0 5,5 Z"
         id="path5018"
         inkscape:connector-curvature="0" />
    </marker>
    <marker
       inkscape:isstock="true"
       style="overflow:visible"
       id="Arrow1Mstart"
       refX="0"
       refY="0"
       orient="auto"
       inkscape:stockid="Arrow1Mstart">
      <path
         transform="matrix(0.4,0,0,0.4,4,0)"
         style="fill:#000000;fill-opacity:1;fill-rule:evenodd;stroke:#000000;stroke-width:1.00000003pt;stroke-opacity:1"
         d="M 0,0 5,-5 -12.5,0 5,5 Z"
         id="path4552"
         inkscape:connector-curvature="0" />
    </marker>
    <marker
       inkscape:isstock="true"
       style="overflow:visible"
       id="Arrow1Lend"
       refX="0"
       refY="0"
       orient="auto"
       inkscape:stockid="Arrow1Lend">
      <path
         transform="matrix(-0.8,0,0,-0.8,-10,0)"
         style="fill:#000000;fill-opacity:1;fill-rule:evenodd;stroke:#000000;stroke-width:1.00000003pt;stroke-opacity:1"
         d="M 0,0 5,-5 -12.5,0 5,5 Z"
         id="path4549"
         inkscape:connector-curvature="0" />
    </marker>
    <marker
       inkscape:isstock="true"
       style="overflow:visible"
       id="Arrow1Lstart"
       refX="0"
       refY="0"
       orient="auto"
       inkscape:stockid="Arrow1Lstart">
      <path
         transform="matrix(0.8,0,0,0.8,10,0)"
         style="fill:#000000;fill-opacity:1;fill-rule:evenodd;stroke:#000000;stroke-width:1.00000003pt;stroke-opacity:1"
         d="M 0,0 5,-5 -12.5,0 5,5 Z"
         id="path4546"
         inkscape:connector-curvature="0" />
    </marker>
    <marker
       inkscape:isstock="true"
       style="overflow:visible"
       id="StopL-3"
       refX="0"
       refY="0"
       orient="auto"
       inkscape:stockid="StopL">
      <path
         transform="scale(0.8)"
         style="fill:none;fill-opacity:0.75;fill-rule:evenodd;stroke:#000000;stroke-width:1.00000003pt;stroke-opacity:1"
         d="M 0,5.65 V -5.65"
         id="path4715-5"
         inkscape:connector-curvature="0" />
    </marker>
    <marker
       inkscape:isstock="true"
       style="overflow:visible"
       id="marker5494-6"
       refX="0"
       refY="0"
       orient="auto"
       inkscape:stockid="StopL">
      <path
         transform="scale(0.8)"
         style="fill:none;fill-opacity:0.75;fill-rule:evenodd;stroke:#000000;stroke-width:1.00000003pt;stroke-opacity:1"
         d="M 0,5.65 V -5.65"
         id="path5492-2"
         inkscape:connector-curvature="0" />
    </marker>
    <marker
       inkscape:isstock="true"
       style="overflow:visible"
       id="StopL-1"
       refX="0"
       refY="0"
       orient="auto"
       inkscape:stockid="StopL">
      <path
         transform="scale(0.8)"
         style="fill:#000000;fill-opacity:1;fill-rule:evenodd;stroke:#000000;stroke-width:1.00000003pt;stroke-opacity:1"
         d="M 0,5.65 V -5.65"
         id="path4715-2"
         inkscape:connector-curvature="0" />
    </marker>
    <marker
       inkscape:isstock="true"
       style="overflow:visible"
       id="marker5494-7"
       refX="0"
       refY="0"
       orient="auto"
       inkscape:stockid="StopL">
      <path
         transform="scale(0.8)"
         style="fill:#000000;fill-opacity:1;fill-rule:evenodd;stroke:#000000;stroke-width:1.00000003pt;stroke-opacity:1"
         d="M 0,5.65 V -5.65"
         id="path5492-0"
         inkscape:connector-curvature="0" />
    </marker>
    <marker
       inkscape:isstock="true"
       style="overflow:visible"
       id="StopL-36"
       refX="0"
       refY="0"
       orient="auto"
       inkscape:stockid="StopL">
      <path
         transform="scale(0.8)"
         style="fill:#000000;fill-opacity:1;fill-rule:evenodd;stroke:#000000;stroke-width:1.00000003pt;stroke-opacity:1"
         d="M 0,5.65 V -5.65"
         id="path4715-0"
         inkscape:connector-curvature="0" />
    </marker>
    <marker
       inkscape:isstock="true"
       style="overflow:visible"
       id="marker5494-62"
       refX="0"
       refY="0"
       orient="auto"
       inkscape:stockid="StopL">
      <path
         transform="scale(0.8)"
         style="fill:#000000;fill-opacity:1;fill-rule:evenodd;stroke:#000000;stroke-width:1.00000003pt;stroke-opacity:1"
         d="M 0,5.65 V -5.65"
         id="path5492-6"
         inkscape:connector-curvature="0" />
    </marker>
    <marker
       inkscape:isstock="true"
       style="overflow:visible"
       id="StopL-36-9"
       refX="0"
       refY="0"
       orient="auto"
       inkscape:stockid="StopL">
      <path
         transform="scale(0.8)"
         style="fill:#000000;fill-opacity:1;fill-rule:evenodd;stroke:#000000;stroke-width:1.00000003pt;stroke-opacity:1"
         d="M 0,5.65 V -5.65"
         id="path4715-0-2"
         inkscape:connector-curvature="0" />
    </marker>
    <marker
       inkscape:isstock="true"
       style="overflow:visible"
       id="marker5494-62-0"
       refX="0"
       refY="0"
       orient="auto"
       inkscape:stockid="StopL">
      <path
         transform="scale(0.8)"
         style="fill:#000000;fill-opacity:1;fill-rule:evenodd;stroke:#000000;stroke-width:1.00000003pt;stroke-opacity:1"
         d="M 0,5.65 V -5.65"
         id="path5492-6-2"
         inkscape:connector-curvature="0" />
    </marker>
    <marker
       inkscape:isstock="true"
       style="overflow:visible"
       id="StopL-36-9-9"
       refX="0"
       refY="0"
       orient="auto"
       inkscape:stockid="StopL">
      <path
         transform="scale(0.8)"
         style="fill:#000000;fill-opacity:1;fill-rule:evenodd;stroke:#000000;stroke-width:1.00000003pt;stroke-opacity:1"
         d="M 0,5.65 V -5.65"
         id="path4715-0-2-2"
         inkscape:connector-curvature="0" />
    </marker>
    <marker
       inkscape:isstock="true"
       style="overflow:visible"
       id="marker5494-62-0-2"
       refX="0"
       refY="0"
       orient="auto"
       inkscape:stockid="StopL">
      <path
         transform="scale(0.8)"
         style="fill:#000000;fill-opacity:1;fill-rule:evenodd;stroke:#000000;stroke-width:1.00000003pt;stroke-opacity:1"
         d="M 0,5.65 V -5.65"
         id="path5492-6-2-8"
         inkscape:connector-curvature="0" />
    </marker>
    <marker
       inkscape:stockid="Arrow1Mend"
       orient="auto"
       refY="0"
       refX="0"
       id="marker14887-1"
       style="overflow:visible"
       inkscape:isstock="true">
      <path
         id="path14885-2"
         d="M 0,0 5,-5 -12.5,0 5,5 Z"
         style="fill:#000000;fill-opacity:1;fill-rule:evenodd;stroke:#000000;stroke-width:1.00000003pt;stroke-opacity:1"
         transform="matrix(-0.4,0,0,-0.4,-4,0)"
         inkscape:connector-curvature="0" />
    </marker>
    <marker
       inkscape:stockid="Arrow1Mend"
       orient="auto"
       refY="0"
       refX="0"
       id="marker14887-3"
       style="overflow:visible"
       inkscape:isstock="true">
      <path
         id="path14885-1"
         d="M 0,0 5,-5 -12.5,0 5,5 Z"
         style="fill:#000000;fill-opacity:1;fill-rule:evenodd;stroke:#000000;stroke-width:1.00000003pt;stroke-opacity:1"
         transform="matrix(-0.4,0,0,-0.4,-4,0)"
         inkscape:connector-curvature="0" />
    </marker>
    <marker
       inkscape:isstock="true"
       style="overflow:visible"
       id="StopL-36-9-0"
       refX="0"
       refY="0"
       orient="auto"
       inkscape:stockid="StopL">
      <path
         transform="scale(0.8)"
         style="fill:#000000;fill-opacity:1;fill-rule:evenodd;stroke:#000000;stroke-width:1.00000003pt;stroke-opacity:1"
         d="M 0,5.65 V -5.65"
         id="path4715-0-2-6"
         inkscape:connector-curvature="0" />
    </marker>
    <marker
       inkscape:isstock="true"
       style="overflow:visible"
       id="marker5494-62-0-1"
       refX="0"
       refY="0"
       orient="auto"
       inkscape:stockid="StopL">
      <path
         transform="scale(0.8)"
         style="fill:#000000;fill-opacity:1;fill-rule:evenodd;stroke:#000000;stroke-width:1.00000003pt;stroke-opacity:1"
         d="M 0,5.65 V -5.65"
         id="path5492-6-2-5"
         inkscape:connector-curvature="0" />
    </marker>
    <marker
       inkscape:isstock="true"
       style="overflow:visible"
       id="StopL-36-4"
       refX="0"
       refY="0"
       orient="auto"
       inkscape:stockid="StopL">
      <path
         transform="scale(0.8)"
         style="fill:#000000;fill-opacity:1;fill-rule:evenodd;stroke:#000000;stroke-width:1.00000003pt;stroke-opacity:1"
         d="M 0,5.65 V -5.65"
         id="path4715-0-7"
         inkscape:connector-curvature="0" />
    </marker>
    <marker
       inkscape:isstock="true"
       style="overflow:visible"
       id="marker5494-62-6"
       refX="0"
       refY="0"
       orient="auto"
       inkscape:stockid="StopL">
      <path
         transform="scale(0.8)"
         style="fill:#000000;fill-opacity:1;fill-rule:evenodd;stroke:#000000;stroke-width:1.00000003pt;stroke-opacity:1"
         d="M 0,5.65 V -5.65"
         id="path5492-6-5"
         inkscape:connector-curvature="0" />
    </marker>
    <marker
       inkscape:isstock="true"
       style="overflow:visible"
       id="StopL-36-93"
       refX="0"
       refY="0"
       orient="auto"
       inkscape:stockid="StopL">
      <path
         transform="scale(0.8)"
         style="fill:#000000;fill-opacity:1;fill-rule:evenodd;stroke:#000000;stroke-width:1.00000003pt;stroke-opacity:1"
         d="M 0,5.65 V -5.65"
         id="path4715-0-74"
         inkscape:connector-curvature="0" />
    </marker>
    <marker
       inkscape:isstock="true"
       style="overflow:visible"
       id="marker5494-62-5"
       refX="0"
       refY="0"
       orient="auto"
       inkscape:stockid="StopL">
      <path
         transform="scale(0.8)"
         style="fill:#000000;fill-opacity:1;fill-rule:evenodd;stroke:#000000;stroke-width:1.00000003pt;stroke-opacity:1"
         d="M 0,5.65 V -5.65"
         id="path5492-6-25"
         inkscape:connector-curvature="0" />
    </marker>
  </defs>
  <metadata
     id="metadata5">
    <rdf:RDF>
      <cc:Work
         rdf:about="">
        <dc:format>image/svg+xml</dc:format>
        <dc:type
           rdf:resource="http://purl.org/dc/dcmitype/StillImage" />
        <dc:title></dc:title>
      </cc:Work>
    </rdf:RDF>
  </metadata>
  <g
     inkscape:groupmode="layer"
     id="layer8"
     inkscape:label="07_gap"
     style="display:none">
    <g
       transform="translate(-4.4304813,-35.65675)"
       style="display:inline"
       id="g29562">
      <rect
         y="53.630569"
         x="36.805435"
         height="22.678577"
         width="25.252024"
         id="rect24510"
         style="fill:#ececec;stroke:none;stroke-width:0.25;stroke-miterlimit:4;stroke-dasharray:0.25, 0.25;stroke-dashoffset:0" />
      <path
         style="fill:#000000;stroke:#000000;stroke-width:0.26458332px;stroke-linecap:butt;stroke-linejoin:miter;stroke-opacity:1;marker-start:url(#StopL-36-93);marker-end:url(#marker5494-62-5)"
         d="m 62.36472,52.689249 -2.055492,-0.02721 -2.008246,0.01301 -2.055489,0.0232 -2.055492,-0.04327 -2.055491,-0.02056 -2.055492,-0.03025 -2.055491,0.111165 c -4.055329,-0.05827 1.101617,-0.02134 -2.954167,-0.03772 l -2.055491,-0.06196 -2.055492,0.0632 -2.055491,-0.01333 -2.055491,0.01579"
         id="path5440-1-4"
         inkscape:connector-curvature="0"
         sodipodi:nodetypes="ccccccccccccc" />
      <text
         id="text29312"
         y="50.984734"
         x="47.294273"
         style="font-style:normal;font-variant:normal;font-weight:normal;font-stretch:normal;font-size:10.58333302px;line-height:1.25;font-family:Junicode;-inkscape-font-specification:Junicode;letter-spacing:0px;word-spacing:0px;fill:#000000;fill-opacity:1;stroke:none;stroke-width:0.26458332"
         xml:space="preserve"><tspan
           style="font-style:normal;font-variant:normal;font-weight:normal;font-stretch:normal;font-family:Junicode;-inkscape-font-specification:Junicode;stroke-width:0.26458332"
           y="50.984734"
           x="47.294273"
           id="tspan29310"
           sodipodi:role="line">?</tspan></text>
    </g>
  </g>
  <g
     id="layer1"
     inkscape:groupmode="layer"
     inkscape:label="00_axis"
     transform="translate(-4.4304813,-35.65675)"
     style="display:inline">
    <g
       id="g29319">
      <path
         style="fill:none;stroke:#000000;stroke-width:0.40000001;stroke-linecap:butt;stroke-linejoin:miter;stroke-miterlimit:4;stroke-dasharray:none;stroke-opacity:1;marker-start:url(#marker15047);marker-end:url(#marker15309)"
         d="M 19.182291,76.261904 H 136.07142"
         id="path3739"
         inkscape:connector-curvature="0"
         sodipodi:nodetypes="cc" />
      <text
         xml:space="preserve"
         style="font-style:normal;font-variant:normal;font-weight:normal;font-stretch:normal;font-size:4.93888903px;line-height:1.25;font-family:Junicode;-inkscape-font-specification:Junicode;letter-spacing:0px;word-spacing:0px;fill:#000000;fill-opacity:1;stroke:none;stroke-width:0.26458332"
         x="7.6540174"
         y="84.199394"
         id="text5284"><tspan
           sodipodi:role="line"
           id="tspan5282"
           x="7.6540174"
           y="84.199394"
           style="font-style:normal;font-variant:normal;font-weight:normal;font-stretch:normal;font-size:4.93888903px;font-family:Junicode;-inkscape-font-specification:Junicode;stroke-width:0.26458332">mechanistic</tspan></text>
      <text
         xml:space="preserve"
         style="font-style:normal;font-variant:normal;font-weight:normal;font-stretch:normal;font-size:4.93888903px;line-height:1.25;font-family:Junicode;-inkscape-font-specification:Junicode;letter-spacing:0px;word-spacing:0px;fill:#000000;fill-opacity:1;stroke:none;stroke-width:0.26458332"
         x="126.36591"
         y="84.040771"
         id="text5284-3"><tspan
           sodipodi:role="line"
           id="tspan5282-6"
           x="126.36591"
           y="84.040771"
           style="font-style:normal;font-variant:normal;font-weight:normal;font-stretch:normal;font-size:4.93888903px;font-family:Junicode;-inkscape-font-specification:Junicode;stroke-width:0.26458332">functional</tspan></text>
    </g>
  </g>
  <g
     inkscape:groupmode="layer"
     id="layer2"
     inkscape:label="01_symbolic_ai"
     style="display:none">
    <g
       transform="translate(-4.4304813,-35.65675)"
       id="g29332">
      <text
         xml:space="preserve"
         style="font-style:normal;font-variant:normal;font-weight:normal;font-stretch:normal;font-size:4.93888903px;line-height:1.25;font-family:Junicode;-inkscape-font-specification:Junicode;letter-spacing:0px;word-spacing:0px;fill:#000000;fill-opacity:1;stroke:none;stroke-width:0.26458332"
         x="111.4325"
         y="39.237926"
         id="text5438-7"><tspan
           sodipodi:role="line"
           id="tspan5436-5"
           x="111.4325"
           y="39.237926"
           style="font-style:normal;font-variant:normal;font-weight:normal;font-stretch:normal;font-size:4.93888903px;font-family:Junicode;-inkscape-font-specification:Junicode;stroke-width:0.26458332">Symbolic AI</tspan></text>
      <circle
         style="fill:#000000;stroke:#000000;stroke-width:0.40000001;stroke-miterlimit:4;stroke-dasharray:none"
         id="path7895"
         cx="136.04019"
         cy="69.721474"
         r="1.1693041" />
      <path
         style="fill:none;stroke:#000000;stroke-width:0.25;stroke-linecap:butt;stroke-linejoin:miter;stroke-miterlimit:4;stroke-dasharray:none;stroke-opacity:1;marker-end:url(#marker14887-3)"
         d="m 128.35619,41.223063 c 0,0 6.21402,13.096205 7.21628,26.058778"
         id="path14865-94"
         inkscape:connector-curvature="0" />
      <path
         style="fill:none;stroke:#999999;stroke-width:0.25;stroke-linecap:butt;stroke-linejoin:miter;stroke-miterlimit:4;stroke-dasharray:0.25000001, 0.25000001;stroke-dashoffset:0;stroke-opacity:1"
         d="m 136.06025,71.206472 v 2.929316"
         id="path17341-8-5-3"
         inkscape:connector-curvature="0"
         sodipodi:nodetypes="cc" />
    </g>
  </g>
  <g
     inkscape:groupmode="layer"
     id="layer3"
     inkscape:label="02_detailed"
     style="display:none">
    <g
       transform="translate(-4.4304813,-35.65675)"
       id="g29354">
      <circle
         style="fill:#000000;stroke:#000000;stroke-width:0.40000001;stroke-miterlimit:4;stroke-dasharray:none"
         id="path7895-7"
         cx="19.171112"
         cy="69.721474"
         r="1.1693041" />
      <text
         xml:space="preserve"
         style="font-style:normal;font-variant:normal;font-weight:normal;font-stretch:normal;font-size:4.93888903px;line-height:1.25;font-family:Junicode;-inkscape-font-specification:Junicode;letter-spacing:0px;word-spacing:0px;fill:#000000;fill-opacity:1;stroke:none;stroke-width:0.26458332"
         x="4.2664948"
         y="45.580994"
         id="text5438-7-3"><tspan
           sodipodi:role="line"
           id="tspan5436-5-6"
           x="4.2664948"
           y="45.580994"
           style="font-style:normal;font-variant:normal;font-weight:normal;font-stretch:normal;font-size:4.93888903px;font-family:Junicode;-inkscape-font-specification:Junicode;stroke-width:0.26458332">Detailed physical</tspan><tspan
           sodipodi:role="line"
           x="4.2664948"
           y="51.754604"
           style="font-style:normal;font-variant:normal;font-weight:normal;font-stretch:normal;font-size:4.93888903px;font-family:Junicode;-inkscape-font-specification:Junicode;stroke-width:0.26458332"
           id="tspan16192">simulation</tspan></text>
      <path
         style="fill:none;stroke:#000000;stroke-width:0.25;stroke-linecap:butt;stroke-linejoin:miter;stroke-miterlimit:4;stroke-dasharray:none;stroke-opacity:1;marker-end:url(#marker14887-1)"
         d="m 14.974211,54.768634 c 0,0 -1.603614,7.149458 2.472246,13.22984"
         id="path14865-9"
         inkscape:connector-curvature="0"
         sodipodi:nodetypes="cc" />
      <path
         style="fill:none;stroke:#999999;stroke-width:0.25;stroke-linecap:butt;stroke-linejoin:miter;stroke-miterlimit:4;stroke-dasharray:0.25000001, 0.25000001;stroke-dashoffset:0;stroke-opacity:1"
         d="m 19.171113,71.206472 v 2.929317"
         id="path17341-8-5-3-2"
         inkscape:connector-curvature="0"
         sodipodi:nodetypes="cc" />
    </g>
  </g>
  <g
     inkscape:groupmode="layer"
     id="layer4"
     inkscape:label="03_actr"
     style="display:none">
    <g
       transform="translate(-4.4304813,-35.65675)"
       style="display:inline"
       id="g29395">
      <path
         style="fill:#ffd42a;stroke:none;stroke-width:0.25;stroke-miterlimit:4;stroke-dasharray:none"
         id="path17960"
         d="m 100.33597,68.489768 c 0.38389,-0.0046 0.76755,0.0053 1.15123,0.01667 0.35218,0.01095 0.70447,0.01796 1.05678,0.02336 0.23935,0.0035 0.47873,0.005 0.71811,0.0059 0.3012,0.0011 0.60241,0.0011 0.90361,0.0011 0.5383,-0.0021 1.07621,-0.03281 1.61413,-0.05258 0.46766,-0.0071 0.93404,-0.03924 1.40067,-0.06818 0.50517,-0.01757 1.00813,-0.06459 1.51167,-0.106389 0.65818,-0.05209 1.31743,-0.08853 1.97713,-0.114104 0.53842,-0.02662 1.07715,-0.01815 1.6155,0.0026 0.55137,0.02294 1.10308,0.03491 1.65466,0.05162 0.7164,0.02215 1.43309,0.03178 2.14978,0.03876 0.78632,0.0067 1.57266,0.0085 2.359,0.01 0.69371,0.0011 1.38755,-0.01021 2.08101,-0.02861 0.66819,-0.02302 1.33678,-0.03078 2.00503,-0.05045 0.54049,-0.0199 1.08113,-0.0345 1.62189,-0.04462 0.47837,-0.0035 0.95639,-0.02215 1.43458,-0.03429 0.49648,-0.01238 0.99307,-0.01844 1.48967,-0.0227 0.42223,-0.0034 0.84447,-0.0043 1.26672,-0.0051 0.38638,7.93e-4 0.77279,-0.0045 1.15911,0.0036 0.38014,0.01889 0.75965,0.04866 1.13935,0.07467 0.35137,0.02331 0.70324,0.03716 1.05518,0.0479 0.20745,0.0064 0.41497,0.0098 0.6225,0.01191 0,0 -0.0302,2.976409 -0.0302,2.976409 v 0 c -0.22783,-0.0024 -0.45564,-0.0061 -0.68338,-0.01315 -0.38951,-0.01196 -0.77896,-0.02752 -1.16783,-0.05348 -0.33462,-0.02299 -0.66914,-0.0477 -1.0039,-0.06847 -0.36176,-0.0093 -0.72378,-1.99e-4 -1.08561,-0.0028 -0.4155,7.93e-4 -0.831,0.0016 -1.24649,0.005 -0.47992,0.0041 -0.95983,0.0099 -1.43963,0.02185 -0.48482,0.01228 -0.96947,0.0311 -1.45447,0.03473 -0.53038,0.0099 -1.06062,0.02439 -1.59073,0.04388 -0.67108,0.01942 -1.34247,0.02791 -2.01348,0.05069 -0.72149,0.01884 -1.44333,0.03092 -2.16508,0.02964 -0.7941,-0.0016 -1.58821,-0.0033 -2.38229,-0.01013 -0.73705,-0.0072 -1.4741,-0.0172 -2.21086,-0.03998 -0.5601,-0.01696 -1.12035,-0.02916 -1.68023,-0.05251 -0.46155,-0.01807 -0.92334,-0.02646 -1.38496,-0.0026 -0.61587,0.02368 -1.2313,0.0578 -1.84577,0.106119 -0.52418,0.04351 -1.04791,0.09183 -1.57374,0.11089 -0.49157,0.03046 -0.98296,0.0636 -1.47558,0.07187 -0.57469,0.02109 -1.14936,0.05368 -1.72451,0.05458 -0.30466,-1.19e-4 -0.60931,-1.7e-4 -0.91397,-0.0011 -0.2508,-0.0011 -0.5016,-0.0026 -0.75237,-0.0062 -0.36644,-0.0056 -0.73285,-0.01294 -1.09915,-0.02432 -0.35432,-0.0105 -0.70856,-0.02016 -1.06309,-0.01535 0,0 0,-2.976562 0,-2.976562 z"
         inkscape:connector-curvature="0" />
      <text
         xml:space="preserve"
         style="font-style:normal;font-variant:normal;font-weight:normal;font-stretch:normal;font-size:4.93888903px;line-height:1.25;font-family:Junicode;-inkscape-font-specification:Junicode;letter-spacing:0px;word-spacing:0px;fill:#000000;fill-opacity:1;stroke:none;stroke-width:0.26458332"
         x="109.00874"
         y="66.345589"
         id="text5438"><tspan
           sodipodi:role="line"
           id="tspan5436"
           x="109.00874"
           y="66.345589"
           style="font-style:normal;font-variant:normal;font-weight:normal;font-stretch:normal;font-size:4.93888903px;font-family:Junicode;-inkscape-font-specification:Junicode;stroke-width:0.26458332">ACT-R</tspan></text>
      <path
         style="fill:#000000;stroke:#000000;stroke-width:0.26458332px;stroke-linecap:butt;stroke-linejoin:miter;stroke-opacity:1;marker-start:url(#StopL);marker-end:url(#marker5494)"
         d="m 131.50919,69.692525 c 0,0 -1.91351,0.0018 -1.91351,0.0018 0,0 -1.9135,-0.09256 -1.9135,-0.09256 0,0 -1.91351,0.107877 -1.91351,0.107877 0,0 -1.9135,0.0059 -1.9135,0.0059 0,0 -1.9135,9.16e-4 -1.9135,9.16e-4 0,0 -1.91351,0.02496 -1.91351,0.02496 0,0 -1.9135,-0.03979 -1.9135,-0.03979 0,0 -1.9135,0.207198 -1.9135,0.207198 0,0 -1.9135,-0.185909 -1.9135,-0.185909 0,0 -1.91351,-0.02359 -1.91351,-0.02359 0,0 -1.91351,0.01812 -1.91351,0.01812 0,0 -1.9135,0.07106 -1.9135,0.07106 0,0 -1.91351,-0.0588 -1.91351,-0.0588 0,0 -1.9135,-0.01251 -1.9135,-0.01251 0,0 -1.91351,4e-4 -1.91351,4e-4 0,0 -1.9135,0.0015 -1.9135,0.0015"
         id="path5440"
         inkscape:connector-curvature="0"
         sodipodi:nodetypes="ccccccccccccccccc" />
      <path
         style="fill:none;stroke:#999999;stroke-width:0.25;stroke-linecap:butt;stroke-linejoin:miter;stroke-miterlimit:4;stroke-dasharray:0.25000001, 0.25000001;stroke-dashoffset:0;stroke-opacity:1"
         d="m 131.52454,71.206473 v 4.44122"
         id="path17341-8-5"
         inkscape:connector-curvature="0" />
      <path
         style="fill:none;stroke:#999999;stroke-width:0.25;stroke-linecap:butt;stroke-linejoin:miter;stroke-miterlimit:4;stroke-dasharray:0.25000001, 0.25000001;stroke-dashoffset:0;stroke-opacity:1"
         d="m 100.89451,71.206472 v 4.441221"
         id="path17341-7-4-0"
         inkscape:connector-curvature="0" />
    </g>
  </g>
  <g
     inkscape:groupmode="layer"
     id="layer6"
     inkscape:label="04_hbp"
     style="display:none">
    <g
       transform="translate(-4.4304813,-35.65675)"
       style="display:inline"
       id="g29461">
      <text
         xml:space="preserve"
         style="font-style:normal;font-variant:normal;font-weight:normal;font-stretch:normal;font-size:4.93888903px;line-height:1.25;font-family:Junicode;-inkscape-font-specification:Junicode;letter-spacing:0px;word-spacing:0px;fill:#000000;fill-opacity:1;stroke:none;stroke-width:0.26458332"
         x="20.664734"
         y="65.999893"
         id="text8674"><tspan
           sodipodi:role="line"
           id="tspan8672"
           x="20.664734"
           y="65.999893"
           style="font-style:normal;font-variant:normal;font-weight:normal;font-stretch:normal;font-size:4.93888903px;font-family:Junicode;-inkscape-font-specification:Junicode;stroke-width:0.26458332">HBP/BlueBrain</tspan></text>
      <path
         style="fill:#ffcc00;stroke:none;stroke-width:0.25;stroke-miterlimit:4;stroke-dasharray:none"
         id="path17958"
         d="m 26.81551,68.206286 c 0.369715,0 0.739428,0 1.109144,0 0.324802,0 0.649605,0 0.974407,0 0.325898,0.005 0.651473,-0.01093 0.977114,-0.02106 0.356971,-0.0108 0.714071,-0.01635 1.071171,-0.02048 0.270836,-1.48e-4 0.541298,-0.01614 0.811208,-0.03707 0.28639,-0.0273 0.574312,-0.03064 0.861134,-0.05019 0.268528,-0.02072 0.537429,-0.03512 0.806579,-0.04433 0.356979,-0.01447 0.71397,-0.0075 1.070891,0.0037 0.325297,0.01069 0.650346,0.03166 0.974889,0.05609 0.243797,0.02114 0.487918,0.03773 0.732308,0.05002 0.148069,0.0076 0.296294,0.01082 0.444521,0.01296 0.156859,0.0019 0.31373,0.0024 0.470596,0.0026 0.168077,0.006 0.335452,-0.0082 0.503039,-0.01852 0.09174,-0.006 0.183579,-0.01013 0.275418,-0.01426 0,0 0.132321,2.973617 0.132321,2.973617 v 0 c -0.07484,0.0033 -0.149675,0.0066 -0.224427,0.01156 -0.230651,0.01423 -0.46141,0.0299 -0.692674,0.02416 -0.169305,-2.65e-4 -0.338611,-7.94e-4 -0.507902,-0.0029 -0.183844,-0.0027 -0.367673,-0.007 -0.551313,-0.01646 -0.269991,-0.01373 -0.539731,-0.03158 -0.809074,-0.0549 -0.279879,-0.02191 -0.560404,-0.03899 -0.840949,-0.04887 -0.292555,-0.0092 -0.585076,-0.01646 -0.877705,-0.0039 -0.239533,0.0079 -0.478761,0.02178 -0.717733,0.04002 -0.273473,0.01667 -0.547521,0.02349 -0.820571,0.04733 -0.334822,0.0258 -0.67034,0.04469 -1.006263,0.04572 -0.337693,0.0039 -0.675383,0.0091 -1.012955,0.01924 -0.356462,0.01106 -0.712885,0.02758 -1.069623,0.02249 -0.324802,0 -0.649605,0 -0.974407,0 -0.369716,0 -0.739429,0 -1.109144,0 0,0 0,-2.976562 0,-2.976562 z"
         inkscape:connector-curvature="0" />
      <path
         style="fill:#000000;stroke:#000000;stroke-width:0.26458332px;stroke-linecap:butt;stroke-linejoin:miter;stroke-opacity:1;marker-start:url(#StopL-1);marker-end:url(#marker5494-7)"
         d="m 36.863663,69.725367 c 0,0 -2.241809,0.146707 -2.241809,0.146707 0,0 -2.241809,-0.200409 -2.241809,-0.200409 0,0 -2.24181,0.0402 -2.24181,0.0402 0,0 -2.241809,0.0067 -2.241809,0.0067"
         id="path5440-9"
         inkscape:connector-curvature="0"
         sodipodi:nodetypes="ccccc" />
      <path
         style="fill:none;stroke:#999999;stroke-width:0.25;stroke-linecap:butt;stroke-linejoin:miter;stroke-miterlimit:4;stroke-dasharray:0.25000001, 0.25000001;stroke-dashoffset:0;stroke-opacity:1"
         d="m 36.863587,71.206473 v 4.441219"
         id="path17341"
         inkscape:connector-curvature="0" />
      <path
         style="fill:none;stroke:#999999;stroke-width:0.25;stroke-linecap:butt;stroke-linejoin:miter;stroke-miterlimit:4;stroke-dasharray:0.25000001, 0.25000001;stroke-dashoffset:0;stroke-opacity:1"
         d="m 27.888718,71.206472 v 4.44122"
         id="path17341-7"
         inkscape:connector-curvature="0" />
    </g>
  </g>
  <g
     inkscape:groupmode="layer"
     id="layer5"
     inkscape:label="05_nef"
     style="display:none">
    <g
       transform="translate(-4.4304813,-35.65675)"
       style="display:inline"
       id="g29425">
      <path
         style="fill:#ffcc00;stroke:none;stroke-width:0.25;stroke-miterlimit:4;stroke-dasharray:none"
         id="path17966"
         d="m 60.920711,68.206286 c 0.114491,0 0.228984,0 0.343477,0 0.188293,-2.65e-4 0.376502,-0.0089 0.56469,-0.01484 0.218879,-0.007 0.437449,-0.02035 0.655947,-0.03458 0.241723,-0.01834 0.483438,-0.03668 0.725305,-0.05303 0.284519,-0.01828 0.569042,-0.03653 0.853487,-0.05591 0.385948,-0.02705 0.771864,-0.054 1.157513,-0.08506 0.497213,-0.04031 0.994444,-0.08029 1.492025,-0.115806 0.527333,-0.03849 1.054997,-0.07224 1.58256,-0.107405 0.511434,-0.03377 1.022818,-0.06821 1.534393,-0.09977 0.482883,-0.03017 0.965647,-0.06213 1.448488,-0.09295 0.480644,-0.03059 0.961572,-0.05641 1.442577,-0.08063 0.475961,-0.02355 0.952113,-0.04301 1.428303,-0.06135 0.471543,-0.01794 0.943205,-0.0325 1.41488,-0.04637 0.4498,-0.0132 0.899655,-0.02439 1.349521,-0.03503 0.43071,-0.01132 0.861496,-0.01797 1.292322,-0.02249 0.431554,-0.0042 0.863119,-0.0071 1.294686,-0.0099 0.446283,-0.0024 0.892567,-0.0061 1.338861,-0.0062 0.443711,7.93e-4 0.887417,0.003 1.331124,0.0047 0.431442,0.0035 0.862861,0.0093 1.294288,0.01418 0.453533,0.0052 0.907082,0.0091 1.360633,0.01251 0.492117,0.0036 0.98424,0.0066 1.476362,0.0096 0.447183,0.0027 0.894366,0.005 1.341549,0.0072 0.419026,1.09e-4 0.837943,0.0104 1.256837,0.01963 0.416729,0.0066 0.833138,0.02413 1.249415,0.04383 0.443082,0.02199 0.885677,0.05271 1.328182,0.08402 0.416642,0.02876 0.833115,0.05982 1.249661,0.0899 0.373587,0.02721 0.747443,0.05043 1.120974,0.07842 0.37679,0.03124 0.75339,0.06464 1.130242,0.09519 0.369162,0.02793 0.737827,0.06177 1.106389,0.09662 0.279157,0.02641 0.558499,0.05081 0.837872,0.07481 0,0 -0.25486,2.965632 -0.25486,2.965632 v 0 c -0.287829,-0.02474 -0.575625,-0.04988 -0.863232,-0.0771 -0.355346,-0.0336 -0.710793,-0.06629 -1.066726,-0.09314 -0.370925,-0.03008 -0.741622,-0.06274 -1.112462,-0.0938 -0.370739,-0.02788 -0.741833,-0.05062 -1.112623,-0.0778 -0.415136,-0.02998 -0.830204,-0.06094 -1.245436,-0.0896 -0.419433,-0.02971 -0.838954,-0.05891 -1.258932,-0.07993 -0.391205,-0.01857 -0.78254,-0.03518 -1.174176,-0.04121 -0.40199,-0.0089 -0.803995,-0.01892 -1.206111,-0.01894 -0.448141,-0.0024 -0.896282,-0.0046 -1.34442,-0.0072 -0.49362,-0.003 -0.987239,-0.006 -1.480857,-0.0096 -0.457337,-0.0034 -0.914672,-0.0073 -1.371994,-0.01262 -0.424156,-0.0048 -0.848304,-0.01042 -1.272474,-0.014 -0.439512,-0.0019 -0.879025,-0.0038 -1.31854,-0.0047 -0.440087,6.3e-5 -0.880163,0.0039 -1.320242,0.0062 -0.427593,0.0028 -0.855186,0.0057 -1.282766,0.0098 -0.417798,0.0044 -0.835552,0.0108 -1.253233,0.02183 -0.444146,0.0105 -0.888278,0.02154 -1.332355,0.03458 -0.462671,0.0136 -0.925327,0.02787 -1.387866,0.04546 -0.464463,0.01789 -0.928889,0.03683 -1.393132,0.05979 -0.467696,0.02355 -0.935318,0.04862 -1.402667,0.07835 -0.484953,0.03095 -0.969831,0.06307 -1.454825,0.09335 -0.506661,0.03124 -1.013124,0.06539 -1.519642,0.09882 -0.522965,0.03486 -1.046031,0.0683 -1.568768,0.106453 -0.488548,0.03482 -0.976738,0.07422 -1.464924,0.113747 -0.397901,0.03202 -0.796067,0.05992 -1.194273,0.08779 -0.285001,0.01937 -0.570069,0.03776 -0.855142,0.05602 -0.24417,0.01646 -0.488158,0.03534 -0.73221,0.05349 -0.251764,0.0164 -0.503634,0.03142 -0.755833,0.03941 -0.2194,0.0069 -0.438822,0.01659 -0.658365,0.0163 -0.114493,0 -0.228986,0 -0.343477,0 0,0 0,-2.976563 0,-2.976563 z"
         inkscape:connector-curvature="0" />
      <path
         style="fill:#000000;stroke:#000000;stroke-width:0.26458332px;stroke-linecap:butt;stroke-linejoin:miter;stroke-opacity:1;marker-start:url(#StopL-36);marker-end:url(#marker5494-62)"
         d="m 94.954353,69.737101 c 0,0 -2.055491,-0.02721 -2.055491,-0.02721 0,0 -2.055492,0.01301 -2.055492,0.01301 0,0 -2.055491,0.0232 -2.055491,0.0232 0,0 -2.055491,-0.04327 -2.055491,-0.04327 0,0 -2.055491,-0.02056 -2.055491,-0.02056 0,0 -2.055492,-0.03025 -2.055492,-0.03025 0,0 -2.055491,0.111165 -2.055491,0.111165 0,0 -2.055491,-0.03442 -2.055491,-0.03442 0,0 -2.055491,0.0063 -2.055491,0.0063 0,0 -2.055491,-0.0034 -2.055491,-0.0034 0,0 -2.055492,0.0021 -2.055492,0.0021 0,0 -2.055491,-0.0083 -2.055491,-0.0083 0,0 -2.055491,-0.06196 -2.055491,-0.06196 0,0 -2.055492,0.0632 -2.055492,0.0632 0,0 -2.055491,-0.01333 -2.055491,-0.01333 0,0 -2.055491,0.01579 -2.055491,0.01579"
         id="path5440-1"
         inkscape:connector-curvature="0"
         sodipodi:nodetypes="ccccccccccccccccc" />
      <text
         xml:space="preserve"
         style="font-style:normal;font-variant:normal;font-weight:normal;font-stretch:normal;font-size:4.93888903px;line-height:1.25;font-family:Junicode;-inkscape-font-specification:Junicode;letter-spacing:0px;word-spacing:0px;fill:#000000;fill-opacity:1;stroke:none;stroke-width:0.26458332"
         x="73.827164"
         y="66.320786"
         id="text5438-8"><tspan
           sodipodi:role="line"
           id="tspan5436-7"
           x="73.827164"
           y="66.320786"
           style="font-style:normal;font-variant:normal;font-weight:normal;font-stretch:normal;font-size:4.93888903px;font-family:Junicode;-inkscape-font-specification:Junicode;stroke-width:0.26458332">NEF</tspan></text>
      <path
         style="fill:none;stroke:#999999;stroke-width:0.25;stroke-linecap:butt;stroke-linejoin:miter;stroke-miterlimit:4;stroke-dasharray:0.25000001, 0.25000001;stroke-dashoffset:0;stroke-opacity:1"
         d="m 94.955348,71.206473 v 4.44122"
         id="path17341-8"
         inkscape:connector-curvature="0" />
      <path
         style="fill:none;stroke:#999999;stroke-width:0.25;stroke-linecap:butt;stroke-linejoin:miter;stroke-miterlimit:4;stroke-dasharray:0.25000001, 0.25000001;stroke-dashoffset:0;stroke-opacity:1"
         d="m 62.057458,71.206472 v 4.441221"
         id="path17341-7-4"
         inkscape:connector-curvature="0" />
    </g>
  </g>
  <g
     inkscape:groupmode="layer"
     id="layer7"
     inkscape:label="06_nef_spa"
     style="display:none">
    <g
       transform="translate(-4.4304813,-35.65675)"
       style="display:inline"
       id="g29501">
      <path
         style="fill:none;stroke:#999999;stroke-width:0.25;stroke-linecap:butt;stroke-linejoin:miter;stroke-miterlimit:4;stroke-dasharray:0.25000001, 0.25000001;stroke-dashoffset:0;stroke-opacity:1"
         d="M 122.76988,66.954241 V 69.03311"
         id="path17341-8-5-0-6"
         inkscape:connector-curvature="0"
         sodipodi:nodetypes="cc" />
      <path
         style="fill:none;stroke:#999999;stroke-width:0.25;stroke-linecap:butt;stroke-linejoin:miter;stroke-miterlimit:4;stroke-dasharray:0.25000001, 0.25000001;stroke-dashoffset:0;stroke-opacity:1"
         d="m 122.76988,70.497767 v 5.149926"
         id="path17341-8-5-0"
         inkscape:connector-curvature="0"
         sodipodi:nodetypes="cc" />
      <path
         style="fill:#ffcc00;stroke:none;stroke-width:0.25;stroke-miterlimit:4;stroke-dasharray:none"
         id="path17964"
         d="m 61.41654,54.740883 c 0.160539,0.0029 0.321056,0.0068 0.481598,0.0098 0.202139,0.0037 0.404296,0.0064 0.606451,0.0089 0.201229,5.5e-5 0.402482,-2.65e-4 0.603684,-0.0035 0.216845,-0.0043 0.433668,-0.0093 0.650505,-0.01386 0.209431,-0.0066 0.41883,-0.01413 0.628258,-0.02077 0.232352,-0.0061 0.464629,-0.01429 0.696926,-0.02207 0.319624,-0.01275 0.638963,-0.03196 0.95845,-0.04787 0.381341,-0.0213 0.762823,-0.03979 1.1444,-0.0563 0.41983,-0.02048 0.83983,-0.03707 1.259771,-0.05498 0.462246,-0.01963 0.924584,-0.03694 1.386769,-0.05802 0.449106,-0.0213 0.898265,-0.04138 1.347324,-0.06372 0.426315,-0.02111 0.852498,-0.04474 1.278811,-0.06597 0.436906,-0.01905 0.873598,-0.04243 1.310367,-0.06433 0.510556,-0.02477 1.02126,-0.04627 1.531927,-0.06855 0.558805,-0.0236 1.117536,-0.04881 1.676323,-0.07279 0.553022,-0.02299 1.106075,-0.04521 1.659081,-0.06861 0.558427,-0.0245 1.116941,-0.04686 1.675534,-0.06719 0.580552,-0.01892 1.161302,-0.0309 1.74203,-0.04293 0.559644,-0.01146 1.119323,-0.02122 1.679012,-0.03031 0.542303,-0.01013 1.084685,-0.01368 1.627063,-0.01701 0.503415,-0.0029 1.006832,-0.0052 1.510249,-0.0075 0.452829,-0.0016 0.905656,-0.0049 1.358488,-0.0045 0.49467,-0.0016 0.989139,0.005 1.483529,0.02133 0.546253,0.02376 1.091716,0.06291 1.636956,0.1032 0.470307,0.03655 0.940803,0.07044 1.41151,0.101368 0.458221,0.02995 0.916762,0.05457 1.375383,0.0775 0.444323,0.0218 0.888765,0.0411 1.333257,0.05916 0.426458,0.01714 0.853027,0.03136 1.279615,0.04484 0.421296,0.01294 0.842507,0.02848 1.263782,0.04219 0.434827,0.01595 0.869669,0.0314 1.304578,0.04498 0.484733,0.01492 0.969569,0.02566 1.454429,0.03568 0.49736,0.01008 0.99475,0.01886 1.49215,0.02729 0.46864,0.0094 0.93737,0.01201 1.40609,0.01455 0.47974,0.0024 0.95948,0.0042 1.43922,0.0059 0.51199,0.0019 1.02399,0.0031 1.53598,0.0043 0.53293,0.0013 1.06586,0.0024 1.59879,0.0033 0.50932,0.0011 1.01864,0.0019 1.52796,0.0024 0.47749,7.93e-4 0.95489,0.0092 1.43224,0.02035 0.4709,0.01206 0.94149,0.03334 1.41211,0.0531 0.47597,0.02204 0.95199,0.04302 1.42809,0.06203 0.48655,0.01799 0.97305,0.03712 1.4596,0.05523 0.47787,0.01775 0.95584,0.03278 1.43384,0.04693 0.44604,0.01302 0.89211,0.02477 1.33821,0.03581 0.41338,0.01013 0.82681,0.01783 1.2401,0.03115 0.4149,0.01304 0.8296,0.03107 1.24437,0.04759 0.39991,0.01593 0.79991,0.02932 1.19992,0.04212 0.35322,0.01299 0.70665,0.01701 1.06007,0.01969 0.30419,0.0026 0.6084,-5.3e-4 0.91258,-0.0028 0.24903,-0.0037 0.49802,-0.0097 0.74701,-0.01524 0.0381,-7.93e-4 0.0763,-0.0016 0.11437,-0.0026 0,0 0.0664,2.975821 0.0664,2.975821 v 0 c -0.038,7.94e-4 -0.076,0.0016 -0.11402,0.0026 -0.26366,0.0059 -0.52732,0.0123 -0.79103,0.0159 -0.3193,0.0024 -0.63862,0.0056 -0.95793,0.0028 -0.37762,-0.0029 -0.75525,-0.0074 -1.13266,-0.02111 -0.40778,-0.01304 -0.81554,-0.0267 -1.22321,-0.04296 -0.40737,-0.01622 -0.81468,-0.03395 -1.22218,-0.04679 -0.40573,-0.0132 -0.81161,-0.02037 -1.21742,-0.0305 -0.45094,-0.01117 -0.90185,-0.02305 -1.35273,-0.0362 -0.48552,-0.01439 -0.97101,-0.02966 -1.4564,-0.04768 -0.48924,-0.0182 -0.97844,-0.03744 -1.46768,-0.05554 -0.47815,-0.0191 -0.95621,-0.0401 -1.43422,-0.06228 -0.45216,-0.019 -0.90428,-0.03952 -1.3567,-0.05129 -0.45567,-0.01064 -0.9114,-0.01889 -1.36722,-0.01953 -0.50965,-7.94e-4 -1.0193,-0.0016 -1.52895,-0.0024 -0.53349,-0.0011 -1.06699,-0.0021 -1.60048,-0.0033 -0.51305,-0.0013 -1.02611,-0.0026 -1.53916,-0.0043 -0.48172,-0.0016 -0.96344,-0.0034 -1.44515,-0.0059 -0.48009,-0.0026 -0.96018,-0.0053 -1.44019,-0.01495 -0.50111,-0.0085 -1.00222,-0.01733 -1.5033,-0.0275 -0.49533,-0.01024 -0.990638,-0.02125 -1.485835,-0.03649 -0.436211,-0.01363 -0.872355,-0.02906 -1.308481,-0.0451 -0.420346,-0.01368 -0.840632,-0.02918 -1.260999,-0.0421 -0.435554,-0.01378 -0.87109,-0.0283 -1.306512,-0.04581 -0.453721,-0.01844 -0.907392,-0.03814 -1.360943,-0.06042 -0.474157,-0.02371 -0.948232,-0.0492 -1.421979,-0.08019 -0.478811,-0.03148 -0.957416,-0.06588 -1.43582,-0.103065 -0.505055,-0.03738 -1.010309,-0.07367 -1.516253,-0.09674 -0.462336,-0.01545 -0.92474,-0.02119 -1.38734,-0.01969 -0.447463,-5.3e-4 -0.894921,0.003 -1.342379,0.0045 -0.501838,0.0024 -1.003679,0.0046 -1.505514,0.0075 -0.532336,0.0033 -1.064681,0.0067 -1.596946,0.01667 -0.555251,0.009 -1.110495,0.01871 -1.665705,0.03007 -0.5652,0.01169 -1.130422,0.02334 -1.695458,0.0416 -0.55272,0.02011 -1.10536,0.04226 -1.657919,0.06649 -0.552407,0.02336 -1.104863,0.04558 -1.657286,0.06853 -0.558073,0.02394 -1.11609,0.04913 -1.67418,0.07269 -0.504249,0.02199 -1.008534,0.04323 -1.512676,0.06765 -0.437116,0.02191 -0.874154,0.0453 -1.311408,0.06438 -0.426341,0.02122 -0.852553,0.04489 -1.278903,0.06597 -0.453181,0.02254 -0.906465,0.04283 -1.359696,0.0643 -0.465116,0.02117 -0.930378,0.03871 -1.395555,0.05841 -0.419309,0.01786 -0.838671,0.03447 -1.257869,0.05489 -0.375134,0.01622 -0.750165,0.03448 -1.125069,0.0554 -0.33555,0.01669 -0.670939,0.03701 -1.006661,0.04987 -0.234196,0.0079 -0.46837,0.01611 -0.702619,0.02225 -0.219845,0.007 -0.439648,0.01508 -0.659503,0.02159 -0.222245,0.0047 -0.444476,0.0099 -0.666726,0.01418 -0.229339,0.0035 -0.458719,0.0044 -0.688079,0.0037 -0.207933,-0.0026 -0.415866,-0.0054 -0.623781,-0.0092 -0.142161,-0.0026 -0.284327,-0.0053 -0.426456,-0.0093 0,0 0,-2.976563 0,-2.976563 z"
         inkscape:connector-curvature="0" />
      <path
         style="fill:#000000;stroke:#000000;stroke-width:0.26458332px;stroke-linecap:butt;stroke-linejoin:miter;stroke-opacity:1;marker-start:url(#StopL-36-9);marker-end:url(#marker5494-62-0)"
         d="m 122.75039,56.027956 c 0,0 -1.89637,0.01777 -1.89637,0.01777 0,0 -1.89637,0.07094 -1.89637,0.07094 0,0 -1.89637,-0.0099 -1.89637,-0.0099 0,0 -1.89637,-0.0517 -1.89637,-0.0517 0,0 -1.89638,0.05679 -1.89638,0.05679 0,0 -1.89637,-0.07394 -1.89637,-0.07394 0,0 -1.89637,-0.06092 -1.89637,-0.06092 0,0 -1.89637,0.06265 -1.89637,0.06265 0,0 -1.89637,0.02395 -1.89637,0.02395 0,0 -1.89637,0.0032 -1.89637,0.0032 0,0 -1.89638,0.223178 -1.89638,0.223178 0,0 -1.896369,-0.204631 -1.896369,-0.204631 0,0 -1.896372,-0.05106 -1.896372,-0.05106 0,0 -1.896372,0.03166 -1.896372,0.03166 0,0 -1.896373,0.01917 -1.896373,0.01917 0,0 -1.896372,-0.02334 -1.896372,-0.02334 0,0 -1.896372,-0.01715 -1.896372,-0.01715 0,0 -1.896371,-0.01264 -1.896371,-0.01264 0,0 -1.896372,0.04297 -1.896372,0.04297 0,0 -1.896372,-0.02926 -1.896372,-0.02926 0,0 -1.896372,0.02796 -1.896372,0.02796 0,0 -1.896372,0.0048 -1.896372,0.0048 0,0 -1.896371,-0.138335 -1.896371,-0.138335 0,0 -1.896372,0.162012 -1.896372,0.162012 0,0 -1.896372,-0.04203 -1.896372,-0.04203 0,0 -1.896371,0.03784 -1.896371,0.03784 0,0 -1.896372,-0.04343 -1.896372,-0.04343 0,0 -1.896372,-0.01271 -1.896372,-0.01271 0,0 -1.896372,-0.0127 -1.896372,-0.0127 0,0 -1.896371,0.03005 -1.896371,0.03005 0,0 -1.896372,-0.009 -1.896372,-0.009 0,0 -1.896372,0.0038 -1.896372,0.0038"
         id="path5440-1-3"
         inkscape:connector-curvature="0"
         sodipodi:nodetypes="ccccccccccccccccccccccccccccccccc" />
      <text
         xml:space="preserve"
         style="font-style:normal;font-variant:normal;font-weight:normal;font-stretch:normal;font-size:4.93888903px;line-height:1.25;font-family:Junicode;-inkscape-font-specification:Junicode;letter-spacing:0px;word-spacing:0px;fill:#000000;fill-opacity:1;stroke:none;stroke-width:0.26458332"
         x="80.913712"
         y="52.946968"
         id="text5438-8-7"><tspan
           sodipodi:role="line"
           id="tspan5436-7-5"
           x="80.913712"
           y="52.946968"
           style="font-style:normal;font-variant:normal;font-weight:normal;font-stretch:normal;font-size:4.93888903px;font-family:Junicode;-inkscape-font-specification:Junicode;stroke-width:0.26458332">NEF + SPA</tspan></text>
      <path
         style="fill:none;stroke:#999999;stroke-width:0.25;stroke-linecap:butt;stroke-linejoin:miter;stroke-miterlimit:4;stroke-dasharray:0.25000001, 0.25000001;stroke-dashoffset:0;stroke-opacity:1"
         d="M 62.057457,57.552082 V 67.899181"
         id="path17341-7-4-3"
         inkscape:connector-curvature="0"
         sodipodi:nodetypes="cc" />
      <path
         style="fill:none;stroke:#999999;stroke-width:0.25;stroke-linecap:butt;stroke-linejoin:miter;stroke-miterlimit:4;stroke-dasharray:0.25000001, 0.25000001;stroke-dashoffset:0;stroke-opacity:1"
         d="m 122.76988,57.552081 v 4.488468"
         id="path17341-7-4-3-6"
         inkscape:connector-curvature="0"
         sodipodi:nodetypes="cc" />
    </g>
  </g>
</svg>
