<?xml version="1.0" encoding="UTF-8" standalone="no"?>
<!-- Created with Inkscape (http://www.inkscape.org/) -->

<svg
   xmlns:dc="http://purl.org/dc/elements/1.1/"
   xmlns:cc="http://creativecommons.org/ns#"
   xmlns:rdf="http://www.w3.org/1999/02/22-rdf-syntax-ns#"
   xmlns:svg="http://www.w3.org/2000/svg"
   xmlns="http://www.w3.org/2000/svg"
   xmlns:sodipodi="http://sodipodi.sourceforge.net/DTD/sodipodi-0.dtd"
   xmlns:inkscape="http://www.inkscape.org/namespaces/inkscape"
   version="1.1"
   id="svg2297"
   xml:space="preserve"
   width="304.69919"
   height="199.61705"
   viewBox="0 0 304.69919 199.61705"
   sodipodi:docname="n_comp_lif_d.svg"
   inkscape:version="0.92.2 2405546, 2018-03-11"><metadata
     id="metadata2303"><rdf:RDF><cc:Work
         rdf:about=""><dc:format>image/svg+xml</dc:format><dc:type
           rdf:resource="http://purl.org/dc/dcmitype/StillImage" /><dc:title></dc:title></cc:Work></rdf:RDF></metadata><defs
     id="defs2301" /><sodipodi:namedview
     pagecolor="#ffffff"
     bordercolor="#666666"
     borderopacity="1"
     objecttolerance="10"
     gridtolerance="10"
     guidetolerance="10"
     inkscape:pageopacity="0"
     inkscape:pageshadow="2"
     inkscape:window-width="1920"
     inkscape:window-height="1016"
     id="namedview2299"
     showgrid="false"
     inkscape:zoom="2.3039116"
     inkscape:cx="139.81943"
     inkscape:cy="66.624462"
     inkscape:window-x="0"
     inkscape:window-y="27"
     inkscape:window-maximized="1"
     inkscape:current-layer="g2305" /><g
     id="g2305"
     inkscape:groupmode="layer"
     inkscape:label="n_comp_lif_d"
     transform="matrix(1.3333333,0,0,-1.3333333,0,199.61705)"><g
       id="g2307"><g
         id="g2311"
         transform="matrix(1,0,0,-1,0,149.71278)"><path
           d="m 89.543,82.555 h 15.469 l 1.289,-1.743 1.289,2.813 1.289,-2.813 1.289,2.813 1.289,-2.813 1.289,2.813 1.289,-2.813 1.289,1.743 h 15.469"
           style="fill:none;stroke:#000000;stroke-width:1.001706;stroke-linecap:butt;stroke-linejoin:miter;stroke-miterlimit:4;stroke-dasharray:none;stroke-opacity:1"
           id="path2313"
           inkscape:connector-curvature="0" /></g><g
         id="g2315"
         transform="matrix(1,0,0,-1,0,149.71278)"><path
           d="m 145.258,82.555 h 15.469 l 1.289,-1.743 1.289,2.813 1.289,-2.813 1.289,2.813 1.289,-2.813 1.289,2.813 1.289,-2.813 1.289,1.743 h 15.469"
           style="fill:none;stroke:#000000;stroke-width:1.001706;stroke-linecap:butt;stroke-linejoin:miter;stroke-miterlimit:4;stroke-dasharray:none;stroke-opacity:1"
           id="path2317"
           inkscape:connector-curvature="0" /></g><text
         transform="matrix(1,0,0,-1,171.20054,48.104958)"
         style="font-style:italic;font-variant:normal;font-size:8.99452782px;font-family:TeXGyreTermes;-inkscape-font-specification:TeXGyreTermes-Italic;writing-mode:lr-tb;fill:#000000;fill-opacity:1;fill-rule:nonzero;stroke:none"
         id="text2321"><tspan
           x="0"
           y="0"
           id="tspan2319">c</tspan></text>
<text
         transform="matrix(1,0,0,-1,175.18835,46.306053)"
         style="font-variant:normal;font-weight:normal;font-size:5.84644318px;font-family:TeXGyreTermes;-inkscape-font-specification:TeXGyreTermes-Regular;writing-mode:lr-tb;fill:#000000;fill-opacity:1;fill-rule:nonzero;stroke:none"
         id="text2325"><tspan
           x="0 2.9232216"
           y="0"
           sodipodi:role="line"
           id="tspan2323">12</tspan></text>
<g
         id="g2327"
         transform="matrix(0.267948,-1,-1,-0.267948,0,149.71278)"><path
           d="m 122.44,-134.114 10.599,-2.399"
           style="fill:none;stroke:#000000;stroke-width:0.482669;stroke-linecap:butt;stroke-linejoin:miter;stroke-miterlimit:4;stroke-dasharray:none;stroke-opacity:1"
           id="path2329"
           inkscape:connector-curvature="0" /></g><g
         id="g2331"
         transform="matrix(1,0,0,-1,0,149.71278)"><path
           d="m 202.352,83.016 c 0,4.98 -4.036,9.015 -9.012,9.015 -4.981,0 -9.016,-4.035 -9.016,-9.015 0,-4.981 4.035,-9.016 9.016,-9.016 4.976,0 9.012,4.035 9.012,9.016 z"
           style="fill:#ffffff;fill-opacity:1;fill-rule:nonzero;stroke:#000000;stroke-width:1.001706;stroke-linecap:butt;stroke-linejoin:miter;stroke-miterlimit:4;stroke-dasharray:none;stroke-opacity:1"
           id="path2333"
           inkscape:connector-curvature="0" /></g><text
         transform="matrix(1,0,0,-1,199.8943,79.422128)"
         style="font-variant:normal;font-weight:bold;font-size:11.0187664px;font-family:TeXGyreTermes;-inkscape-font-specification:TeXGyreTermes-Bold;writing-mode:lr-tb;fill:#000000;fill-opacity:1;fill-rule:nonzero;stroke:none"
         id="text2337"><tspan
           x="0 4.2863002 9.7956829 18.974316"
           y="0"
           sodipodi:role="line"
           id="tspan2335">soma</tspan></text>
<g
         id="g2339"
         transform="matrix(1,0,0,-1,0,149.71278)"><path
           d="M 67.047,86.426 C 54.656,89.773 37.266,94.469 29.805,96.484"
           style="fill:none;stroke:#000000;stroke-width:1.001706;stroke-linecap:butt;stroke-linejoin:miter;stroke-miterlimit:4;stroke-dasharray:none;stroke-opacity:1"
           id="path2341"
           inkscape:connector-curvature="0" /></g><g
         id="g2343"
         transform="matrix(1,0,0,-1,0,149.71278)"><path
           d="m 17.648,99.488 c -0.855,0.192 -1.753,0.395 -2.683,0.602"
           style="fill:none;stroke:#000000;stroke-width:0.500853;stroke-linecap:butt;stroke-linejoin:miter;stroke-miterlimit:4;stroke-dasharray:none;stroke-opacity:1"
           id="path2345"
           inkscape:connector-curvature="0" /></g><g
         id="g2347"
         transform="matrix(1,0.289849,0.289849,-1,0,149.71278)"><path
           d="m -10.033,94.721 4.697,1.975 -4.906,1.386 z"
           style="fill:#000000;fill-opacity:1;fill-rule:nonzero;stroke:#000000;stroke-width:0.48105299;stroke-linecap:butt;stroke-linejoin:miter;stroke-miterlimit:4;stroke-dasharray:none;stroke-opacity:1"
           id="path2349"
           inkscape:connector-curvature="0" /></g><g
         id="g2351"
         transform="matrix(1,0.289849,0.289849,-1,0,149.71278)"><path
           d="m 1.45,96.909 c 0,1.859 -1.507,3.367 -3.367,3.367 -1.859,0.001 -3.367,-1.507 -3.368,-3.366 0,-1.86 1.508,-3.368 3.367,-3.368 1.86,0 3.368,1.507 3.368,3.367 z"
           style="fill:none;stroke:#000000;stroke-width:0.96210599;stroke-linecap:butt;stroke-linejoin:miter;stroke-miterlimit:4;stroke-dasharray:none;stroke-opacity:1"
           id="path2353"
           inkscape:connector-curvature="0" /></g><text
         transform="matrix(1,0,0,-1,29.686084,42.560185)"
         style="font-style:italic;font-variant:normal;font-size:11.01876545px;font-family:TeXGyreTermes;-inkscape-font-specification:TeXGyreTermes-Italic;writing-mode:lr-tb;fill:#000000;fill-opacity:1;fill-rule:nonzero;stroke:none"
         id="text2357"><tspan
           x="0"
           y="0"
           id="tspan2355">E</tspan></text>
<text
         transform="matrix(1,0,0,-1,36.422165,40.356432)"
         style="font-variant:normal;font-weight:normal;font-size:7.16219807px;font-family:TeXGyreTermes;-inkscape-font-specification:TeXGyreTermes-Regular;writing-mode:lr-tb;fill:#000000;fill-opacity:1;fill-rule:nonzero;stroke:none"
         id="text2361"><tspan
           x="0"
           y="0"
           id="tspan2359">I</tspan></text>
<g
         id="g2363"
         transform="matrix(1,0,0,-1,0,149.71278)"><path
           d="M 67.039,77.742 C 54.633,74.441 37.227,69.816 29.758,67.828"
           style="fill:none;stroke:#000000;stroke-width:1.001706;stroke-linecap:butt;stroke-linejoin:miter;stroke-miterlimit:4;stroke-dasharray:none;stroke-opacity:1"
           id="path2365"
           inkscape:connector-curvature="0" /></g><g
         id="g2367"
         transform="matrix(1,-0.246286,-0.246286,-1,0,149.71278)"><path
           d="m 81.412,56.027 4.833,1.795 -4.893,1.611 z"
           style="fill:#000000;fill-opacity:1;fill-rule:nonzero;stroke:#000000;stroke-width:0.972642;stroke-linecap:butt;stroke-linejoin:miter;stroke-miterlimit:4;stroke-dasharray:none;stroke-opacity:1"
           id="path2369"
           inkscape:connector-curvature="0" /></g><g
         id="g2371"
         transform="matrix(1,0,0,-1,0,149.71278)"><path
           d="M 17.848,64.199 C 17.012,63.938 16.133,63.66 15.223,63.379"
           style="fill:none;stroke:#000000;stroke-width:0.500853;stroke-linecap:butt;stroke-linejoin:miter;stroke-miterlimit:4;stroke-dasharray:none;stroke-opacity:1"
           id="path2373"
           inkscape:connector-curvature="0" /></g><g
         id="g2375"
         transform="matrix(1,-0.246286,-0.246286,-1,0,149.71278)"><path
           d="m 31.948,54.761 4.75,1.998 -4.96,1.401 z"
           style="fill:#000000;fill-opacity:1;fill-rule:nonzero;stroke:#000000;stroke-width:0.486321;stroke-linecap:butt;stroke-linejoin:miter;stroke-miterlimit:4;stroke-dasharray:none;stroke-opacity:1"
           id="path2377"
           inkscape:connector-curvature="0" /></g><g
         id="g2379"
         transform="matrix(1,-0.246286,-0.246286,-1,0,149.71278)"><path
           d="m 43.56,56.975 c -0.002,1.879 -1.526,3.403 -3.404,3.405 -1.883,-0.001 -3.407,-1.525 -3.406,-3.408 -10e-4,-1.878 1.522,-3.402 3.405,-3.401 1.878,-10e-4 3.402,1.522 3.405,3.404 z"
           style="fill:none;stroke:#000000;stroke-width:0.972642;stroke-linecap:butt;stroke-linejoin:miter;stroke-miterlimit:4;stroke-dasharray:none;stroke-opacity:1"
           id="path2381"
           inkscape:connector-curvature="0" /></g><text
         transform="matrix(1,0,0,-1,29.686084,70.685164)"
         style="font-style:italic;font-variant:normal;font-size:11.01876545px;font-family:TeXGyreTermes;-inkscape-font-specification:TeXGyreTermes-Italic;writing-mode:lr-tb;fill:#000000;fill-opacity:1;fill-rule:nonzero;stroke:none"
         id="text2385"><tspan
           x="0"
           y="0"
           id="tspan2383">E</tspan></text>
<text
         transform="matrix(1,0,0,-1,36.422165,68.48141)"
         style="font-variant:normal;font-weight:normal;font-size:7.16219902px;font-family:TeXGyreTermes;-inkscape-font-specification:TeXGyreTermes-Regular;writing-mode:lr-tb;fill:#000000;fill-opacity:1;fill-rule:nonzero;stroke:none"
         id="text2389"><tspan
           x="0"
           y="0"
           id="tspan2387">E</tspan></text>
<text
         transform="matrix(1,0,0,-1,4.172662,84.822411)"
         style="font-style:italic;font-variant:normal;font-size:11.01876545px;font-family:TeXGyreTermes;-inkscape-font-specification:TeXGyreTermes-Italic;writing-mode:lr-tb;fill:#000000;fill-opacity:1;fill-rule:nonzero;stroke:none"
         id="text2393"><tspan
           x="0"
           y="0"
           id="tspan2391">g</tspan></text>
<text
         transform="matrix(1,0,0,-1,9.427782,81.072408)"
         style="font-variant:normal;font-weight:normal;font-size:7px;font-family:TeXGyreTermes;-inkscape-font-specification:TeXGyreTermes-Regular;writing-mode:lr-tb;fill:#000000;fill-opacity:1;fill-rule:nonzero;stroke:none"
         id="text2399"><tspan
           x="0"
           y="0"
           id="tspan2395">E</tspan><tspan
           x="-0.1008665"
           y="-7.4821739"
           id="tspan2397">1</tspan></text>
<text
         transform="matrix(1,0,0,-1,6.348018,47.476882)"
         style="font-style:italic;font-variant:normal;font-size:11.01876545px;font-family:TeXGyreTermes;-inkscape-font-specification:TeXGyreTermes-Italic;writing-mode:lr-tb;fill:#000000;fill-opacity:1;fill-rule:nonzero;stroke:none"
         id="text2403"><tspan
           x="0"
           y="0"
           id="tspan2401">g</tspan></text>
<text
         transform="matrix(1,0,0,-1,11.603137,43.726878)"
         style="font-variant:normal;font-weight:normal;font-size:7px;font-family:TeXGyreTermes;-inkscape-font-specification:TeXGyreTermes-Regular;writing-mode:lr-tb;fill:#000000;fill-opacity:1;fill-rule:nonzero;stroke:none"
         id="text2409"><tspan
           x="0"
           y="0"
           id="tspan2405">I</tspan><tspan
           x="-0.47967851"
           y="-7.4821739"
           id="tspan2407">1</tspan></text>
<text
         transform="matrix(1,0,0,-1,116.34658,137.85496)"
         style="font-style:italic;font-variant:normal;font-size:11.01876545px;font-family:TeXGyreTermes;-inkscape-font-specification:TeXGyreTermes-Italic;writing-mode:lr-tb;fill:#000000;fill-opacity:1;fill-rule:nonzero;stroke:none"
         id="text2413"><tspan
           x="0"
           y="0"
           id="tspan2411">g</tspan></text>
<text
         transform="matrix(1,0,0,-1,121.6017,134.10496)"
         style="font-variant:normal;font-weight:normal;font-size:7px;font-family:TeXGyreTermes;-inkscape-font-specification:TeXGyreTermes-Regular;writing-mode:lr-tb;fill:#000000;fill-opacity:1;fill-rule:nonzero;stroke:none"
         id="text2419"><tspan
           x="0"
           y="0"
           id="tspan2415">I</tspan><tspan
           x="0.37264851"
           y="-7.4821739"
           id="tspan2417">2</tspan></text>
<text
         transform="matrix(1,0,0,-1,152.28661,137.85496)"
         style="font-style:italic;font-variant:normal;font-size:11.01876545px;font-family:TeXGyreTermes;-inkscape-font-specification:TeXGyreTermes-Italic;writing-mode:lr-tb;fill:#000000;fill-opacity:1;fill-rule:nonzero;stroke:none"
         id="text2423"><tspan
           x="0"
           y="0"
           id="tspan2421">g</tspan></text>
<text
         transform="matrix(1,0,0,-1,157.54173,134.10496)"
         style="font-variant:normal;font-weight:normal;font-size:7px;font-family:TeXGyreTermes;-inkscape-font-specification:TeXGyreTermes-Regular;writing-mode:lr-tb;fill:#000000;fill-opacity:1;fill-rule:nonzero;stroke:none"
         id="text2429"><tspan
           x="0"
           y="0"
           id="tspan2425">E</tspan><tspan
           x="0.37264851"
           y="-7.4821739"
           id="tspan2427">2</tspan></text>
<g
         id="g2431"
         transform="matrix(1,0,0,-1,0,149.71278)"><path
           d="m 147.711,82.555 c 0,4.976 -4.035,9.015 -9.016,9.015 -4.98,0 -9.015,-4.039 -9.015,-9.015 0,-4.981 4.035,-9.016 9.015,-9.016 4.981,0 9.016,4.035 9.016,9.016 z"
           style="fill:#ffffff;fill-opacity:1;fill-rule:nonzero;stroke:#000000;stroke-width:1.001706;stroke-linecap:butt;stroke-linejoin:miter;stroke-miterlimit:4;stroke-dasharray:none;stroke-opacity:1"
           id="path2433"
           inkscape:connector-curvature="0" /></g><g
         id="g2435"
         transform="matrix(1,0,0,-1,0,149.71278)"><path
           d="m 89.852,82.555 c 0,4.976 -4.036,9.015 -9.012,9.015 -4.981,0 -9.016,-4.039 -9.016,-9.015 0,-4.981 4.035,-9.016 9.016,-9.016 4.976,0 9.012,4.035 9.012,9.016 z"
           style="fill:#ffffff;fill-opacity:1;fill-rule:nonzero;stroke:#000000;stroke-width:1.001706;stroke-linecap:butt;stroke-linejoin:miter;stroke-miterlimit:4;stroke-dasharray:none;stroke-opacity:1"
           id="path2437"
           inkscape:connector-curvature="0" /></g><text
         transform="matrix(1,0,0,-1,115.58202,82.72683)"
         style="font-style:italic;font-variant:normal;font-size:8.99452782px;font-family:TeXGyreTermes;-inkscape-font-specification:TeXGyreTermes-Italic;writing-mode:lr-tb;fill:#000000;fill-opacity:1;fill-rule:nonzero;stroke:none"
         id="text2441"><tspan
           x="0"
           y="0"
           id="tspan2439">c</tspan></text>
<text
         transform="matrix(1,0,0,-1,119.56983,80.927925)"
         style="font-variant:normal;font-weight:normal;font-size:5.84644318px;font-family:TeXGyreTermes;-inkscape-font-specification:TeXGyreTermes-Regular;writing-mode:lr-tb;fill:#000000;fill-opacity:1;fill-rule:nonzero;stroke:none"
         id="text2445"><tspan
           x="0 2.9232216"
           y="0"
           sodipodi:role="line"
           id="tspan2443">23</tspan></text>
<g
         id="g2447"
         transform="matrix(0.267948,-1,-1,-0.267948,0,149.71278)"><path
           d="m 93.95,-92.022 7.304,6.899"
           style="fill:none;stroke:#000000;stroke-width:0.482669;stroke-linecap:butt;stroke-linejoin:miter;stroke-miterlimit:4;stroke-dasharray:none;stroke-opacity:1"
           id="path2449"
           inkscape:connector-curvature="0" /></g><text
         transform="matrix(1,0,0,-1,154.89981,90.786342)"
         style="font-variant:normal;font-weight:bold;font-size:10.99331093px;font-family:TeXGyreTermes;-inkscape-font-specification:TeXGyreTermes-Bold;writing-mode:lr-tb;fill:#000000;fill-opacity:1;fill-rule:nonzero;stroke:none"
         id="text2453"><tspan
           x="0 6.1122808 10.817418 15.995268 21.491922 24.548063 33.70549 39.202148"
           y="0"
           sodipodi:role="line"
           id="tspan2451">proximal</tspan></text>
<g
         id="g2455"
         transform="matrix(0.267948,-1,-1,-0.267948,0,149.71278)"><path
           d="m 97.849,-129.766 9.4,11.073"
           style="fill:none;stroke:#000000;stroke-width:0.482669;stroke-linecap:butt;stroke-linejoin:miter;stroke-miterlimit:4;stroke-dasharray:none;stroke-opacity:1"
           id="path2457"
           inkscape:connector-curvature="0" /></g><g
         id="g2459"
         transform="matrix(0,-1,-1,0,0,149.71278)"><path
           d="m 69.246,-134.051 c -12.391,3.344 -29.781,8.043 -37.242,10.055"
           style="fill:none;stroke:#000000;stroke-width:1.001706;stroke-linecap:butt;stroke-linejoin:miter;stroke-miterlimit:4;stroke-dasharray:none;stroke-opacity:1"
           id="path2461"
           inkscape:connector-curvature="0" /></g><g
         id="g2463"
         transform="matrix(0,-1,-1,0,0,149.71278)"><path
           d="m 19.973,-121.133 c -0.856,0.192 -1.754,0.395 -2.684,0.602"
           style="fill:none;stroke:#000000;stroke-width:0.500853;stroke-linecap:butt;stroke-linejoin:miter;stroke-miterlimit:4;stroke-dasharray:none;stroke-opacity:1"
           id="path2465"
           inkscape:connector-curvature="0" /></g><g
         id="g2467"
         transform="matrix(0.289849,-1,-1,-0.289849,0,149.71278)"><path
           d="m 55.649,-106.105 -4.905,1.383 0.209,-3.361 z"
           style="fill:#000000;fill-opacity:1;fill-rule:nonzero;stroke:#000000;stroke-width:0.48105299;stroke-linecap:butt;stroke-linejoin:miter;stroke-miterlimit:4;stroke-dasharray:none;stroke-opacity:1"
           id="path2469"
           inkscape:connector-curvature="0" /></g><g
         id="g2471"
         transform="matrix(0.289849,-1,-1,-0.289849,0,149.71278)"><path
           d="m 62.435,-105.892 c 0,1.86 -1.508,3.368 -3.367,3.368 -1.863,-0.001 -3.367,-1.511 -3.367,-3.37 0,-1.86 1.508,-3.368 3.367,-3.368 1.859,0 3.367,1.511 3.367,3.37 z"
           style="fill:none;stroke:#000000;stroke-width:0.96210599;stroke-linecap:butt;stroke-linejoin:miter;stroke-miterlimit:4;stroke-dasharray:none;stroke-opacity:1"
           id="path2473"
           inkscape:connector-curvature="0" /></g><text
         transform="matrix(1,0,0,-1,111.06244,109.36487)"
         style="font-style:italic;font-variant:normal;font-size:11.01876545px;font-family:TeXGyreTermes;-inkscape-font-specification:TeXGyreTermes-Italic;writing-mode:lr-tb;fill:#000000;fill-opacity:1;fill-rule:nonzero;stroke:none"
         id="text2477"><tspan
           x="0"
           y="0"
           id="tspan2475">E</tspan></text>
<text
         transform="matrix(1,0,0,-1,117.79852,107.16111)"
         style="font-variant:normal;font-weight:normal;font-size:7.16219807px;font-family:TeXGyreTermes;-inkscape-font-specification:TeXGyreTermes-Regular;writing-mode:lr-tb;fill:#000000;fill-opacity:1;fill-rule:nonzero;stroke:none"
         id="text2481"><tspan
           x="0"
           y="0"
           id="tspan2479">I</tspan></text>
<g
         id="g2483"
         transform="matrix(0,-1,-1,0,0,149.71278)"><path
           d="m 69.242,-142.738 c -12.406,-3.297 -29.812,-7.926 -37.281,-9.91"
           style="fill:none;stroke:#000000;stroke-width:1.001706;stroke-linecap:butt;stroke-linejoin:miter;stroke-miterlimit:4;stroke-dasharray:none;stroke-opacity:1"
           id="path2485"
           inkscape:connector-curvature="0" /></g><g
         id="g2487"
         transform="matrix(-0.246286,-1,-1,0.246286,0,149.71278)"><path
           d="m 37.126,-150.562 -4.892,1.615 0.06,-3.405 z"
           style="fill:#000000;fill-opacity:1;fill-rule:nonzero;stroke:#000000;stroke-width:0.972642;stroke-linecap:butt;stroke-linejoin:miter;stroke-miterlimit:4;stroke-dasharray:none;stroke-opacity:1"
           id="path2489"
           inkscape:connector-curvature="0" /></g><g
         id="g2491"
         transform="matrix(0,-1,-1,0,0,149.71278)"><path
           d="m 20.109,-156.184 c -0.839,-0.261 -1.718,-0.539 -2.625,-0.824"
           style="fill:none;stroke:#000000;stroke-width:0.500853;stroke-linecap:butt;stroke-linejoin:miter;stroke-miterlimit:4;stroke-dasharray:none;stroke-opacity:1"
           id="path2493"
           inkscape:connector-curvature="0" /></g><g
         id="g2495"
         transform="matrix(-0.246286,-1,-1,0.246286,0,149.71278)"><path
           d="m -12.42,-151.621 -4.96,1.401 0.21,-3.399 z"
           style="fill:#000000;fill-opacity:1;fill-rule:nonzero;stroke:#000000;stroke-width:0.486321;stroke-linecap:butt;stroke-linejoin:miter;stroke-miterlimit:4;stroke-dasharray:none;stroke-opacity:1"
           id="path2497"
           inkscape:connector-curvature="0" /></g><g
         id="g2499"
         transform="matrix(-0.246286,-1,-1,0.246286,0,149.71278)"><path
           d="m -5.563,-151.407 c 0.003,1.882 -1.521,3.405 -3.404,3.404 -1.878,0.002 -3.403,-1.525 -3.404,-3.403 0.002,-1.88 1.525,-3.403 3.407,-3.406 1.879,0.002 3.403,1.525 3.401,3.405 z"
           style="fill:none;stroke:#000000;stroke-width:0.972642;stroke-linecap:butt;stroke-linejoin:miter;stroke-miterlimit:4;stroke-dasharray:none;stroke-opacity:1"
           id="path2501"
           inkscape:connector-curvature="0" /></g><text
         transform="matrix(1,0,0,-1,136.83828,109.17546)"
         style="font-style:italic;font-variant:normal;font-size:11.01876545px;font-family:TeXGyreTermes;-inkscape-font-specification:TeXGyreTermes-Italic;writing-mode:lr-tb;fill:#000000;fill-opacity:1;fill-rule:nonzero;stroke:none"
         id="text2505"><tspan
           x="0"
           y="0"
           id="tspan2503">E</tspan></text>
<text
         transform="matrix(1,0,0,-1,143.57436,106.97171)"
         style="font-variant:normal;font-weight:normal;font-size:7.16219902px;font-family:TeXGyreTermes;-inkscape-font-specification:TeXGyreTermes-Regular;writing-mode:lr-tb;fill:#000000;fill-opacity:1;fill-rule:nonzero;stroke:none"
         id="text2509"><tspan
           x="0"
           y="0"
           id="tspan2507">E</tspan></text>
<text
         transform="matrix(1,0,0,-1,67.94063,83.237022)"
         style="font-variant:normal;font-weight:bold;font-size:10.99331188px;font-family:TeXGyreTermes;-inkscape-font-specification:TeXGyreTermes-Bold;writing-mode:lr-tb;fill:#000000;fill-opacity:1;fill-rule:nonzero;stroke:none"
         id="text2513"><tspan
           x="0 6.1122813 9.1684217 13.44482 17.215527 22.712183"
           y="0"
           sodipodi:role="line"
           id="tspan2511">distal</tspan></text>
<g
         id="g2515"
         transform="matrix(1,0,0,-1,0,149.71278)"><path
           d="m 81.59,91.641 v 41.25"
           style="fill:none;stroke:#000000;stroke-width:1.001706;stroke-linecap:butt;stroke-linejoin:miter;stroke-miterlimit:4;stroke-dasharray:none;stroke-opacity:1"
           id="path2517"
           inkscape:connector-curvature="0" /></g><g
         id="g2519"
         transform="matrix(1,-0.142048,-0.142048,-1,0,149.71278)"><path
           d="m 102.373,121.864 c -0.001,1.919 -1.554,3.471 -3.471,3.474 -1.918,-10e-4 -3.471,-1.554 -3.474,-3.471 0.001,-1.919 1.554,-3.471 3.472,-3.47 1.918,-0.003 3.471,1.554 3.473,3.467 z"
           style="fill:#000000;fill-opacity:1;fill-rule:nonzero;stroke:#000000;stroke-width:0.99175;stroke-linecap:butt;stroke-linejoin:miter;stroke-miterlimit:4;stroke-dasharray:none;stroke-opacity:1"
           id="path2521"
           inkscape:connector-curvature="0" /></g><text
         transform="matrix(1,0,0,-1,87.849983,5.597369)"
         style="font-style:italic;font-variant:normal;font-size:11.0187664px;font-family:TeXGyreTermes;-inkscape-font-specification:TeXGyreTermes-Italic;writing-mode:lr-tb;fill:#000000;fill-opacity:1;fill-rule:nonzero;stroke:none"
         id="text2525"><tspan
           x="0"
           y="0"
           id="tspan2523">E</tspan></text>
<text
         transform="matrix(1,0,0,-1,94.586064,3.393616)"
         style="font-variant:normal;font-weight:normal;font-size:7.16219807px;font-family:TeXGyreTermes;-inkscape-font-specification:TeXGyreTermes-Regular;writing-mode:lr-tb;fill:#000000;fill-opacity:1;fill-rule:nonzero;stroke:none"
         id="text2529"><tspan
           x="0"
           y="0"
           id="tspan2527">L</tspan></text>
<text
         transform="matrix(1,0,0,-1,98.964518,5.597369)"
         style="font-style:italic;font-variant:normal;font-size:11.0187664px;font-family:TeXGyreTermes;-inkscape-font-specification:TeXGyreTermes-Italic;writing-mode:lr-tb;fill:#000000;fill-opacity:1;fill-rule:nonzero;stroke:none"
         id="text2533"><tspan
           x="0 2.7546916 5.5093832"
           y="0"
           sodipodi:role="line"
           id="tspan2531">, g</tspan></text>
<text
         transform="matrix(1,0,0,-1,109.98328,3.393616)"
         style="font-variant:normal;font-weight:normal;font-size:7.16219807px;font-family:TeXGyreTermes;-inkscape-font-specification:TeXGyreTermes-Regular;writing-mode:lr-tb;fill:#000000;fill-opacity:1;fill-rule:nonzero;stroke:none"
         id="text2537"><tspan
           x="0"
           y="0"
           id="tspan2535">L</tspan></text>
<g
         id="g2539"
         transform="matrix(1,0,0,-1,0,149.71278)"><path
           d="m 139.168,91.641 v 41.25"
           style="fill:none;stroke:#000000;stroke-width:1.001706;stroke-linecap:butt;stroke-linejoin:miter;stroke-miterlimit:4;stroke-dasharray:none;stroke-opacity:1"
           id="path2541"
           inkscape:connector-curvature="0" /></g><g
         id="g2543"
         transform="matrix(1,-0.142048,-0.142048,-1,0,149.71278)"><path
           d="m 158.812,113.847 c -0.001,1.918 -1.554,3.471 -3.471,3.474 -1.918,-0.001 -3.471,-1.554 -3.47,-3.472 -0.003,-1.918 1.554,-3.471 3.468,-3.469 1.918,-0.003 3.471,1.554 3.473,3.467 z"
           style="fill:#000000;fill-opacity:1;fill-rule:nonzero;stroke:#000000;stroke-width:0.99175;stroke-linecap:butt;stroke-linejoin:miter;stroke-miterlimit:4;stroke-dasharray:none;stroke-opacity:1"
           id="path2545"
           inkscape:connector-curvature="0" /></g><text
         transform="matrix(1,0,0,-1,145.61809,5.597369)"
         style="font-style:italic;font-variant:normal;font-size:11.01876736px;font-family:TeXGyreTermes;-inkscape-font-specification:TeXGyreTermes-Italic;writing-mode:lr-tb;fill:#000000;fill-opacity:1;fill-rule:nonzero;stroke:none"
         id="text2549"><tspan
           x="0"
           y="0"
           id="tspan2547">E</tspan></text>
<text
         transform="matrix(1,0,0,-1,152.35417,3.393616)"
         style="font-variant:normal;font-weight:normal;font-size:7.16219902px;font-family:TeXGyreTermes;-inkscape-font-specification:TeXGyreTermes-Regular;writing-mode:lr-tb;fill:#000000;fill-opacity:1;fill-rule:nonzero;stroke:none"
         id="text2553"><tspan
           x="0"
           y="0"
           id="tspan2551">L</tspan></text>
<text
         transform="matrix(1,0,0,-1,156.73262,5.597369)"
         style="font-style:italic;font-variant:normal;font-size:11.01876736px;font-family:TeXGyreTermes;-inkscape-font-specification:TeXGyreTermes-Italic;writing-mode:lr-tb;fill:#000000;fill-opacity:1;fill-rule:nonzero;stroke:none"
         id="text2557"><tspan
           x="0 2.7546918 5.5093837"
           y="0"
           sodipodi:role="line"
           id="tspan2555">, g</tspan></text>
<text
         transform="matrix(1,0,0,-1,167.75139,3.393616)"
         style="font-variant:normal;font-weight:normal;font-size:7.16219902px;font-family:TeXGyreTermes;-inkscape-font-specification:TeXGyreTermes-Regular;writing-mode:lr-tb;fill:#000000;fill-opacity:1;fill-rule:nonzero;stroke:none"
         id="text2561"><tspan
           x="0"
           y="0"
           id="tspan2559">L</tspan></text>
<g
         id="g2563"
         transform="matrix(1,0,0,-1,0,149.71278)"><path
           d="m 193.34,91.641 v 41.25"
           style="fill:none;stroke:#000000;stroke-width:1.001706;stroke-linecap:butt;stroke-linejoin:miter;stroke-miterlimit:4;stroke-dasharray:none;stroke-opacity:1"
           id="path2565"
           inkscape:connector-curvature="0" /></g><g
         id="g2567"
         transform="matrix(1,-0.142048,-0.142048,-1,0,149.71278)"><path
           d="m 211.909,106.305 c -0.001,1.918 -1.554,3.471 -3.471,3.474 -1.915,-0.002 -3.471,-1.554 -3.47,-3.472 0.001,-1.918 1.554,-3.471 3.472,-3.47 1.917,-0.003 3.47,1.554 3.469,3.468 z"
           style="fill:#000000;fill-opacity:1;fill-rule:nonzero;stroke:#000000;stroke-width:0.99175;stroke-linecap:butt;stroke-linejoin:miter;stroke-miterlimit:4;stroke-dasharray:none;stroke-opacity:1"
           id="path2569"
           inkscape:connector-curvature="0" /></g><text
         transform="matrix(1,0,0,-1,198.65108,5.597369)"
         style="font-style:italic;font-variant:normal;font-size:11.01876736px;font-family:TeXGyreTermes;-inkscape-font-specification:TeXGyreTermes-Italic;writing-mode:lr-tb;fill:#000000;fill-opacity:1;fill-rule:nonzero;stroke:none"
         id="text2573"><tspan
           x="0"
           y="0"
           id="tspan2571">E</tspan></text>
<text
         transform="matrix(1,0,0,-1,205.38716,3.393615)"
         style="font-variant:normal;font-weight:normal;font-size:7.16219902px;font-family:TeXGyreTermes;-inkscape-font-specification:TeXGyreTermes-Regular;writing-mode:lr-tb;fill:#000000;fill-opacity:1;fill-rule:nonzero;stroke:none"
         id="text2577"><tspan
           x="0"
           y="0"
           id="tspan2575">L</tspan></text>
<text
         transform="matrix(1,0,0,-1,209.76562,5.597369)"
         style="font-style:italic;font-variant:normal;font-size:11.01876736px;font-family:TeXGyreTermes;-inkscape-font-specification:TeXGyreTermes-Italic;writing-mode:lr-tb;fill:#000000;fill-opacity:1;fill-rule:nonzero;stroke:none"
         id="text2581"><tspan
           x="0 2.7546918 5.5093837"
           y="0"
           sodipodi:role="line"
           id="tspan2579">, g</tspan></text>
<text
         transform="matrix(1,0,0,-1,220.78438,3.393615)"
         style="font-variant:normal;font-weight:normal;font-size:7.16219902px;font-family:TeXGyreTermes;-inkscape-font-specification:TeXGyreTermes-Regular;writing-mode:lr-tb;fill:#000000;fill-opacity:1;fill-rule:nonzero;stroke:none"
         id="text2585"><tspan
           x="0"
           y="0"
           id="tspan2583">L</tspan></text>
<g
         id="g2587"
         transform="matrix(1,0,0,-1,0,149.71278)"><path
           d="m 200.324,83.016 c 0,3.859 -3.129,6.984 -6.984,6.984 -3.86,0 -6.988,-3.125 -6.988,-6.984 0,-3.86 3.128,-6.985 6.988,-6.985 3.855,0 6.984,3.125 6.984,6.985 z"
           style="fill:#ffffff;fill-opacity:1;fill-rule:nonzero;stroke:#000000;stroke-width:0.776142;stroke-linecap:butt;stroke-linejoin:miter;stroke-miterlimit:4;stroke-dasharray:none;stroke-opacity:1"
           id="path2589"
           inkscape:connector-curvature="0" /></g><g
         id="g2591"
         transform="matrix(1,-0.142048,-0.142048,-1,0,149.71278)"><path
           d="m 82.188,74.415 c 0,1.293 -1.05,2.345 -2.343,2.345 -1.297,-0.003 -2.344,-1.05 -2.345,-2.347 0,-1.293 1.05,-2.344 2.343,-2.344 1.296,-0.001 2.344,1.049 2.345,2.346 z"
           style="fill:#000000;fill-opacity:1;fill-rule:nonzero;stroke:#000000;stroke-width:0.99175;stroke-linecap:butt;stroke-linejoin:miter;stroke-miterlimit:4;stroke-dasharray:none;stroke-opacity:1"
           id="path2593"
           inkscape:connector-curvature="0" /></g><g
         id="g2595"
         transform="matrix(1,-0.142048,-0.142048,-1,0,149.71278)"><path
           d="m 144.436,51.108 c 0,1.293 -1.05,2.345 -2.343,2.345 -1.297,0 -2.345,-1.05 -2.345,-2.347 0,-1.293 1.05,-2.344 2.343,-2.344 1.297,0.003 2.344,1.049 2.345,2.346 z"
           style="fill:#000000;fill-opacity:1;fill-rule:nonzero;stroke:#000000;stroke-width:0.99175;stroke-linecap:butt;stroke-linejoin:miter;stroke-miterlimit:4;stroke-dasharray:none;stroke-opacity:1"
           id="path2597"
           inkscape:connector-curvature="0" /></g><text
         transform="matrix(1,0,0,-1,87.176004,52.966119)"
         style="font-style:italic;font-variant:normal;font-size:11.01876831px;font-family:TeXGyreTermes;-inkscape-font-specification:TeXGyreTermes-Italic;writing-mode:lr-tb;fill:#000000;fill-opacity:1;fill-rule:nonzero;stroke:none"
         id="text2601"><tspan
           x="0"
           y="0"
           id="tspan2599">C</tspan></text>
<text
         transform="matrix(1,0,0,-1,94.536196,50.762366)"
         style="font-variant:normal;font-weight:normal;font-size:7.16219902px;font-family:TeXGyreTermes;-inkscape-font-specification:TeXGyreTermes-Regular;writing-mode:lr-tb;fill:#000000;fill-opacity:1;fill-rule:nonzero;stroke:none"
         id="text2605"><tspan
           x="0"
           y="0"
           id="tspan2603">m</tspan></text>
<text
         transform="matrix(1,0,0,-1,144.94411,52.966119)"
         style="font-style:italic;font-variant:normal;font-size:11.01876831px;font-family:TeXGyreTermes;-inkscape-font-specification:TeXGyreTermes-Italic;writing-mode:lr-tb;fill:#000000;fill-opacity:1;fill-rule:nonzero;stroke:none"
         id="text2609"><tspan
           x="0"
           y="0"
           id="tspan2607">C</tspan></text>
<text
         transform="matrix(1,0,0,-1,152.3043,50.762366)"
         style="font-variant:normal;font-weight:normal;font-size:7.16219902px;font-family:TeXGyreTermes;-inkscape-font-specification:TeXGyreTermes-Regular;writing-mode:lr-tb;fill:#000000;fill-opacity:1;fill-rule:nonzero;stroke:none"
         id="text2613"><tspan
           x="0"
           y="0"
           id="tspan2611">m</tspan></text>
<text
         transform="matrix(1,0,0,-1,200.06057,52.966119)"
         style="font-style:italic;font-variant:normal;font-size:11.01876831px;font-family:TeXGyreTermes;-inkscape-font-specification:TeXGyreTermes-Italic;writing-mode:lr-tb;fill:#000000;fill-opacity:1;fill-rule:nonzero;stroke:none"
         id="text2617"><tspan
           x="0"
           y="0"
           id="tspan2615">C</tspan></text>
<text
         transform="matrix(1,0,0,-1,207.42076,50.762366)"
         style="font-variant:normal;font-weight:normal;font-size:7.16219902px;font-family:TeXGyreTermes;-inkscape-font-specification:TeXGyreTermes-Regular;writing-mode:lr-tb;fill:#000000;fill-opacity:1;fill-rule:nonzero;stroke:none"
         id="text2621"><tspan
           x="0"
           y="0"
           id="tspan2619">m</tspan></text>
</g></g></svg>