<?xml version="1.0" encoding="UTF-8" standalone="no"?>
<!-- Created with Inkscape (http://www.inkscape.org/) -->

<svg
   xmlns:dc="http://purl.org/dc/elements/1.1/"
   xmlns:cc="http://creativecommons.org/ns#"
   xmlns:rdf="http://www.w3.org/1999/02/22-rdf-syntax-ns#"
   xmlns:svg="http://www.w3.org/2000/svg"
   xmlns="http://www.w3.org/2000/svg"
   xmlns:sodipodi="http://sodipodi.sourceforge.net/DTD/sodipodi-0.dtd"
   xmlns:inkscape="http://www.inkscape.org/namespaces/inkscape"
   version="1.1"
   id="svg2"
   xml:space="preserve"
   width="561.06665"
   height="225.69167"
   viewBox="0 0 561.06665 225.69167"
   sodipodi:docname="tuning_curves_currents.svg"
   inkscape:version="0.92.2 2405546, 2018-03-11"><metadata
     id="metadata8"><rdf:RDF><cc:Work
         rdf:about=""><dc:format>image/svg+xml</dc:format><dc:type
           rdf:resource="http://purl.org/dc/dcmitype/StillImage" /><dc:title></dc:title></cc:Work></rdf:RDF></metadata><defs
     id="defs6"><clipPath
       clipPathUnits="userSpaceOnUse"
       id="clipPath28"><path
         d="M -1021,-463 H 1794 V 1233 H -1021 Z"
         id="path26"
         inkscape:connector-curvature="0" /></clipPath><clipPath
       clipPathUnits="userSpaceOnUse"
       id="clipPath48"><path
         d="M -1021,-463 H 1794 V 1233 H -1021 Z"
         id="path46"
         inkscape:connector-curvature="0" /></clipPath><clipPath
       clipPathUnits="userSpaceOnUse"
       id="clipPath126"><path
         d="M 34.559375,37.54375 H 190.73437 v 109.4 H 34.559375 Z"
         id="path124"
         inkscape:connector-curvature="0" /></clipPath><clipPath
       clipPathUnits="userSpaceOnUse"
       id="clipPath136"><path
         d="M 34.559375,37.54375 H 190.73437 v 109.4 H 34.559375 Z"
         id="path134"
         inkscape:connector-curvature="0" /></clipPath><clipPath
       clipPathUnits="userSpaceOnUse"
       id="clipPath146"><path
         d="M 34.559375,37.54375 H 190.73437 v 109.4 H 34.559375 Z"
         id="path144"
         inkscape:connector-curvature="0" /></clipPath><clipPath
       clipPathUnits="userSpaceOnUse"
       id="clipPath156"><path
         d="M 34.559375,37.54375 H 190.73437 v 109.4 H 34.559375 Z"
         id="path154"
         inkscape:connector-curvature="0" /></clipPath><clipPath
       clipPathUnits="userSpaceOnUse"
       id="clipPath166"><path
         d="M 34.559375,37.54375 H 190.73437 v 109.4 H 34.559375 Z"
         id="path164"
         inkscape:connector-curvature="0" /></clipPath><clipPath
       clipPathUnits="userSpaceOnUse"
       id="clipPath176"><path
         d="M 34.559375,37.54375 H 190.73437 v 109.4 H 34.559375 Z"
         id="path174"
         inkscape:connector-curvature="0" /></clipPath><clipPath
       clipPathUnits="userSpaceOnUse"
       id="clipPath186"><path
         d="M 34.559375,37.54375 H 190.73437 v 109.4 H 34.559375 Z"
         id="path184"
         inkscape:connector-curvature="0" /></clipPath><clipPath
       clipPathUnits="userSpaceOnUse"
       id="clipPath196"><path
         d="M 34.559375,37.54375 H 190.73437 v 109.4 H 34.559375 Z"
         id="path194"
         inkscape:connector-curvature="0" /></clipPath><clipPath
       clipPathUnits="userSpaceOnUse"
       id="clipPath206"><path
         d="M 34.559375,37.54375 H 190.73437 v 109.4 H 34.559375 Z"
         id="path204"
         inkscape:connector-curvature="0" /></clipPath><clipPath
       clipPathUnits="userSpaceOnUse"
       id="clipPath216"><path
         d="M 34.559375,37.54375 H 190.73437 v 109.4 H 34.559375 Z"
         id="path214"
         inkscape:connector-curvature="0" /></clipPath><clipPath
       clipPathUnits="userSpaceOnUse"
       id="clipPath226"><path
         d="M 34.559375,37.54375 H 190.73437 v 109.4 H 34.559375 Z"
         id="path224"
         inkscape:connector-curvature="0" /></clipPath><clipPath
       clipPathUnits="userSpaceOnUse"
       id="clipPath236"><path
         d="M 34.559375,37.54375 H 190.73437 v 109.4 H 34.559375 Z"
         id="path234"
         inkscape:connector-curvature="0" /></clipPath><clipPath
       clipPathUnits="userSpaceOnUse"
       id="clipPath246"><path
         d="M 34.559375,37.54375 H 190.73437 v 109.4 H 34.559375 Z"
         id="path244"
         inkscape:connector-curvature="0" /></clipPath><clipPath
       clipPathUnits="userSpaceOnUse"
       id="clipPath256"><path
         d="M 34.559375,37.54375 H 190.73437 v 109.4 H 34.559375 Z"
         id="path254"
         inkscape:connector-curvature="0" /></clipPath><clipPath
       clipPathUnits="userSpaceOnUse"
       id="clipPath266"><path
         d="M 34.559375,37.54375 H 190.73437 v 109.4 H 34.559375 Z"
         id="path264"
         inkscape:connector-curvature="0" /></clipPath><clipPath
       clipPathUnits="userSpaceOnUse"
       id="clipPath276"><path
         d="M 34.559375,37.54375 H 190.73437 v 109.4 H 34.559375 Z"
         id="path274"
         inkscape:connector-curvature="0" /></clipPath><clipPath
       clipPathUnits="userSpaceOnUse"
       id="clipPath286"><path
         d="M 34.559375,37.54375 H 190.73437 v 109.4 H 34.559375 Z"
         id="path284"
         inkscape:connector-curvature="0" /></clipPath><clipPath
       clipPathUnits="userSpaceOnUse"
       id="clipPath296"><path
         d="M 34.559375,37.54375 H 190.73437 v 109.4 H 34.559375 Z"
         id="path294"
         inkscape:connector-curvature="0" /></clipPath><clipPath
       clipPathUnits="userSpaceOnUse"
       id="clipPath306"><path
         d="M 34.559375,37.54375 H 190.73437 v 109.4 H 34.559375 Z"
         id="path304"
         inkscape:connector-curvature="0" /></clipPath><clipPath
       clipPathUnits="userSpaceOnUse"
       id="clipPath316"><path
         d="M 34.559375,37.54375 H 190.73437 v 109.4 H 34.559375 Z"
         id="path314"
         inkscape:connector-curvature="0" /></clipPath><clipPath
       clipPathUnits="userSpaceOnUse"
       id="clipPath350"><path
         d="M -1021,-463 H 1794 V 1233 H -1021 Z"
         id="path348"
         inkscape:connector-curvature="0" /></clipPath><clipPath
       clipPathUnits="userSpaceOnUse"
       id="clipPath370"><path
         d="M -1021,-463 H 1794 V 1233 H -1021 Z"
         id="path368"
         inkscape:connector-curvature="0" /></clipPath><clipPath
       clipPathUnits="userSpaceOnUse"
       id="clipPath442"><path
         d="m 249.47187,37.54375 h 156.175 v 109.4 h -156.175 z"
         id="path440"
         inkscape:connector-curvature="0" /></clipPath><clipPath
       clipPathUnits="userSpaceOnUse"
       id="clipPath452"><path
         d="m 249.47187,37.54375 h 156.175 v 109.4 h -156.175 z"
         id="path450"
         inkscape:connector-curvature="0" /></clipPath><clipPath
       clipPathUnits="userSpaceOnUse"
       id="clipPath462"><path
         d="m 249.47187,37.54375 h 156.175 v 109.4 h -156.175 z"
         id="path460"
         inkscape:connector-curvature="0" /></clipPath><clipPath
       clipPathUnits="userSpaceOnUse"
       id="clipPath472"><path
         d="m 249.47187,37.54375 h 156.175 v 109.4 h -156.175 z"
         id="path470"
         inkscape:connector-curvature="0" /></clipPath><clipPath
       clipPathUnits="userSpaceOnUse"
       id="clipPath482"><path
         d="m 249.47187,37.54375 h 156.175 v 109.4 h -156.175 z"
         id="path480"
         inkscape:connector-curvature="0" /></clipPath><clipPath
       clipPathUnits="userSpaceOnUse"
       id="clipPath492"><path
         d="m 249.47187,37.54375 h 156.175 v 109.4 h -156.175 z"
         id="path490"
         inkscape:connector-curvature="0" /></clipPath><clipPath
       clipPathUnits="userSpaceOnUse"
       id="clipPath502"><path
         d="m 249.47187,37.54375 h 156.175 v 109.4 h -156.175 z"
         id="path500"
         inkscape:connector-curvature="0" /></clipPath><clipPath
       clipPathUnits="userSpaceOnUse"
       id="clipPath512"><path
         d="m 249.47187,37.54375 h 156.175 v 109.4 h -156.175 z"
         id="path510"
         inkscape:connector-curvature="0" /></clipPath><clipPath
       clipPathUnits="userSpaceOnUse"
       id="clipPath522"><path
         d="m 249.47187,37.54375 h 156.175 v 109.4 h -156.175 z"
         id="path520"
         inkscape:connector-curvature="0" /></clipPath><clipPath
       clipPathUnits="userSpaceOnUse"
       id="clipPath532"><path
         d="m 249.47187,37.54375 h 156.175 v 109.4 h -156.175 z"
         id="path530"
         inkscape:connector-curvature="0" /></clipPath><clipPath
       clipPathUnits="userSpaceOnUse"
       id="clipPath542"><path
         d="m 249.47187,37.54375 h 156.175 v 109.4 h -156.175 z"
         id="path540"
         inkscape:connector-curvature="0" /></clipPath><clipPath
       clipPathUnits="userSpaceOnUse"
       id="clipPath552"><path
         d="m 249.47187,37.54375 h 156.175 v 109.4 h -156.175 z"
         id="path550"
         inkscape:connector-curvature="0" /></clipPath><clipPath
       clipPathUnits="userSpaceOnUse"
       id="clipPath562"><path
         d="m 249.47187,37.54375 h 156.175 v 109.4 h -156.175 z"
         id="path560"
         inkscape:connector-curvature="0" /></clipPath><clipPath
       clipPathUnits="userSpaceOnUse"
       id="clipPath572"><path
         d="m 249.47187,37.54375 h 156.175 v 109.4 h -156.175 z"
         id="path570"
         inkscape:connector-curvature="0" /></clipPath><clipPath
       clipPathUnits="userSpaceOnUse"
       id="clipPath582"><path
         d="m 249.47187,37.54375 h 156.175 v 109.4 h -156.175 z"
         id="path580"
         inkscape:connector-curvature="0" /></clipPath><clipPath
       clipPathUnits="userSpaceOnUse"
       id="clipPath592"><path
         d="m 249.47187,37.54375 h 156.175 v 109.4 h -156.175 z"
         id="path590"
         inkscape:connector-curvature="0" /></clipPath><clipPath
       clipPathUnits="userSpaceOnUse"
       id="clipPath602"><path
         d="m 249.47187,37.54375 h 156.175 v 109.4 h -156.175 z"
         id="path600"
         inkscape:connector-curvature="0" /></clipPath><clipPath
       clipPathUnits="userSpaceOnUse"
       id="clipPath612"><path
         d="m 249.47187,37.54375 h 156.175 v 109.4 h -156.175 z"
         id="path610"
         inkscape:connector-curvature="0" /></clipPath><clipPath
       clipPathUnits="userSpaceOnUse"
       id="clipPath622"><path
         d="m 249.47187,37.54375 h 156.175 v 109.4 h -156.175 z"
         id="path620"
         inkscape:connector-curvature="0" /></clipPath><clipPath
       clipPathUnits="userSpaceOnUse"
       id="clipPath632"><path
         d="m 249.47187,37.54375 h 156.175 v 109.4 h -156.175 z"
         id="path630"
         inkscape:connector-curvature="0" /></clipPath></defs><sodipodi:namedview
     pagecolor="#ffffff"
     bordercolor="#666666"
     borderopacity="1"
     objecttolerance="10"
     gridtolerance="10"
     guidetolerance="10"
     inkscape:pageopacity="0"
     inkscape:pageshadow="2"
     inkscape:window-width="1920"
     inkscape:window-height="1016"
     id="namedview4"
     showgrid="false"
     inkscape:zoom="1.9660527"
     inkscape:cx="293.96845"
     inkscape:cy="128.15835"
     inkscape:window-x="0"
     inkscape:window-y="27"
     inkscape:window-maximized="1"
     inkscape:current-layer="g10" /><g
     id="g10"
     inkscape:groupmode="layer"
     inkscape:label="tuning_curves_currents"
     transform="matrix(1.3333333,0,0,-1.3333333,0,225.69167)"><path
       d="m 34.559375,37.54375 v -3.5"
       style="fill:#000000;fill-opacity:1;fill-rule:nonzero;stroke:#000000;stroke-width:0.80000001;stroke-linecap:butt;stroke-linejoin:round;stroke-miterlimit:10;stroke-dasharray:none;stroke-opacity:1"
       id="path12"
       inkscape:connector-curvature="0" /><g
       id="g14"
       transform="translate(22.41875,22.95)"><text
         transform="matrix(1,0,0,-1,8.3789063,0)"
         style="font-variant:normal;font-weight:normal;font-size:10px;font-family:Junicode;-inkscape-font-specification:Junicode;writing-mode:lr-tb;fill:#000000;fill-opacity:1;fill-rule:nonzero;stroke:none;font-style:normal;font-stretch:normal;"
         id="text18"><tspan
           x="0"
           y="0"
           sodipodi:role="line"
           id="tspan16">1.0</tspan></text>
<g
         id="g20"
         transform="scale(0.01)"><g
           id="g22"><g
             id="g24"
             clip-path="url(#clipPath28)"><path
               d="M 106,355 H 732 V 272 H 106 v 83"
               style="fill:#000000;fill-opacity:1;fill-rule:nonzero;stroke:none"
               id="path30"
               inkscape:connector-curvature="0" /></g></g></g></g><path
       d="m 73.603125,37.54375 v -3.5"
       style="fill:#000000;fill-opacity:1;fill-rule:nonzero;stroke:#000000;stroke-width:0.80000001;stroke-linecap:butt;stroke-linejoin:round;stroke-miterlimit:10;stroke-dasharray:none;stroke-opacity:1"
       id="path32"
       inkscape:connector-curvature="0" /><g
       id="g34"
       transform="translate(61.4625,22.95)"><text
         transform="matrix(1,0,0,-1,8.3789063,0)"
         style="font-variant:normal;font-weight:normal;font-size:10px;font-family:Junicode;-inkscape-font-specification:Junicode;writing-mode:lr-tb;fill:#000000;fill-opacity:1;fill-rule:nonzero;stroke:none;font-style:normal;font-stretch:normal;"
         id="text38"><tspan
           x="0"
           y="0"
           sodipodi:role="line"
           id="tspan36">0.5</tspan></text>
<g
         id="g40"
         transform="scale(0.01)"><g
           id="g42"><g
             id="g44"
             clip-path="url(#clipPath48)"><path
               d="M 106,355 H 732 V 272 H 106 v 83"
               style="fill:#000000;fill-opacity:1;fill-rule:nonzero;stroke:none"
               id="path50"
               inkscape:connector-curvature="0" /></g></g></g></g><path
       d="m 112.64687,37.54375 v -3.5"
       style="fill:#000000;fill-opacity:1;fill-rule:nonzero;stroke:#000000;stroke-width:0.80000001;stroke-linecap:butt;stroke-linejoin:round;stroke-miterlimit:10;stroke-dasharray:none;stroke-opacity:1"
       id="path52"
       inkscape:connector-curvature="0" /><text
       transform="matrix(1,0,0,-1,104.69375,22.95)"
       style="font-variant:normal;font-weight:normal;font-size:10px;font-family:Junicode;-inkscape-font-specification:Junicode;writing-mode:lr-tb;fill:#000000;fill-opacity:1;fill-rule:nonzero;stroke:none;font-style:normal;font-stretch:normal;"
       id="text56"><tspan
         x="0"
         y="0"
         sodipodi:role="line"
         id="tspan54">0.0</tspan></text>
<path
       d="m 151.69062,37.54375 v -3.5"
       style="fill:#000000;fill-opacity:1;fill-rule:nonzero;stroke:#000000;stroke-width:0.80000001;stroke-linecap:butt;stroke-linejoin:round;stroke-miterlimit:10;stroke-dasharray:none;stroke-opacity:1"
       id="path58"
       inkscape:connector-curvature="0" /><text
       transform="matrix(1,0,0,-1,143.7375,22.95)"
       style="font-variant:normal;font-weight:normal;font-size:10px;font-family:Junicode;-inkscape-font-specification:Junicode;writing-mode:lr-tb;fill:#000000;fill-opacity:1;fill-rule:nonzero;stroke:none;font-style:normal;font-stretch:normal;"
       id="text62"><tspan
         x="0"
         y="0"
         sodipodi:role="line"
         id="tspan60">0.5</tspan></text>
<path
       d="m 190.73437,37.54375 v -3.5"
       style="fill:#000000;fill-opacity:1;fill-rule:nonzero;stroke:#000000;stroke-width:0.80000001;stroke-linecap:butt;stroke-linejoin:round;stroke-miterlimit:10;stroke-dasharray:none;stroke-opacity:1"
       id="path64"
       inkscape:connector-curvature="0" /><text
       transform="matrix(1,0,0,-1,182.78125,22.95)"
       style="font-variant:normal;font-weight:normal;font-size:10px;font-family:Junicode;-inkscape-font-specification:Junicode;writing-mode:lr-tb;fill:#000000;fill-opacity:1;fill-rule:nonzero;stroke:none;font-style:normal;font-stretch:normal;"
       id="text68"><tspan
         x="0"
         y="0"
         sodipodi:role="line"
         id="tspan66">1.0</tspan></text>
<g
       id="g70"
       transform="translate(97.751471,9.278125)"><g
         id="g654"><text
           id="text74"
           style="font-style:normal;font-variant:normal;font-weight:normal;font-stretch:normal;font-size:10px;font-family:Junicode;-inkscape-font-specification:Junicode;writing-mode:lr-tb;fill:#000000;fill-opacity:1;fill-rule:nonzero;stroke:none"
           transform="matrix(1,0,0,-1,0,0.40625)"><tspan
             id="tspan72"
             sodipodi:role="line"
             y="0"
             x="0">Value </tspan></text>
<text
           y="-0.40625"
           x="24.942169"
           id="text78"
           style="font-style:italic;font-variant:normal;font-weight:normal;font-stretch:normal;font-size:10px;font-family:Junicode;-inkscape-font-specification:'Junicode Italic';writing-mode:lr-tb;fill:#000000;fill-opacity:1;fill-rule:nonzero;stroke:none"
           transform="scale(1,-1)"><tspan
             style="font-style:italic;font-variant:normal;font-weight:normal;font-stretch:normal;font-family:Junicode;-inkscape-font-specification:'Junicode Italic'"
             id="tspan76"
             y="-0.40625"
             x="24.942169">x</tspan></text>
</g></g><path
       d="m 34.559375,37.54375 h -3.5"
       style="fill:#000000;fill-opacity:1;fill-rule:nonzero;stroke:#000000;stroke-width:0.80000001;stroke-linecap:butt;stroke-linejoin:round;stroke-miterlimit:10;stroke-dasharray:none;stroke-opacity:1"
       id="path80"
       inkscape:connector-curvature="0" /><text
       transform="matrix(1,0,0,-1,21.2,33.746875)"
       style="font-variant:normal;font-weight:normal;font-size:10px;font-family:Junicode;-inkscape-font-specification:Junicode;writing-mode:lr-tb;fill:#000000;fill-opacity:1;fill-rule:nonzero;stroke:none;font-style:normal;font-stretch:normal;"
       id="text84"><tspan
         x="0"
         y="0"
         id="tspan82"
         style="-inkscape-font-specification:Junicode;font-family:Junicode;font-weight:normal;font-style:normal;font-stretch:normal;font-variant:normal;">0</tspan></text>
<path
       d="m 34.559375,64.89375 h -3.5"
       style="fill:#000000;fill-opacity:1;fill-rule:nonzero;stroke:#000000;stroke-width:0.80000001;stroke-linecap:butt;stroke-linejoin:round;stroke-miterlimit:10;stroke-dasharray:none;stroke-opacity:1"
       id="path86"
       inkscape:connector-curvature="0" /><text
       transform="matrix(1,0,0,-1,21.2,61.096875)"
       style="font-variant:normal;font-weight:normal;font-size:10px;font-family:Junicode;-inkscape-font-specification:Junicode;writing-mode:lr-tb;fill:#000000;fill-opacity:1;fill-rule:nonzero;stroke:none;font-style:normal;font-stretch:normal;"
       id="text90"><tspan
         x="0"
         y="0"
         id="tspan88"
         style="-inkscape-font-specification:Junicode;font-family:Junicode;font-weight:normal;font-style:normal;font-stretch:normal;font-variant:normal;">2</tspan></text>
<path
       d="m 34.559375,92.24375 h -3.5"
       style="fill:#000000;fill-opacity:1;fill-rule:nonzero;stroke:#000000;stroke-width:0.80000001;stroke-linecap:butt;stroke-linejoin:round;stroke-miterlimit:10;stroke-dasharray:none;stroke-opacity:1"
       id="path92"
       inkscape:connector-curvature="0" /><text
       transform="matrix(1,0,0,-1,21.2,88.446875)"
       style="font-variant:normal;font-weight:normal;font-size:10px;font-family:Junicode;-inkscape-font-specification:Junicode;writing-mode:lr-tb;fill:#000000;fill-opacity:1;fill-rule:nonzero;stroke:none;font-style:normal;font-stretch:normal;"
       id="text96"><tspan
         x="0"
         y="0"
         id="tspan94"
         style="-inkscape-font-specification:Junicode;font-family:Junicode;font-weight:normal;font-style:normal;font-stretch:normal;font-variant:normal;">4</tspan></text>
<path
       d="m 34.559375,119.59375 h -3.5"
       style="fill:#000000;fill-opacity:1;fill-rule:nonzero;stroke:#000000;stroke-width:0.80000001;stroke-linecap:butt;stroke-linejoin:round;stroke-miterlimit:10;stroke-dasharray:none;stroke-opacity:1"
       id="path98"
       inkscape:connector-curvature="0" /><text
       transform="matrix(1,0,0,-1,21.2,115.79688)"
       style="font-variant:normal;font-weight:normal;font-size:10px;font-family:Junicode;-inkscape-font-specification:Junicode;writing-mode:lr-tb;fill:#000000;fill-opacity:1;fill-rule:nonzero;stroke:none;font-style:normal;font-stretch:normal;"
       id="text102"><tspan
         x="0"
         y="0"
         id="tspan100"
         style="-inkscape-font-specification:Junicode;font-family:Junicode;font-weight:normal;font-style:normal;font-stretch:normal;font-variant:normal;">6</tspan></text>
<path
       d="m 34.559375,146.94375 h -3.5"
       style="fill:#000000;fill-opacity:1;fill-rule:nonzero;stroke:#000000;stroke-width:0.80000001;stroke-linecap:butt;stroke-linejoin:round;stroke-miterlimit:10;stroke-dasharray:none;stroke-opacity:1"
       id="path104"
       inkscape:connector-curvature="0" /><text
       transform="matrix(1,0,0,-1,21.2,143.14687)"
       style="font-variant:normal;font-weight:normal;font-size:10px;font-family:Junicode;-inkscape-font-specification:Junicode;writing-mode:lr-tb;fill:#000000;fill-opacity:1;fill-rule:nonzero;stroke:none;font-style:normal;font-stretch:normal;"
       id="text108"><tspan
         x="0"
         y="0"
         id="tspan106"
         style="-inkscape-font-specification:Junicode;font-family:Junicode;font-weight:normal;font-style:normal;font-stretch:normal;font-variant:normal;">8</tspan></text>
<g
       id="g110"
       transform="rotate(90,-19.71686,34.838734)"><text
         transform="matrix(1,0,0,-1,0,0.40625)"
         style="font-style:normal;font-variant:normal;font-weight:normal;font-stretch:normal;font-size:10px;font-family:Junicode;-inkscape-font-specification:Junicode;writing-mode:lr-tb;fill:#000000;fill-opacity:1;fill-rule:nonzero;stroke:none"
         id="text114"><tspan
           x="0"
           y="0"
           sodipodi:role="line"
           id="tspan112">Somatic current </tspan></text>
<text
         transform="scale(1,-1)"
         style="font-style:italic;font-variant:normal;font-weight:normal;font-stretch:normal;font-size:10px;font-family:Junicode;-inkscape-font-specification:'Junicode Italic';writing-mode:lr-tb;fill:#000000;fill-opacity:1;fill-rule:nonzero;stroke:none"
         id="text118"
         x="70.141937"
         y="-0.40625"><tspan
           x="70.141937"
           y="-0.40625"
           id="tspan116"
           style="font-style:italic;font-variant:normal;font-weight:normal;font-stretch:normal;font-family:Junicode;-inkscape-font-specification:'Junicode Italic'">J</tspan></text>
</g><g
       id="g120"><g
         id="g122"
         clip-path="url(#clipPath126)"><path
           d="m 145.91795,-1 0.64572,1.799309 1.57752,4.395786 1.57753,4.395785 1.57752,4.395785 1.57753,4.395785 1.57752,4.395786 1.57753,4.395785 1.57752,4.395785 1.57753,4.395786 1.57752,4.395785 1.57753,4.395785 1.57753,4.395785 1.57752,4.395786 1.57753,4.395785 1.57752,4.395785 1.57753,4.395786 1.57752,4.395785 1.57753,4.395785 1.57752,4.395785 1.57753,4.395786 1.57752,4.395785 1.57753,4.395785 1.57752,4.395785 1.57753,4.395785 1.57752,4.39579 1.57753,4.39578 1.57752,4.39579 1.57753,4.39578 1.57752,4.39579"
           style="fill:none;stroke:#1f77b4;stroke-width:1.5;stroke-linecap:square;stroke-linejoin:round;stroke-miterlimit:10;stroke-dasharray:none;stroke-opacity:1"
           id="path128"
           inkscape:connector-curvature="0" /></g></g><g
       id="g130"><g
         id="g132"
         clip-path="url(#clipPath136)"><path
           d="m 51.542525,-1 0.369628,0.343757 1.577525,1.467111 1.577525,1.467112 1.577526,1.467112 1.577525,1.467112 1.577525,1.467112 1.577525,1.467111 1.577526,1.467112 1.577525,1.467112 1.577525,1.467112 1.577525,1.467111 1.577526,1.467112 1.577525,1.467112 1.577525,1.467112 1.577525,1.467112 1.577526,1.467111 1.577525,1.467112 1.577525,1.467112 1.577525,1.467112 1.577526,1.467111 1.577525,1.467112 1.577525,1.467112 1.577525,1.467112 1.577526,1.467111 1.577525,1.467112 1.577525,1.467112 1.577525,1.467112 1.577526,1.467112 1.577525,1.467111 1.577525,1.467112 1.577525,1.467112 1.57753,1.467112 1.57752,1.467111 1.57753,1.467112 1.57752,1.467112 1.57753,1.467112 1.57752,1.467112 1.57753,1.467111 1.57752,1.467112 1.57753,1.467112 1.57752,1.467112 1.57753,1.467111 1.57752,1.467112 1.57753,1.467112 1.57752,1.467112 1.57753,1.467111 1.57752,1.467112 1.57753,1.467112 1.57752,1.467112 1.57753,1.467112 1.57753,1.467111 1.57752,1.467112 1.57753,1.467112 1.57752,1.467112 1.57753,1.467111 1.57752,1.467112 1.57753,1.467112 1.57752,1.467112 1.57753,1.467112 1.57752,1.467111 1.57753,1.467112 1.57752,1.467112 1.57753,1.467112 1.57752,1.467111 1.57753,1.467112 1.57752,1.467112 1.57753,1.467112 1.57752,1.467112 1.57753,1.467111 1.57752,1.467113 1.57753,1.46711 1.57753,1.46711 1.57752,1.46711 1.57753,1.46712 1.57752,1.46711 1.57753,1.46711 1.57752,1.46711 1.57753,1.46711 1.57752,1.46711 1.57753,1.46712 1.57752,1.46711 1.57753,1.46711 1.57752,1.46711 1.57753,1.46711 1.57752,1.46712 1.57753,1.46711 1.57752,1.46711 1.57753,1.46711 1.57752,1.46711"
           style="fill:none;stroke:#ff7f0e;stroke-width:1.5;stroke-linecap:square;stroke-linejoin:round;stroke-miterlimit:10;stroke-dasharray:none;stroke-opacity:1"
           id="path138"
           inkscape:connector-curvature="0" /></g></g><g
       id="g140"><g
         id="g142"
         clip-path="url(#clipPath146)"><path
           d="m 34.559375,79.696066 1.577525,-1.622406 1.577526,-1.622406 1.577525,-1.622405 1.577525,-1.622406 1.577525,-1.622406 1.577526,-1.622405 1.577525,-1.622406 1.577525,-1.622406 1.577525,-1.622405 1.577526,-1.622406 1.577525,-1.622406 1.577525,-1.622405 1.577525,-1.622406 1.577526,-1.622406 1.577525,-1.622405 1.577525,-1.622406 1.577525,-1.622406 1.577526,-1.622405 1.577525,-1.622406 1.577525,-1.622406 1.577525,-1.622406 1.577526,-1.622405 1.577525,-1.622406 1.577525,-1.622406 1.577525,-1.622405 1.577526,-1.622406 1.577525,-1.622406 1.577525,-1.622405 1.577525,-1.622406 1.577526,-1.622406 1.577525,-1.622405 1.577525,-1.622406 1.577525,-1.622406 1.577526,-1.622405 1.577525,-1.622406 1.577525,-1.622406 1.577525,-1.622405 1.577526,-1.622406 1.577525,-1.622406 1.577525,-1.622405 1.577525,-1.622406 1.57753,-1.622406 1.57752,-1.622405 1.57753,-1.622406 1.57752,-1.622406 1.57753,-1.622406 1.57752,-1.622405 1.57753,-1.622406 1.57752,-1.622406 L 113.02315,-1"
           style="fill:none;stroke:#2ca02c;stroke-width:1.5;stroke-linecap:square;stroke-linejoin:round;stroke-miterlimit:10;stroke-dasharray:none;stroke-opacity:1"
           id="path148"
           inkscape:connector-curvature="0" /></g></g><g
       id="g150"><g
         id="g152"
         clip-path="url(#clipPath156)"><path
           d="m 34.559375,116.43504 1.577525,-4.27745 1.577526,-4.27745 1.577525,-4.27745 1.577525,-4.277452 1.577525,-4.277451 1.577526,-4.277452 1.577525,-4.277451 1.577525,-4.277451 1.577525,-4.277451 1.577526,-4.277451 1.577525,-4.277452 1.577525,-4.277451 1.577525,-4.277451 1.577526,-4.277451 1.577525,-4.277451 1.577525,-4.277451 1.577525,-4.277452 1.577526,-4.277451 1.577525,-4.277451 1.577525,-4.277451 1.577525,-4.277451 1.577526,-4.277451 1.577525,-4.277452 1.577525,-4.277451 L 73.997506,9.498763 75.575032,5.221312 77.152557,0.943861 77.869453,-1"
           style="fill:none;stroke:#d62728;stroke-width:1.5;stroke-linecap:square;stroke-linejoin:round;stroke-miterlimit:10;stroke-dasharray:none;stroke-opacity:1"
           id="path158"
           inkscape:connector-curvature="0" /></g></g><g
       id="g160"><g
         id="g162"
         clip-path="url(#clipPath166)"><path
           d="m 34.559375,32.814741 1.577525,0.971282 1.577526,0.971281 1.577525,0.971282 1.577525,0.971282 1.577525,0.971282 1.577526,0.971282 1.577525,0.971282 1.577525,0.971281 1.577525,0.971282 1.577526,0.971282 1.577525,0.971282 1.577525,0.971282 1.577525,0.971282 1.577526,0.971281 1.577525,0.971282 1.577525,0.971282 1.577525,0.971282 1.577526,0.971282 1.577525,0.971282 1.577525,0.971282 1.577525,0.971281 1.577526,0.971282 1.577525,0.971282 1.577525,0.971282 1.577525,0.971282 1.577526,0.971282 1.577525,0.971281 1.577525,0.971282 1.577525,0.971282 1.577526,0.971282 1.577525,0.971282 1.577525,0.971282 1.577525,0.971281 1.577526,0.971282 1.577525,0.971282 1.577525,0.971282 1.577525,0.971282 1.577526,0.971282 1.577525,0.971281 1.577525,0.971282 1.577525,0.971282 1.57753,0.971282 1.57752,0.971282 1.57753,0.971282 1.57752,0.971282 1.57753,0.971281 1.57752,0.971282 1.57753,0.971282 1.57752,0.971282 1.57753,0.971282 1.57752,0.971282 1.57753,0.971281 1.57752,0.971282 1.57753,0.971282 1.57752,0.971282 1.57753,0.971282 1.57752,0.971282 1.57753,0.971281 1.57752,0.971282 1.57753,0.971282 1.57753,0.971282 1.57752,0.971282 1.57753,0.971282 1.57752,0.971281 1.57753,0.971282 1.57752,0.971282 1.57753,0.971282 1.57752,0.971282 1.57753,0.971282 1.57752,0.971282 1.57753,0.97128 1.57752,0.97128 1.57753,0.97129 1.57752,0.97128 1.57753,0.97128 1.57752,0.97128 1.57753,0.97128 1.57752,0.97128 1.57753,0.97129 1.57752,0.97128 1.57753,0.97128 1.57753,0.97128 1.57752,0.97128 1.57753,0.97129 1.57752,0.97128 1.57753,0.97128 1.57752,0.97128 1.57753,0.97128 1.57752,0.97128 1.57753,0.97129 1.57752,0.97128 1.57753,0.97128 1.57752,0.97128 1.57753,0.97128 1.57752,0.97129 1.57753,0.97128 1.57752,0.97128 1.57753,0.97128 1.57752,0.97128"
           style="fill:none;stroke:#9467bd;stroke-width:1.5;stroke-linecap:square;stroke-linejoin:round;stroke-miterlimit:10;stroke-dasharray:none;stroke-opacity:1"
           id="path168"
           inkscape:connector-curvature="0" /></g></g><g
       id="g170"><g
         id="g172"
         clip-path="url(#clipPath176)"><path
           d="m 34.559375,108.52689 1.577525,-1.31314 1.577526,-1.31313 1.577525,-1.31314 1.577525,-1.31314 1.577525,-1.31314 1.577526,-1.31314 1.577525,-1.313136 1.577525,-1.313138 1.577525,-1.313138 1.577526,-1.313138 1.577525,-1.313139 1.577525,-1.313138 1.577525,-1.313138 1.577526,-1.313139 1.577525,-1.313138 1.577525,-1.313138 1.577525,-1.313139 1.577526,-1.313138 1.577525,-1.313138 1.577525,-1.313139 1.577525,-1.313138 1.577526,-1.313138 1.577525,-1.313138 1.577525,-1.313139 1.577525,-1.313138 1.577526,-1.313138 1.577525,-1.313139 1.577525,-1.313138 1.577525,-1.313138 1.577526,-1.313139 1.577525,-1.313138 1.577525,-1.313138 1.577525,-1.313139 1.577526,-1.313138 1.577525,-1.313138 1.577525,-1.313138 1.577525,-1.313139 1.577526,-1.313138 1.577525,-1.313138 1.577525,-1.313139 1.577525,-1.313138 1.57753,-1.313138 1.57752,-1.313139 1.57753,-1.313138 1.57752,-1.313138 1.57753,-1.313139 1.57752,-1.313138 1.57753,-1.313138 1.57752,-1.313138 1.57753,-1.313139 1.57752,-1.313138 1.57753,-1.313138 1.57752,-1.313139 1.57753,-1.313138 1.57752,-1.313138 1.57753,-1.313139 1.57752,-1.313138 1.57753,-1.313138 1.57752,-1.313138 1.57753,-1.313139 1.57753,-1.313138 1.57752,-1.313138 1.57753,-1.313139 1.57752,-1.313138 1.57753,-1.313138 1.57752,-1.313139 1.57753,-1.313138 1.57752,-1.313138 1.57753,-1.313139 1.57752,-1.313138 1.57753,-1.313138 1.57752,-1.313138 1.57753,-1.313139 1.57752,-1.313138 1.57753,-1.313138 1.57752,-1.313139 1.57753,-1.313138 1.57752,-1.313138 1.57753,-1.313139 1.57752,-1.313138 1.57753,-1.313138 1.57753,-1.313139 1.57752,-1.313138 L 166.13838,-1"
           style="fill:none;stroke:#8c564b;stroke-width:1.5;stroke-linecap:square;stroke-linejoin:round;stroke-miterlimit:10;stroke-dasharray:none;stroke-opacity:1"
           id="path178"
           inkscape:connector-curvature="0" /></g></g><g
       id="g180"><g
         id="g182"
         clip-path="url(#clipPath186)"><path
           d="m 34.559375,124.86437 1.577525,-0.83611 1.577526,-0.83611 1.577525,-0.83612 1.577525,-0.83611 1.577525,-0.83611 1.577526,-0.83611 1.577525,-0.83611 1.577525,-0.83612 1.577525,-0.83611 1.577526,-0.83611 1.577525,-0.83611 1.577525,-0.83611 1.577525,-0.83612 1.577526,-0.83611 1.577525,-0.83611 1.577525,-0.83611 1.577525,-0.83612 1.577526,-0.83611 1.577525,-0.83611 1.577525,-0.83611 1.577525,-0.83611 1.577526,-0.83611 1.577525,-0.83612 1.577525,-0.83611 1.577525,-0.83611 1.577526,-0.83611 1.577525,-0.83612 1.577525,-0.83611 1.577525,-0.83611 1.577526,-0.836111 1.577525,-0.836112 1.577525,-0.836112 1.577525,-0.836112 1.577526,-0.836112 1.577525,-0.836112 1.577525,-0.836112 1.577525,-0.836112 1.577526,-0.836113 1.577525,-0.836112 1.577525,-0.836112 1.577525,-0.836112 1.57753,-0.836112 1.57752,-0.836112 1.57753,-0.836112 1.57752,-0.836112 1.57753,-0.836112 1.57752,-0.836112 1.57753,-0.836112 1.57752,-0.836112 1.57753,-0.836112 1.57752,-0.836112 1.57753,-0.836112 1.57752,-0.836112 1.57753,-0.836112 1.57752,-0.836112 1.57753,-0.836112 1.57752,-0.836112 1.57753,-0.836112 1.57752,-0.836112 1.57753,-0.836112 1.57753,-0.836112 1.57752,-0.836112 1.57753,-0.836112 1.57752,-0.836112 1.57753,-0.836112 1.57752,-0.836112 1.57753,-0.836112 1.57752,-0.836113 1.57753,-0.836112 1.57752,-0.836112 1.57753,-0.836112 1.57752,-0.836112 1.57753,-0.836112 1.57752,-0.836112 1.57753,-0.836112 1.57752,-0.836112 1.57753,-0.836112 1.57752,-0.836112 1.57753,-0.836112 1.57752,-0.836112 1.57753,-0.836112 1.57753,-0.836112 1.57752,-0.836112 1.57753,-0.836112 1.57752,-0.836112 1.57753,-0.836112 1.57752,-0.836112 1.57753,-0.836112 1.57752,-0.836112 1.57753,-0.836112 1.57752,-0.836112 1.57753,-0.836112 1.57752,-0.836112 1.57753,-0.836112 1.57752,-0.836112 1.57753,-0.836112 1.57752,-0.836112 1.57753,-0.836113 1.57752,-0.836112"
           style="fill:none;stroke:#e377c2;stroke-width:1.5;stroke-linecap:square;stroke-linejoin:round;stroke-miterlimit:10;stroke-dasharray:none;stroke-opacity:1"
           id="path188"
           inkscape:connector-curvature="0" /></g></g><g
       id="g190"><g
         id="g192"
         clip-path="url(#clipPath196)"><path
           d="m 34.559375,125.13393 1.577525,-2.28182 1.577526,-2.28183 1.577525,-2.28182 1.577525,-2.28182 1.577525,-2.28183 1.577526,-2.28182 1.577525,-2.28182 1.577525,-2.28183 1.577525,-2.28182 1.577526,-2.28183 1.577525,-2.28182 1.577525,-2.281825 1.577525,-2.281823 1.577526,-2.281824 1.577525,-2.281824 1.577525,-2.281824 1.577525,-2.281824 1.577526,-2.281824 1.577525,-2.281824 1.577525,-2.281824 1.577525,-2.281824 1.577526,-2.281824 1.577525,-2.281824 1.577525,-2.281824 1.577525,-2.281824 1.577526,-2.281824 1.577525,-2.281824 1.577525,-2.281824 1.577525,-2.281824 1.577526,-2.281824 1.577525,-2.281824 1.577525,-2.281824 1.577525,-2.281824 1.577526,-2.281824 1.577525,-2.281824 1.577525,-2.281824 1.577525,-2.281824 1.577526,-2.281824 1.577525,-2.281824 1.577525,-2.281824 1.577525,-2.281824 1.57753,-2.281824 1.57752,-2.281824 1.57753,-2.281824 1.57752,-2.281824 1.57753,-2.281824 1.57752,-2.281824 1.57753,-2.281824 1.57752,-2.281824 1.57753,-2.281824 1.57752,-2.281824 1.57753,-2.281824 1.57752,-2.281824 1.57753,-2.281824 1.57752,-2.281824 L 121.76131,-1"
           style="fill:none;stroke:#7f7f7f;stroke-width:1.5;stroke-linecap:square;stroke-linejoin:round;stroke-miterlimit:10;stroke-dasharray:none;stroke-opacity:1"
           id="path198"
           inkscape:connector-curvature="0" /></g></g><g
       id="g200"><g
         id="g202"
         clip-path="url(#clipPath206)"><path
           d="m 96.866699,-1 0.793686,0.910738 1.577525,1.810178 1.57753,1.810178 1.57752,1.810178 1.57753,1.810178 1.57752,1.810178 1.57753,1.810178 1.57752,1.810178 1.57753,1.810178 1.57752,1.810178 1.57753,1.810178 1.57752,1.810177 1.57753,1.810178 1.57752,1.810178 1.57753,1.810178 1.57752,1.810178 1.57753,1.810178 1.57752,1.810178 1.57753,1.810178 1.57752,1.810178 1.57753,1.810178 1.57753,1.810178 1.57752,1.810178 1.57753,1.810178 1.57752,1.810178 1.57753,1.810178 1.57752,1.810177 1.57753,1.810178 1.57752,1.810178 1.57753,1.810178 1.57752,1.810178 1.57753,1.810178 1.57752,1.810178 1.57753,1.810178 1.57752,1.810178 1.57753,1.810178 1.57752,1.810178 1.57753,1.810178 1.57752,1.810178 1.57753,1.810178 1.57752,1.810178 1.57753,1.810178 1.57753,1.810177 1.57752,1.810178 1.57753,1.810178 1.57752,1.810178 1.57753,1.810178 1.57752,1.810178 1.57753,1.810178 1.57752,1.810178 1.57753,1.810178 1.57752,1.810178 1.57753,1.810178 1.57752,1.810178 1.57753,1.810178 1.57752,1.810178 1.57753,1.810175 1.57752,1.81018 1.57753,1.81018 1.57752,1.81018"
           style="fill:none;stroke:#bcbd22;stroke-width:1.5;stroke-linecap:square;stroke-linejoin:round;stroke-miterlimit:10;stroke-dasharray:none;stroke-opacity:1"
           id="path208"
           inkscape:connector-curvature="0" /></g></g><g
       id="g210"><g
         id="g212"
         clip-path="url(#clipPath216)"><path
           d="m 123.6834,-1 0.79491,1.343934 1.57753,2.667065 1.57752,2.667066 1.57753,2.667065 1.57753,2.667065 1.57752,2.667066 1.57753,2.667065 1.57752,2.667066 1.57753,2.667065 1.57752,2.667065 1.57753,2.667066 1.57752,2.667065 1.57753,2.667066 1.57752,2.667065 1.57753,2.667066 1.57752,2.667065 1.57753,2.667065 1.57752,2.667066 1.57753,2.667065 1.57752,2.667066 1.57753,2.667065 1.57752,2.667065 1.57753,2.667066 1.57752,2.667065 1.57753,2.667066 1.57753,2.667065 1.57752,2.667065 1.57753,2.667066 1.57752,2.667065 1.57753,2.667066 1.57752,2.667065 1.57753,2.667066 1.57752,2.667065 1.57753,2.667065 1.57752,2.667066 1.57753,2.667065 1.57752,2.667066 1.57753,2.667065 1.57752,2.667066 1.57753,2.66706 1.57752,2.66707 1.57753,2.66707 1.57752,2.66706"
           style="fill:none;stroke:#17becf;stroke-width:1.5;stroke-linecap:square;stroke-linejoin:round;stroke-miterlimit:10;stroke-dasharray:none;stroke-opacity:1"
           id="path218"
           inkscape:connector-curvature="0" /></g></g><g
       id="g220"><g
         id="g222"
         clip-path="url(#clipPath226)"><path
           d="m 34.559375,32.503736 1.577525,0.60137 1.577526,0.601371 1.577525,0.60137 1.577525,0.60137 1.577525,0.60137 1.577526,0.60137 1.577525,0.60137 1.577525,0.60137 1.577525,0.601371 1.577526,0.60137 1.577525,0.60137 1.577525,0.60137 1.577525,0.60137 1.577526,0.60137 1.577525,0.60137 1.577525,0.601371 1.577525,0.60137 1.577526,0.60137 1.577525,0.60137 1.577525,0.60137 1.577525,0.60137 1.577526,0.601371 1.577525,0.60137 1.577525,0.60137 1.577525,0.60137 1.577526,0.60137 1.577525,0.60137 1.577525,0.60137 1.577525,0.601371 1.577526,0.60137 1.577525,0.60137 1.577525,0.60137 1.577525,0.60137 1.577526,0.60137 1.577525,0.60137 1.577525,0.601371 1.577525,0.60137 1.577526,0.60137 1.577525,0.60137 1.577525,0.60137 1.577525,0.60137 1.57753,0.60137 1.57752,0.601371 1.57753,0.60137 1.57752,0.60137 1.57753,0.60137 1.57752,0.60137 1.57753,0.60137 1.57752,0.601371 1.57753,0.60137 1.57752,0.60137 1.57753,0.60137 1.57752,0.60137 1.57753,0.60137 1.57752,0.60137 1.57753,0.601371 1.57752,0.60137 1.57753,0.60137 1.57752,0.60137 1.57753,0.60137 1.57753,0.60137 1.57752,0.60137 1.57753,0.601371 1.57752,0.60137 1.57753,0.60137 1.57752,0.60137 1.57753,0.60137 1.57752,0.60137 1.57753,0.601371 1.57752,0.60137 1.57753,0.60137 1.57752,0.60137 1.57753,0.60137 1.57752,0.60137 1.57753,0.60137 1.57752,0.601371 1.57753,0.60137 1.57752,0.60137 1.57753,0.60137 1.57752,0.60137 1.57753,0.60137 1.57753,0.60137 1.57752,0.601371 1.57753,0.60137 1.57752,0.60137 1.57753,0.60137 1.57752,0.60137 1.57753,0.60137 1.57752,0.601371 1.57753,0.60137 1.57752,0.60137 1.57753,0.60137 1.57752,0.60137 1.57753,0.60137 1.57752,0.60137 1.57753,0.601371 1.57752,0.60137 1.57753,0.60137 1.57752,0.60137"
           style="fill:none;stroke:#1f77b4;stroke-width:1.5;stroke-linecap:square;stroke-linejoin:round;stroke-miterlimit:10;stroke-dasharray:none;stroke-opacity:1"
           id="path228"
           inkscape:connector-curvature="0" /></g></g><g
       id="g230"><g
         id="g232"
         clip-path="url(#clipPath236)"><path
           d="m 34.559375,116.90492 1.577525,-2.9798 1.577526,-2.97979 1.577525,-2.9798 1.577525,-2.97979 1.577525,-2.9798 1.577526,-2.979792 1.577525,-2.979795 1.577525,-2.979795 1.577525,-2.979795 1.577526,-2.979795 1.577525,-2.979795 1.577525,-2.979795 1.577525,-2.979795 1.577526,-2.979795 1.577525,-2.979795 1.577525,-2.979795 1.577525,-2.979795 1.577526,-2.979795 1.577525,-2.979795 1.577525,-2.979795 1.577525,-2.979795 1.577526,-2.979795 1.577525,-2.979795 1.577525,-2.979795 1.577525,-2.979795 1.577526,-2.979795 1.577525,-2.979795 1.577525,-2.979795 1.577525,-2.979795 1.577526,-2.979795 1.577525,-2.979795 1.577525,-2.979795 1.577525,-2.979795 1.577526,-2.979795 1.577525,-2.979795 L 91.350284,9.632298 92.927809,6.652503 94.505335,3.672708 96.08286,0.692913 96.9791,-1"
           style="fill:none;stroke:#ff7f0e;stroke-width:1.5;stroke-linecap:square;stroke-linejoin:round;stroke-miterlimit:10;stroke-dasharray:none;stroke-opacity:1"
           id="path238"
           inkscape:connector-curvature="0" /></g></g><g
       id="g240"><g
         id="g242"
         clip-path="url(#clipPath246)"><path
           d="m 131.33033,-1 1.03561,1.656101 1.57753,2.522694 1.57752,2.522694 1.57753,2.522695 1.57752,2.522694 1.57753,2.522694 1.57752,2.522694 1.57753,2.522695 1.57752,2.522694 1.57753,2.522694 1.57752,2.522695 1.57753,2.522694 1.57752,2.522694 1.57753,2.522694 1.57752,2.522695 1.57753,2.522694 1.57752,2.522694 1.57753,2.522694 1.57752,2.522695 1.57753,2.522694 1.57753,2.522694 1.57752,2.522695 1.57753,2.522694 1.57752,2.522694 1.57753,2.522694 1.57752,2.522695 1.57753,2.522694 1.57752,2.522694 1.57753,2.522695 1.57752,2.522694 1.57753,2.522694 1.57752,2.522694 1.57753,2.522695 1.57752,2.522694 1.57753,2.522694 1.57752,2.522694 1.57753,2.522695 1.57752,2.522694"
           style="fill:none;stroke:#2ca02c;stroke-width:1.5;stroke-linecap:square;stroke-linejoin:round;stroke-miterlimit:10;stroke-dasharray:none;stroke-opacity:1"
           id="path248"
           inkscape:connector-curvature="0" /></g></g><g
       id="g250"><g
         id="g252"
         clip-path="url(#clipPath256)"><path
           d="m 71.273417,-1 1.146564,0.843354 1.577525,1.160348 1.577526,1.160348 1.577525,1.160347 1.577525,1.160348 1.577525,1.160348 1.577526,1.160347 1.577525,1.160348 1.577525,1.160348 1.577525,1.160347 1.577526,1.160348 1.577525,1.160347 1.577525,1.160348 1.577525,1.160348 1.577526,1.160347 1.577525,1.160348 1.577525,1.160348 1.577525,1.160347 1.57753,1.160348 1.57752,1.160348 1.57753,1.160347 1.57752,1.160348 1.57753,1.160348 1.57752,1.160347 1.57753,1.160348 1.57752,1.160348 1.57753,1.160347 1.57752,1.160348 1.57753,1.160348 1.57752,1.160347 1.57753,1.160348 1.57752,1.160348 1.57753,1.160347 1.57752,1.160348 1.57753,1.160347 1.57752,1.160348 1.57753,1.160348 1.57753,1.160347 1.57752,1.160348 1.57753,1.160348 1.57752,1.160347 1.57753,1.160348 1.57752,1.160348 1.57753,1.160347 1.57752,1.160348 1.57753,1.160348 1.57752,1.160347 1.57753,1.160348 1.57752,1.160348 1.57753,1.160347 1.57752,1.160348 1.57753,1.160348 1.57752,1.160347 1.57753,1.160348 1.57752,1.160348 1.57753,1.160347 1.57752,1.160348 1.57753,1.160347 1.57753,1.160348 1.57752,1.160348 1.57753,1.160347 1.57752,1.160348 1.57753,1.160348 1.57752,1.160347 1.57753,1.160348 1.57752,1.160348 1.57753,1.160347 1.57752,1.160348 1.57753,1.160348 1.57752,1.160347 1.57753,1.160348 1.57752,1.160348 1.57753,1.160347 1.57752,1.160348 1.57753,1.160348 1.57752,1.160347"
           style="fill:none;stroke:#d62728;stroke-width:1.5;stroke-linecap:square;stroke-linejoin:round;stroke-miterlimit:10;stroke-dasharray:none;stroke-opacity:1"
           id="path258"
           inkscape:connector-curvature="0" /></g></g><g
       id="g260"><g
         id="g262"
         clip-path="url(#clipPath266)"><path
           d="m 34.559375,27.307091 1.577525,0.838888 1.577526,0.838889 1.577525,0.838888 1.577525,0.838889 1.577525,0.838888 1.577526,0.838888 1.577525,0.838889 1.577525,0.838888 1.577525,0.838889 1.577526,0.838888 1.577525,0.838889 1.577525,0.838888 1.577525,0.838888 1.577526,0.838889 1.577525,0.838888 1.577525,0.838889 1.577525,0.838888 1.577526,0.838888 1.577525,0.838889 1.577525,0.838888 1.577525,0.838889 1.577526,0.838888 1.577525,0.838888 1.577525,0.838889 1.577525,0.838888 1.577526,0.838889 1.577525,0.838888 1.577525,0.838889 1.577525,0.838888 1.577526,0.838888 1.577525,0.838889 1.577525,0.838888 1.577525,0.838889 1.577526,0.838888 1.577525,0.838888 1.577525,0.838889 1.577525,0.838888 1.577526,0.838889 1.577525,0.838888 1.577525,0.838889 1.577525,0.838888 1.57753,0.838888 1.57752,0.838889 1.57753,0.838888 1.57752,0.838889 1.57753,0.838888 1.57752,0.838888 1.57753,0.838889 1.57752,0.838888 1.57753,0.838889 1.57752,0.838888 1.57753,0.838888 1.57752,0.838889 1.57753,0.838888 1.57752,0.838889 1.57753,0.838888 1.57752,0.838889 1.57753,0.838888 1.57752,0.838888 1.57753,0.838889 1.57753,0.838888 1.57752,0.838889 1.57753,0.838888 1.57752,0.838888 1.57753,0.838889 1.57752,0.838888 1.57753,0.838889 1.57752,0.838888 1.57753,0.838889 1.57752,0.838888 1.57753,0.838888 1.57752,0.838889 1.57753,0.838888 1.57752,0.838889 1.57753,0.838888 1.57752,0.838888 1.57753,0.838889 1.57752,0.838888 1.57753,0.838889 1.57752,0.838888 1.57753,0.838888 1.57753,0.838889 1.57752,0.838888 1.57753,0.838889 1.57752,0.838888 1.57753,0.838889 1.57752,0.838885 1.57753,0.83889 1.57752,0.83889 1.57753,0.83889 1.57752,0.83889 1.57753,0.83889 1.57752,0.83888 1.57753,0.83889 1.57752,0.83889 1.57753,0.83889 1.57752,0.83889 1.57753,0.83889 1.57752,0.83888"
           style="fill:none;stroke:#9467bd;stroke-width:1.5;stroke-linecap:square;stroke-linejoin:round;stroke-miterlimit:10;stroke-dasharray:none;stroke-opacity:1"
           id="path268"
           inkscape:connector-curvature="0" /></g></g><g
       id="g270"><g
         id="g272"
         clip-path="url(#clipPath276)"><path
           d="m 34.559375,84.446245 1.577525,-0.460214 1.577526,-0.460215 1.577525,-0.460214 1.577525,-0.460214 1.577525,-0.460214 1.577526,-0.460215 1.577525,-0.460214 1.577525,-0.460214 1.577525,-0.460214 1.577526,-0.460215 1.577525,-0.460214 1.577525,-0.460214 1.577525,-0.460214 1.577526,-0.460215 1.577525,-0.460214 1.577525,-0.460214 1.577525,-0.460214 1.577526,-0.460215 1.577525,-0.460214 1.577525,-0.460214 1.577525,-0.460214 1.577526,-0.460215 1.577525,-0.460214 1.577525,-0.460214 1.577525,-0.460214 1.577526,-0.460215 1.577525,-0.460214 1.577525,-0.460214 1.577525,-0.460214 1.577526,-0.460215 1.577525,-0.460214 1.577525,-0.460214 1.577525,-0.460214 1.577526,-0.460215 1.577525,-0.460214 1.577525,-0.460214 1.577525,-0.460214 1.577526,-0.460215 1.577525,-0.460214 1.577525,-0.460214 1.577525,-0.460214 1.57753,-0.460215 1.57752,-0.460214 1.57753,-0.460214 1.57752,-0.460214 1.57753,-0.460215 1.57752,-0.460214 1.57753,-0.460214 1.57752,-0.460214 1.57753,-0.460215 1.57752,-0.460214 1.57753,-0.460214 1.57752,-0.460214 1.57753,-0.460215 1.57752,-0.460214 1.57753,-0.460214 1.57752,-0.460214 1.57753,-0.460215 1.57752,-0.460214 1.57753,-0.460214 1.57753,-0.460214 1.57752,-0.460215 1.57753,-0.460214 1.57752,-0.460214 1.57753,-0.460214 1.57752,-0.460215 1.57753,-0.460214 1.57752,-0.460214 1.57753,-0.460214 1.57752,-0.460215 1.57753,-0.460214 1.57752,-0.460214 1.57753,-0.460214 1.57752,-0.460215 1.57753,-0.460214 1.57752,-0.460214 1.57753,-0.460214 1.57752,-0.460215 1.57753,-0.460214 1.57752,-0.460214 1.57753,-0.460214 1.57753,-0.460214 1.57752,-0.460215 1.57753,-0.460214 1.57752,-0.460214 1.57753,-0.460214 1.57752,-0.460215 1.57753,-0.460214 1.57752,-0.460214 1.57753,-0.460214 1.57752,-0.460215 1.57753,-0.460214 1.57752,-0.460214 1.57753,-0.460214 1.57752,-0.460215 1.57753,-0.460214 1.57752,-0.460214 1.57753,-0.460214 1.57752,-0.460215"
           style="fill:none;stroke:#8c564b;stroke-width:1.5;stroke-linecap:square;stroke-linejoin:round;stroke-miterlimit:10;stroke-dasharray:none;stroke-opacity:1"
           id="path278"
           inkscape:connector-curvature="0" /></g></g><g
       id="g280"><g
         id="g282"
         clip-path="url(#clipPath286)"><path
           d="m 117.12611,-1 1.0421,1.378325 1.57753,2.086503 1.57752,2.086504 1.57753,2.086503 1.57752,2.086503 1.57753,2.086503 1.57752,2.086504 1.57753,2.086503 1.57753,2.086503 1.57752,2.086503 1.57753,2.086503 1.57752,2.086504 1.57753,2.086503 1.57752,2.086503 1.57753,2.086503 1.57752,2.086503 1.57753,2.086504 1.57752,2.086503 1.57753,2.086503 1.57752,2.086503 1.57753,2.086503 1.57752,2.086504 1.57753,2.086503 1.57752,2.086503 1.57753,2.086503 1.57752,2.086503 1.57753,2.086504 1.57752,2.086503 1.57753,2.086503 1.57753,2.086503 1.57752,2.086503 1.57753,2.086504 1.57752,2.086503 1.57753,2.086503 1.57752,2.086503 1.57753,2.086503 1.57752,2.086504 1.57753,2.086503 1.57752,2.086503 1.57753,2.086503 1.57752,2.086503 1.57753,2.086504 1.57752,2.086503 1.57753,2.086503 1.57752,2.086503 1.57753,2.086504 1.57752,2.086503"
           style="fill:none;stroke:#e377c2;stroke-width:1.5;stroke-linecap:square;stroke-linejoin:round;stroke-miterlimit:10;stroke-dasharray:none;stroke-opacity:1"
           id="path288"
           inkscape:connector-curvature="0" /></g></g><g
       id="g290"><g
         id="g292"
         clip-path="url(#clipPath296)"><path
           d="m 34.559375,96.691565 1.577525,-0.47518 1.577526,-0.475181 1.577525,-0.47518 1.577525,-0.475181 1.577525,-0.47518 1.577526,-0.475181 1.577525,-0.47518 1.577525,-0.475181 1.577525,-0.47518 1.577526,-0.475181 1.577525,-0.47518 1.577525,-0.475181 1.577525,-0.47518 1.577526,-0.475181 1.577525,-0.47518 1.577525,-0.475181 1.577525,-0.47518 1.577526,-0.47518 1.577525,-0.475181 1.577525,-0.47518 1.577525,-0.475181 1.577526,-0.47518 1.577525,-0.475181 1.577525,-0.47518 1.577525,-0.475181 1.577526,-0.47518 1.577525,-0.475181 1.577525,-0.47518 1.577525,-0.475181 1.577526,-0.47518 1.577525,-0.475181 1.577525,-0.47518 1.577525,-0.475181 1.577526,-0.47518 1.577525,-0.475181 1.577525,-0.47518 1.577525,-0.475181 1.577526,-0.47518 1.577525,-0.47518 1.577525,-0.475181 1.577525,-0.47518 1.57753,-0.475181 1.57752,-0.47518 1.57753,-0.475181 1.57752,-0.47518 1.57753,-0.475181 1.57752,-0.47518 1.57753,-0.475181 1.57752,-0.47518 1.57753,-0.475181 1.57752,-0.47518 1.57753,-0.475181 1.57752,-0.47518 1.57753,-0.475181 1.57752,-0.47518 1.57753,-0.475181 1.57752,-0.47518 1.57753,-0.475181 1.57752,-0.47518 1.57753,-0.475181 1.57753,-0.47518 1.57752,-0.47518 1.57753,-0.475181 1.57752,-0.47518 1.57753,-0.475181 1.57752,-0.47518 1.57753,-0.475181 1.57752,-0.47518 1.57753,-0.475181 1.57752,-0.47518 1.57753,-0.475181 1.57752,-0.47518 1.57753,-0.475181 1.57752,-0.47518 1.57753,-0.475181 1.57752,-0.47518 1.57753,-0.475181 1.57752,-0.47518 1.57753,-0.475181 1.57752,-0.47518 1.57753,-0.475181 1.57753,-0.47518 1.57752,-0.475181 1.57753,-0.47518 1.57752,-0.47518 1.57753,-0.475181 1.57752,-0.47518 1.57753,-0.475181 1.57752,-0.47518 1.57753,-0.475181 1.57752,-0.47518 1.57753,-0.475181 1.57752,-0.47518 1.57753,-0.475181 1.57752,-0.47518 1.57753,-0.475181 1.57752,-0.47518 1.57753,-0.475181 1.57752,-0.47518"
           style="fill:none;stroke:#7f7f7f;stroke-width:1.5;stroke-linecap:square;stroke-linejoin:round;stroke-miterlimit:10;stroke-dasharray:none;stroke-opacity:1"
           id="path298"
           inkscape:connector-curvature="0" /></g></g><g
       id="g300"><g
         id="g302"
         clip-path="url(#clipPath306)"><path
           d="m 34.559375,43.998369 1.577525,0.416021 1.577526,0.416022 1.577525,0.416022 1.577525,0.416022 1.577525,0.416022 1.577526,0.416022 1.577525,0.416022 1.577525,0.416021 1.577525,0.416022 1.577526,0.416022 1.577525,0.416022 1.577525,0.416022 1.577525,0.416022 1.577526,0.416021 1.577525,0.416022 1.577525,0.416022 1.577525,0.416022 1.577526,0.416022 1.577525,0.416022 1.577525,0.416022 1.577525,0.416021 1.577526,0.416022 1.577525,0.416022 1.577525,0.416022 1.577525,0.416022 1.577526,0.416022 1.577525,0.416021 1.577525,0.416022 1.577525,0.416022 1.577526,0.416022 1.577525,0.416022 1.577525,0.416022 1.577525,0.416022 1.577526,0.416021 1.577525,0.416022 1.577525,0.416022 1.577525,0.416022 1.577526,0.416022 1.577525,0.416022 1.577525,0.416021 1.577525,0.416022 1.57753,0.416022 1.57752,0.416022 1.57753,0.416022 1.57752,0.416022 1.57753,0.416022 1.57752,0.416021 1.57753,0.416022 1.57752,0.416022 1.57753,0.416022 1.57752,0.416022 1.57753,0.416022 1.57752,0.416021 1.57753,0.416022 1.57752,0.416022 1.57753,0.416022 1.57752,0.416022 1.57753,0.416022 1.57752,0.416022 1.57753,0.416021 1.57753,0.416022 1.57752,0.416022 1.57753,0.416022 1.57752,0.416022 1.57753,0.416022 1.57752,0.416021 1.57753,0.416022 1.57752,0.416022 1.57753,0.416022 1.57752,0.416022 1.57753,0.416022 1.57752,0.416022 1.57753,0.416021 1.57752,0.416022 1.57753,0.416022 1.57752,0.416022 1.57753,0.416022 1.57752,0.416022 1.57753,0.416021 1.57752,0.416022 1.57753,0.416022 1.57753,0.416022 1.57752,0.416022 1.57753,0.416022 1.57752,0.416022 1.57753,0.416021 1.57752,0.416022 1.57753,0.416022 1.57752,0.416022 1.57753,0.416022 1.57752,0.416022 1.57753,0.416021 1.57752,0.416022 1.57753,0.416022 1.57752,0.416022 1.57753,0.416022 1.57752,0.416022 1.57753,0.416022 1.57752,0.416021"
           style="fill:none;stroke:#bcbd22;stroke-width:1.5;stroke-linecap:square;stroke-linejoin:round;stroke-miterlimit:10;stroke-dasharray:none;stroke-opacity:1"
           id="path308"
           inkscape:connector-curvature="0" /></g></g><g
       id="g310"><g
         id="g312"
         clip-path="url(#clipPath316)"><path
           d="m 34.559375,10.251822 1.577525,1.205247 1.577526,1.205248 1.577525,1.205247 1.577525,1.205247 1.577525,1.205248 1.577526,1.205247 1.577525,1.205248 1.577525,1.205247 1.577525,1.205248 1.577526,1.205247 1.577525,1.205248 1.577525,1.205247 1.577525,1.205248 1.577526,1.205247 1.577525,1.205247 1.577525,1.205248 1.577525,1.205247 1.577526,1.205248 1.577525,1.205247 1.577525,1.205248 1.577525,1.205247 1.577526,1.205248 1.577525,1.205247 1.577525,1.205248 1.577525,1.205247 1.577526,1.205247 1.577525,1.205248 1.577525,1.205247 1.577525,1.205248 1.577526,1.205247 1.577525,1.205248 1.577525,1.205247 1.577525,1.205248 1.577526,1.205247 1.577525,1.205248 1.577525,1.205247 1.577525,1.205248 1.577526,1.205247 1.577525,1.205247 1.577525,1.205248 1.577525,1.205247 1.57753,1.205248 1.57752,1.205247 1.57753,1.205248 1.57752,1.205247 1.57753,1.205248 1.57752,1.205247 1.57753,1.205248 1.57752,1.205247 1.57753,1.205247 1.57752,1.205248 1.57753,1.205247 1.57752,1.205248 1.57753,1.205247 1.57752,1.205248 1.57753,1.205247 1.57752,1.205248 1.57753,1.205247 1.57752,1.205248 1.57753,1.205247 1.57753,1.205247 1.57752,1.205248 1.57753,1.205247 1.57752,1.205248 1.57753,1.205247 1.57752,1.205248 1.57753,1.205247 1.57752,1.205248 1.57753,1.205247 1.57752,1.205248 1.57753,1.205247 1.57752,1.205247 1.57753,1.205248 1.57752,1.205247 1.57753,1.205247 1.57752,1.20525 1.57753,1.20525 1.57752,1.20524 1.57753,1.20525 1.57752,1.20525 1.57753,1.20525 1.57753,1.20524 1.57752,1.20525 1.57753,1.20525 1.57752,1.20525 1.57753,1.20524 1.57752,1.20525 1.57753,1.20525 1.57752,1.20525 1.57753,1.20524 1.57752,1.20525 1.57753,1.20525 1.57752,1.20524 1.57753,1.20525 1.57752,1.20525 1.57753,1.20525 1.57752,1.20525 1.57753,1.20524 1.57752,1.20525"
           style="fill:none;stroke:#17becf;stroke-width:1.5;stroke-linecap:square;stroke-linejoin:round;stroke-miterlimit:10;stroke-dasharray:none;stroke-opacity:1"
           id="path318"
           inkscape:connector-curvature="0" /></g></g><g
       id="g320"><path
         d="m 34.559375,37.54375 v 109.4"
         style="fill:none;stroke:#000000;stroke-width:0.80000001;stroke-linecap:square;stroke-linejoin:miter;stroke-miterlimit:10;stroke-dasharray:none;stroke-opacity:1"
         id="path322"
         inkscape:connector-curvature="0" /><path
         d="M 34.559375,37.54375 H 190.73437"
         style="fill:none;stroke:#000000;stroke-width:0.80000001;stroke-linecap:square;stroke-linejoin:miter;stroke-miterlimit:10;stroke-dasharray:none;stroke-opacity:1"
         id="path326"
         inkscape:connector-curvature="0" /><text
         transform="scale(1,-1)"
         style="font-style:normal;font-variant:normal;font-weight:bold;font-stretch:normal;font-size:10px;font-family:Junicode;-inkscape-font-specification:'Junicode Bold';writing-mode:lr-tb;fill:#000000;fill-opacity:1;fill-rule:nonzero;stroke:none"
         id="text332"
         x="94.890526"
         y="-152.94376"><tspan
           x="94.890526"
           y="-152.94376"
           sodipodi:role="line"
           id="tspan330">Currents</tspan></text>
<path
         d="m 249.47187,37.54375 v -3.5"
         style="fill:#000000;fill-opacity:1;fill-rule:nonzero;stroke:#000000;stroke-width:0.80000001;stroke-linecap:butt;stroke-linejoin:round;stroke-miterlimit:10;stroke-dasharray:none;stroke-opacity:1"
         id="path334"
         inkscape:connector-curvature="0" /><g
         id="g336"
         transform="translate(237.33125,22.95)"><text
           transform="matrix(1,0,0,-1,8.3789063,0)"
           style="font-variant:normal;font-weight:normal;font-size:10px;font-family:Junicode;-inkscape-font-specification:Junicode;writing-mode:lr-tb;fill:#000000;fill-opacity:1;fill-rule:nonzero;stroke:none;font-style:normal;font-stretch:normal;"
           id="text340"><tspan
             x="0"
             y="0"
             sodipodi:role="line"
             id="tspan338">1.0</tspan></text>
<g
           id="g342"
           transform="scale(0.01)"><g
             id="g344"><g
               id="g346"
               clip-path="url(#clipPath350)"><path
                 d="M 106,355 H 732 V 272 H 106 v 83"
                 style="fill:#000000;fill-opacity:1;fill-rule:nonzero;stroke:none"
                 id="path352"
                 inkscape:connector-curvature="0" /></g></g></g></g><path
         d="m 288.51562,37.54375 v -3.5"
         style="fill:#000000;fill-opacity:1;fill-rule:nonzero;stroke:#000000;stroke-width:0.80000001;stroke-linecap:butt;stroke-linejoin:round;stroke-miterlimit:10;stroke-dasharray:none;stroke-opacity:1"
         id="path354"
         inkscape:connector-curvature="0" /><g
         id="g356"
         transform="translate(276.375,22.95)"><text
           transform="matrix(1,0,0,-1,8.3789063,0)"
           style="font-variant:normal;font-weight:normal;font-size:10px;font-family:Junicode;-inkscape-font-specification:Junicode;writing-mode:lr-tb;fill:#000000;fill-opacity:1;fill-rule:nonzero;stroke:none;font-style:normal;font-stretch:normal;"
           id="text360"><tspan
             x="0"
             y="0"
             sodipodi:role="line"
             id="tspan358">0.5</tspan></text>
<g
           id="g362"
           transform="scale(0.01)"><g
             id="g364"><g
               id="g366"
               clip-path="url(#clipPath370)"><path
                 d="M 106,355 H 732 V 272 H 106 v 83"
                 style="fill:#000000;fill-opacity:1;fill-rule:nonzero;stroke:none"
                 id="path372"
                 inkscape:connector-curvature="0" /></g></g></g></g><path
         d="m 327.55937,37.54375 v -3.5"
         style="fill:#000000;fill-opacity:1;fill-rule:nonzero;stroke:#000000;stroke-width:0.80000001;stroke-linecap:butt;stroke-linejoin:round;stroke-miterlimit:10;stroke-dasharray:none;stroke-opacity:1"
         id="path374"
         inkscape:connector-curvature="0" /><text
         transform="matrix(1,0,0,-1,319.60625,22.95)"
         style="font-variant:normal;font-weight:normal;font-size:10px;font-family:Junicode;-inkscape-font-specification:Junicode;writing-mode:lr-tb;fill:#000000;fill-opacity:1;fill-rule:nonzero;stroke:none;font-style:normal;font-stretch:normal;"
         id="text378"><tspan
           x="0"
           y="0"
           sodipodi:role="line"
           id="tspan376">0.0</tspan></text>
<path
         d="m 366.60312,37.54375 v -3.5"
         style="fill:#000000;fill-opacity:1;fill-rule:nonzero;stroke:#000000;stroke-width:0.80000001;stroke-linecap:butt;stroke-linejoin:round;stroke-miterlimit:10;stroke-dasharray:none;stroke-opacity:1"
         id="path380"
         inkscape:connector-curvature="0" /><text
         transform="matrix(1,0,0,-1,358.65,22.95)"
         style="font-variant:normal;font-weight:normal;font-size:10px;font-family:Junicode;-inkscape-font-specification:Junicode;writing-mode:lr-tb;fill:#000000;fill-opacity:1;fill-rule:nonzero;stroke:none;font-style:normal;font-stretch:normal;"
         id="text384"><tspan
           x="0"
           y="0"
           sodipodi:role="line"
           id="tspan382">0.5</tspan></text>
<path
         d="m 405.64688,37.54375 v -3.5"
         style="fill:#000000;fill-opacity:1;fill-rule:nonzero;stroke:#000000;stroke-width:0.80000001;stroke-linecap:butt;stroke-linejoin:round;stroke-miterlimit:10;stroke-dasharray:none;stroke-opacity:1"
         id="path386"
         inkscape:connector-curvature="0" /><text
         transform="matrix(1,0,0,-1,397.69375,22.95)"
         style="font-variant:normal;font-weight:normal;font-size:10px;font-family:Junicode;-inkscape-font-specification:Junicode;writing-mode:lr-tb;fill:#000000;fill-opacity:1;fill-rule:nonzero;stroke:none;font-style:normal;font-stretch:normal;"
         id="text390"><tspan
           x="0"
           y="0"
           sodipodi:role="line"
           id="tspan388">1.0</tspan></text>
<g
         id="g392"
         transform="translate(312.66397,9.278125)"><text
           transform="matrix(1,0,0,-1,0,0.40625)"
           style="font-style:normal;font-variant:normal;font-weight:normal;font-stretch:normal;font-size:10px;font-family:Junicode;-inkscape-font-specification:Junicode;writing-mode:lr-tb;fill:#000000;fill-opacity:1;fill-rule:nonzero;stroke:none"
           id="text396"><tspan
             x="0"
             y="0"
             sodipodi:role="line"
             id="tspan394">Value </tspan></text>
<text
           transform="scale(1,-1)"
           style="font-style:italic;font-variant:normal;font-weight:normal;font-stretch:normal;font-size:10px;font-family:Junicode;-inkscape-font-specification:'Junicode Italic';writing-mode:lr-tb;fill:#000000;fill-opacity:1;fill-rule:nonzero;stroke:none"
           id="text400"
           x="24.942169"
           y="-0.40625"><tspan
             x="24.942169"
             y="-0.40625"
             id="tspan398"
             style="font-style:italic;font-variant:normal;font-weight:normal;font-stretch:normal;font-family:Junicode;-inkscape-font-specification:'Junicode Italic'">x</tspan></text>
</g><path
         d="m 249.47187,37.54375 h -3.5"
         style="fill:#000000;fill-opacity:1;fill-rule:nonzero;stroke:#000000;stroke-width:0.80000001;stroke-linecap:butt;stroke-linejoin:round;stroke-miterlimit:10;stroke-dasharray:none;stroke-opacity:1"
         id="path402"
         inkscape:connector-curvature="0" /><text
         transform="matrix(1,0,0,-1,236.1125,33.746875)"
         style="font-variant:normal;font-weight:normal;font-size:10px;font-family:Junicode;-inkscape-font-specification:Junicode;writing-mode:lr-tb;fill:#000000;fill-opacity:1;fill-rule:nonzero;stroke:none;font-style:normal;font-stretch:normal;"
         id="text406"><tspan
           x="0"
           y="0"
           id="tspan404"
           style="-inkscape-font-specification:Junicode;font-family:Junicode;font-weight:normal;font-style:normal;font-stretch:normal;font-variant:normal;">0</tspan></text>
<path
         d="m 249.47187,64.89375 h -3.5"
         style="fill:#000000;fill-opacity:1;fill-rule:nonzero;stroke:#000000;stroke-width:0.80000001;stroke-linecap:butt;stroke-linejoin:round;stroke-miterlimit:10;stroke-dasharray:none;stroke-opacity:1"
         id="path408"
         inkscape:connector-curvature="0" /><text
         transform="matrix(1,0,0,-1,229.75312,61.096875)"
         style="font-variant:normal;font-weight:normal;font-size:10px;font-family:Junicode;-inkscape-font-specification:Junicode;writing-mode:lr-tb;fill:#000000;fill-opacity:1;fill-rule:nonzero;stroke:none;font-style:normal;font-stretch:normal;"
         id="text412"><tspan
           x="0"
           y="0"
           sodipodi:role="line"
           id="tspan410">50</tspan></text>
<path
         d="m 249.47187,92.24375 h -3.5"
         style="fill:#000000;fill-opacity:1;fill-rule:nonzero;stroke:#000000;stroke-width:0.80000001;stroke-linecap:butt;stroke-linejoin:round;stroke-miterlimit:10;stroke-dasharray:none;stroke-opacity:1"
         id="path414"
         inkscape:connector-curvature="0" /><text
         transform="matrix(1,0,0,-1,223.39375,88.446875)"
         style="font-variant:normal;font-weight:normal;font-size:10px;font-family:Junicode;-inkscape-font-specification:Junicode;writing-mode:lr-tb;fill:#000000;fill-opacity:1;fill-rule:nonzero;stroke:none;font-style:normal;font-stretch:normal;"
         id="text418"><tspan
           x="0"
           y="0"
           sodipodi:role="line"
           id="tspan416">100</tspan></text>
<path
         d="m 249.47187,119.59375 h -3.5"
         style="fill:#000000;fill-opacity:1;fill-rule:nonzero;stroke:#000000;stroke-width:0.80000001;stroke-linecap:butt;stroke-linejoin:round;stroke-miterlimit:10;stroke-dasharray:none;stroke-opacity:1"
         id="path420"
         inkscape:connector-curvature="0" /><text
         transform="matrix(1,0,0,-1,223.39375,115.79688)"
         style="font-variant:normal;font-weight:normal;font-size:10px;font-family:Junicode;-inkscape-font-specification:Junicode;writing-mode:lr-tb;fill:#000000;fill-opacity:1;fill-rule:nonzero;stroke:none;font-style:normal;font-stretch:normal;"
         id="text424"><tspan
           x="0"
           y="0"
           sodipodi:role="line"
           id="tspan422">150</tspan></text>
<path
         d="m 249.47187,146.94375 h -3.5"
         style="fill:#000000;fill-opacity:1;fill-rule:nonzero;stroke:#000000;stroke-width:0.80000001;stroke-linecap:butt;stroke-linejoin:round;stroke-miterlimit:10;stroke-dasharray:none;stroke-opacity:1"
         id="path426"
         inkscape:connector-curvature="0" /><text
         transform="matrix(1,0,0,-1,223.39375,143.14687)"
         style="font-variant:normal;font-weight:normal;font-size:10px;font-family:Junicode;-inkscape-font-specification:Junicode;writing-mode:lr-tb;fill:#000000;fill-opacity:1;fill-rule:nonzero;stroke:none;font-style:normal;font-stretch:normal;"
         id="text430"><tspan
           x="0"
           y="0"
           sodipodi:role="line"
           id="tspan428">200</tspan></text>
<text
         transform="matrix(0,1,1,0,0,0)"
         style="font-style:normal;font-variant:normal;font-weight:normal;font-stretch:normal;font-size:10px;font-family:Junicode;-inkscape-font-specification:Junicode;writing-mode:lr-tb;fill:#000000;fill-opacity:1;fill-rule:nonzero;stroke:none"
         id="text434"
         x="71.643166"
         y="217.31561"><tspan
           x="71.643166"
           y="217.31561"
           sodipodi:role="line"
           id="tspan432">Firing rate</tspan></text>
</g><g
       id="g436"><g
         id="g438"
         clip-path="url(#clipPath442)"><path
           d="m 249.47187,37.54375 h 1.57753 1.57753 1.57752 1.57753 1.57752 1.57753 1.57752 1.57753 1.57752 1.57753 1.57752 1.57753 1.57752 1.57753 1.57752 1.57753 1.57752 1.57753 1.57753 1.57752 1.57752 1.57753 1.57753 1.57752 1.57753 1.57752 1.57753 1.57752 1.57753 1.57752 1.57753 1.57752 1.57753 1.57752 1.57753 1.57752 1.57753 1.57752 1.57753 1.57753 1.57752 1.57753 1.57752 1.57753 1.57752 1.57753 1.57752 1.57753 1.57752 1.57753 1.57752 1.57753 1.57752 1.57753 1.57752 1.57753 1.57752 1.57753 1.57753 1.57752 1.57752 1.57753 1.57753 1.57752 1.57753 1.57752 1.57753 1.57752 1.57753 1.57752 1.57753 1.57752 1.57753 1.57752 1.57753 1.57752 1.57753 1.57752 1.57753 1.57753 1.57752 1.57753 l 1.57752,13.492585 1.57753,9.117701 1.57752,7.717284 1.57753,7.038458 1.57752,6.549007 1.57753,6.147226 1.57752,5.798679 1.57753,5.487879 1.57752,5.206421 1.57753,4.94909 1.57752,4.71226 1.57753,4.49328 1.57752,4.29007 1.57753,4.10093 1.57752,3.92446 1.57753,3.75944 1.57753,3.60486"
           style="fill:none;stroke:#1f77b4;stroke-width:1.5;stroke-linecap:square;stroke-linejoin:round;stroke-miterlimit:10;stroke-dasharray:none;stroke-opacity:1"
           id="path444"
           inkscape:connector-curvature="0" /></g></g><g
       id="g446"><g
         id="g448"
         clip-path="url(#clipPath452)"><path
           d="m 249.47187,37.54375 h 1.57753 1.57753 1.57752 1.57753 1.57752 1.57753 1.57752 1.57753 1.57752 1.57753 1.57752 1.57753 1.57752 1.57753 1.57752 1.57753 1.57752 1.57753 1.57753 1.57752 1.57752 1.57753 1.57753 1.57752 1.57753 1.57752 1.57753 1.57752 1.57753 1.57752 1.57753 1.57752 1.57753 1.57752 1.57753 1.57752 1.57753 1.57752 1.57753 1.57753 1.57752 1.57753 1.57752 1.57753 1.57752 1.57753 l 1.57752,9.620463 1.57753,4.061953 1.57752,3.300339 1.57753,2.985355 1.57752,2.797907 1.57753,2.666178 1.57752,2.564132 1.57753,2.479957 1.57752,2.407498 1.57753,2.343236 1.57752,2.285012 1.57753,2.231423 1.57753,2.181523 1.57752,2.134642 1.57752,2.090297 1.57753,2.048127 1.57753,2.007853 1.57752,1.969261 1.57753,1.932176 1.57752,1.896461 1.57753,1.861998 1.57752,1.82869 1.57753,1.796456 1.57752,1.765223 1.57753,1.73493 1.57752,1.70553 1.57753,1.67695 1.57752,1.64919 1.57753,1.62216 1.57752,1.59587 1.57753,1.57026 1.57752,1.54531 1.57753,1.52099 1.57753,1.49727 1.57752,1.47415 1.57753,1.45158 1.57752,1.42954 1.57753,1.40804 1.57752,1.38703 1.57753,1.3665 1.57752,1.34645 1.57753,1.32685 1.57752,1.30768 1.57753,1.28894 1.57752,1.27062 1.57753,1.25268 1.57752,1.23513 1.57753,1.21797 1.57752,1.20115 1.57753,1.1847 1.57752,1.16859 1.57753,1.1528 1.57753,1.13734"
           style="fill:none;stroke:#ff7f0e;stroke-width:1.5;stroke-linecap:square;stroke-linejoin:round;stroke-miterlimit:10;stroke-dasharray:none;stroke-opacity:1"
           id="path454"
           inkscape:connector-curvature="0" /></g></g><g
       id="g456"><g
         id="g458"
         clip-path="url(#clipPath462)"><path
           d="m 249.47187,93.112648 1.57753,-2.10828 1.57753,-2.152508 1.57752,-2.198654 1.57753,-2.246951 1.57752,-2.297693 1.57753,-2.351256 1.57752,-2.408151 1.57753,-2.469076 1.57752,-2.535025 1.57753,-2.607468 1.57752,-2.688683 1.57753,-2.782408 1.57752,-2.895237 1.57753,-3.040001 1.57752,-3.245525 1.57753,-3.59386 1.57752,-4.479242 1.57753,-9.46888 h 1.57753 1.57752 1.57752 1.57753 1.57753 1.57752 1.57753 1.57752 1.57753 1.57752 1.57753 1.57752 1.57753 1.57752 1.57753 1.57752 1.57753 1.57752 1.57753 1.57752 1.57753 1.57753 1.57752 1.57753 1.57752 1.57753 1.57752 1.57753 1.57752 1.57753 1.57752 1.57753 1.57752 1.57753 1.57752 1.57753 1.57752 1.57753 1.57752 1.57753 1.57753 1.57752 1.57752 1.57753 1.57753 1.57752 1.57753 1.57752 1.57753 1.57752 1.57753 1.57752 1.57753 1.57752 1.57753 1.57752 1.57753 1.57752 1.57753 1.57752 1.57753 1.57753 1.57752 1.57753 1.57752 1.57753 1.57752 1.57753 1.57752 1.57753 1.57752 1.57753 1.57752 1.57753 1.57752 1.57753 1.57752 1.57753 1.57752 1.57753 1.57753"
           style="fill:none;stroke:#2ca02c;stroke-width:1.5;stroke-linecap:square;stroke-linejoin:round;stroke-miterlimit:10;stroke-dasharray:none;stroke-opacity:1"
           id="path464"
           inkscape:connector-curvature="0" /></g></g><g
       id="g466"><g
         id="g468"
         clip-path="url(#clipPath472)"><path
           d="m 249.47187,131.73667 1.57753,-3.76633 1.57753,-3.92968 1.57752,-4.10432 1.57753,-4.2914 1.57752,-4.49235 1.57753,-4.70886 1.57752,-4.94308 1.57753,-5.197774 1.57752,-5.476798 1.57753,-5.785932 1.57752,-6.134871 1.57753,-6.54246 1.57752,-7.0537 1.57753,-7.817647 1.57752,-9.954163 1.57753,-9.993555 h 1.57752 1.57753 1.57753 1.57752 1.57752 1.57753 1.57753 1.57752 1.57753 1.57752 1.57753 1.57752 1.57753 1.57752 1.57753 1.57752 1.57753 1.57752 1.57753 1.57752 1.57753 1.57752 1.57753 1.57753 1.57752 1.57753 1.57752 1.57753 1.57752 1.57753 1.57752 1.57753 1.57752 1.57753 1.57752 1.57753 1.57752 1.57753 1.57752 1.57753 1.57752 1.57753 1.57753 1.57752 1.57752 1.57753 1.57753 1.57752 1.57753 1.57752 1.57753 1.57752 1.57753 1.57752 1.57753 1.57752 1.57753 1.57752 1.57753 1.57752 1.57753 1.57752 1.57753 1.57753 1.57752 1.57753 1.57752 1.57753 1.57752 1.57753 1.57752 1.57753 1.57752 1.57753 1.57752 1.57753 1.57752 1.57753 1.57752 1.57753 1.57752 1.57753 1.57753"
           style="fill:none;stroke:#d62728;stroke-width:1.5;stroke-linecap:square;stroke-linejoin:round;stroke-miterlimit:10;stroke-dasharray:none;stroke-opacity:1"
           id="path474"
           inkscape:connector-curvature="0" /></g></g><g
       id="g476"><g
         id="g478"
         clip-path="url(#clipPath482)"><path
           d="m 249.47187,37.54375 h 1.57753 1.57753 1.57752 1.57753 1.57752 1.57753 1.57752 1.57753 1.57752 1.57753 1.57752 1.57753 1.57752 1.57753 1.57752 1.57753 1.57752 1.57753 l 1.57753,4.791448 1.57752,5.095686 1.57752,2.763078 1.57753,2.334803 1.57753,2.125175 1.57752,1.994744 1.57753,1.902698 1.57752,1.832355 1.57753,1.775548 1.57752,1.727794 1.57753,1.686418 1.57752,1.649724 1.57753,1.616591 1.57752,1.586239 1.57753,1.558114 1.57752,1.531813 1.57753,1.507031 1.57752,1.483537 1.57753,1.461149 1.57752,1.439728 1.57753,1.419155 1.57753,1.399342 1.57752,1.380208 1.57753,1.361693 1.57752,1.343743 1.57753,1.326311 1.57752,1.309361 1.57753,1.292858 1.57752,1.276773 1.57753,1.261082 1.57752,1.24576 1.57753,1.230789 1.57752,1.216152 1.57753,1.20183 1.57752,1.187812 1.57753,1.174078 1.57752,1.16063 1.57753,1.14745 1.57752,1.13451 1.57753,1.12184 1.57753,1.10938 1.57752,1.09717 1.57752,1.08518 1.57753,1.07341 1.57753,1.06183 1.57752,1.05047 1.57753,1.0393 1.57752,1.02832 1.57753,1.01752 1.57752,1.00692 1.57753,0.99648 1.57752,0.98621 1.57753,0.97612 1.57752,0.96618 1.57753,0.9564 1.57752,0.94678 1.57753,0.93731 1.57752,0.92798 1.57753,0.91881 1.57752,0.90977 1.57753,0.90086 1.57753,0.8921 1.57752,0.88347 1.57753,0.87495 1.57752,0.86658 1.57753,0.85832 1.57752,0.85019 1.57753,0.84217 1.57752,0.83426 1.57753,0.82648 1.57752,0.8188 1.57753,0.81123 1.57752,0.80376 1.57753,0.79641 1.57752,0.78916 1.57753,0.782 1.57752,0.77494 1.57753,0.76799 1.57752,0.76112 1.57753,0.75435 1.57753,0.74767"
           style="fill:none;stroke:#9467bd;stroke-width:1.5;stroke-linecap:square;stroke-linejoin:round;stroke-miterlimit:10;stroke-dasharray:none;stroke-opacity:1"
           id="path484"
           inkscape:connector-curvature="0" /></g></g><g
       id="g486"><g
         id="g488"
         clip-path="url(#clipPath492)"><path
           d="m 249.47187,124.64574 1.57753,-1.23271 1.57753,-1.24934 1.57752,-1.26632 1.57753,-1.28365 1.57752,-1.30138 1.57753,-1.31947 1.57752,-1.33799 1.57753,-1.35691 1.57752,-1.37626 1.57753,-1.39606 1.57752,-1.41633 1.57753,-1.43707 1.57752,-1.45832 1.57753,-1.48009 1.57752,-1.50242 1.57753,-1.5253 1.57752,-1.54879 1.57753,-1.572903 1.57753,-1.597689 1.57752,-1.623172 1.57752,-1.649401 1.57753,-1.676422 1.57753,-1.704293 1.57752,-1.733078 1.57753,-1.762855 1.57752,-1.793714 1.57753,-1.825764 1.57752,-1.859139 1.57753,-1.894005 1.57752,-1.930572 1.57753,-1.96911 1.57752,-2.009972 1.57753,-2.053635 1.57752,-2.100755 1.57753,-2.152271 1.57752,-2.209563 1.57753,-2.27476 1.57752,-2.351323 1.57753,-2.445289 1.57753,-2.568202 1.57752,-2.745409 1.57753,-3.046547 1.57752,-3.779834 1.57753,-9.283903 h 1.57752 1.57753 1.57752 1.57753 1.57752 1.57753 1.57752 1.57753 1.57752 1.57753 1.57752 1.57753 1.57752 1.57753 1.57753 1.57752 1.57752 1.57753 1.57753 1.57752 1.57753 1.57752 1.57753 1.57752 1.57753 1.57752 1.57753 1.57752 1.57753 1.57752 1.57753 1.57752 1.57753 1.57752 1.57753 1.57753 1.57752 1.57753 1.57752 1.57753 1.57752 1.57753 1.57752 1.57753 1.57752 1.57753 1.57752 1.57753 1.57752 1.57753 1.57752 1.57753 1.57752 1.57753 1.57753"
           style="fill:none;stroke:#8c564b;stroke-width:1.5;stroke-linecap:square;stroke-linejoin:round;stroke-miterlimit:10;stroke-dasharray:none;stroke-opacity:1"
           id="path494"
           inkscape:connector-curvature="0" /></g></g><g
       id="g496"><g
         id="g498"
         clip-path="url(#clipPath502)"><path
           d="m 249.47187,138.7194 1.57753,-0.66806 1.57753,-0.67329 1.57752,-0.67859 1.57753,-0.68396 1.57752,-0.68938 1.57753,-0.69487 1.57752,-0.70044 1.57753,-0.70606 1.57752,-0.71176 1.57753,-0.71753 1.57752,-0.72338 1.57753,-0.72929 1.57752,-0.73528 1.57753,-0.74134 1.57752,-0.74749 1.57753,-0.75372 1.57752,-0.76001 1.57753,-0.76641 1.57753,-0.77287 1.57752,-0.77942 1.57752,-0.78607 1.57753,-0.7928 1.57753,-0.79961 1.57752,-0.80653 1.57753,-0.81354 1.57752,-0.82063 1.57753,-0.82784 1.57752,-0.83514 1.57753,-0.84254 1.57752,-0.85004 1.57753,-0.85766 1.57752,-0.86539 1.57753,-0.87321 1.57752,-0.88117 1.57753,-0.88923 1.57752,-0.89741 1.57753,-0.90573 1.57752,-0.91416 1.57753,-0.92272 1.57753,-0.93142 1.57752,-0.94025 1.57753,-0.94922 1.57752,-0.95834 1.57753,-0.9676 1.57752,-0.97702 1.57753,-0.9866 1.57752,-0.99633 1.57753,-1.006242 1.57752,-1.01632 1.57753,-1.02658 1.57752,-1.037027 1.57753,-1.04767 1.57752,-1.058515 1.57753,-1.069571 1.57752,-1.080849 1.57753,-1.092358 1.57752,-1.10411 1.57753,-1.116119 1.57753,-1.128399 1.57752,-1.140965 1.57752,-1.153837 1.57753,-1.167034 1.57753,-1.180583 1.57752,-1.194508 1.57753,-1.208843 1.57752,-1.223622 1.57753,-1.238891 1.57752,-1.254701 1.57753,-1.271111 1.57752,-1.288199 1.57753,-1.306051 1.57752,-1.324782 1.57753,-1.344527 1.57752,-1.365467 1.57753,-1.387823 1.57752,-1.411894 1.57753,-1.438073 1.57752,-1.466896 1.57753,-1.499116 1.57753,-1.535816 1.57752,-1.578624 1.57753,-1.630093 1.57752,-1.694486 1.57753,-1.779516 1.57752,-1.900829 1.57753,-2.096335 1.57752,-2.4935 1.57753,-4.441098 1.57752,-5.05332 h 1.57753 1.57752 1.57753 1.57752 1.57753 1.57752 1.57753 1.57752 1.57753 1.57753"
           style="fill:none;stroke:#e377c2;stroke-width:1.5;stroke-linecap:square;stroke-linejoin:round;stroke-miterlimit:10;stroke-dasharray:none;stroke-opacity:1"
           id="path504"
           inkscape:connector-curvature="0" /></g></g><g
       id="g506"><g
         id="g508"
         clip-path="url(#clipPath512)"><path
           d="m 249.47187,138.93368 1.57753,-1.83096 1.57753,-1.87062 1.57752,-1.9116 1.57753,-1.95399 1.57752,-1.99782 1.57753,-2.04319 1.57752,-2.09018 1.57753,-2.13886 1.57752,-2.18934 1.57753,-2.24169 1.57752,-2.29605 1.57753,-2.35252 1.57752,-2.41124 1.57753,-2.47236 1.57752,-2.53604 1.57753,-2.60247 1.57752,-2.67189 1.57753,-2.744513 1.57753,-2.820693 1.57752,-2.900782 1.57752,-2.985259 1.57753,-3.074734 1.57753,-3.170026 1.57752,-3.272276 1.57753,-3.38315 1.57752,-3.505222 1.57753,-3.642739 1.57752,-3.803309 1.57753,-4.002161 1.57752,-4.274981 1.57753,-4.730799 1.57752,-5.998225 1.57753,-9.470241 h 1.57752 1.57753 1.57752 1.57753 1.57752 1.57753 1.57753 1.57752 1.57753 1.57752 1.57753 1.57752 1.57753 1.57752 1.57753 1.57752 1.57753 1.57752 1.57753 1.57752 1.57753 1.57752 1.57753 1.57752 1.57753 1.57753 1.57752 1.57752 1.57753 1.57753 1.57752 1.57753 1.57752 1.57753 1.57752 1.57753 1.57752 1.57753 1.57752 1.57753 1.57752 1.57753 1.57752 1.57753 1.57752 1.57753 1.57753 1.57752 1.57753 1.57752 1.57753 1.57752 1.57753 1.57752 1.57753 1.57752 1.57753 1.57752 1.57753 1.57752 1.57753 1.57752 1.57753 1.57752 1.57753 1.57753"
           style="fill:none;stroke:#7f7f7f;stroke-width:1.5;stroke-linecap:square;stroke-linejoin:round;stroke-miterlimit:10;stroke-dasharray:none;stroke-opacity:1"
           id="path514"
           inkscape:connector-curvature="0" /></g></g><g
       id="g516"><g
         id="g518"
         clip-path="url(#clipPath522)"><path
           d="m 249.47187,37.54375 h 1.57753 1.57753 1.57752 1.57753 1.57752 1.57753 1.57752 1.57753 1.57752 1.57753 1.57752 1.57753 1.57752 1.57753 1.57752 1.57753 1.57752 1.57753 1.57753 1.57752 1.57752 1.57753 1.57753 1.57752 1.57753 1.57752 1.57753 1.57752 1.57753 1.57752 1.57753 1.57752 1.57753 1.57752 1.57753 1.57752 1.57753 1.57752 1.57753 1.57753 1.57752 1.57753 1.57752 1.57753 1.57752 1.57753 1.57752 1.57753 1.57752 1.57753 1.57752 1.57753 1.57752 1.57753 1.57752 1.57753 1.57752 1.57753 1.57753 1.57752 1.57752 1.57753 1.57753 1.57752 1.57753 1.57752 1.57753 1.57752 l 1.57753,10.410071 1.57752,4.650256 1.57753,3.845467 1.57752,3.502776 1.57753,3.292353 1.57752,3.13974 1.57753,3.01807 1.57752,2.915208 1.57753,2.824871 1.57752,2.743469 1.57753,2.668801 1.57753,2.599438 1.57752,2.534403 1.57753,2.473007 1.57752,2.414742 1.57753,2.359221 1.57752,2.306148 1.57753,2.255283 1.57752,2.206429 1.57753,2.159427 1.57752,2.11414 1.57753,2.07046 1.57752,2.02826 1.57753,1.98748 1.57752,1.94802 1.57753,1.90982 1.57752,1.87281 1.57753,1.83692 1.57752,1.80214 1.57753,1.76836 1.57753,1.73557"
           style="fill:none;stroke:#bcbd22;stroke-width:1.5;stroke-linecap:square;stroke-linejoin:round;stroke-miterlimit:10;stroke-dasharray:none;stroke-opacity:1"
           id="path524"
           inkscape:connector-curvature="0" /></g></g><g
       id="g526"><g
         id="g528"
         clip-path="url(#clipPath532)"><path
           d="m 249.47187,37.54375 h 1.57753 1.57753 1.57752 1.57753 1.57752 1.57753 1.57752 1.57753 1.57752 1.57753 1.57752 1.57753 1.57752 1.57753 1.57752 1.57753 1.57752 1.57753 1.57753 1.57752 1.57752 1.57753 1.57753 1.57752 1.57753 1.57752 1.57753 1.57752 1.57753 1.57752 1.57753 1.57752 1.57753 1.57752 1.57753 1.57752 1.57753 1.57752 1.57753 1.57753 1.57752 1.57753 1.57752 1.57753 1.57752 1.57753 1.57752 1.57753 1.57752 1.57753 1.57752 1.57753 1.57752 1.57753 1.57752 1.57753 1.57752 1.57753 1.57753 1.57752 1.57752 1.57753 1.57753 1.57752 1.57753 1.57752 1.57753 1.57752 1.57753 1.57752 1.57753 1.57752 1.57753 1.57752 1.57753 1.57752 l 1.57753,13.822932 1.57752,5.733553 1.57753,5.023037 1.57753,4.650295 1.57752,4.390174 1.57753,4.183451 1.57752,4.007511 1.57753,3.851787 1.57752,3.710639 1.57753,3.58074 1.57752,3.459968 1.57753,3.346876 1.57752,3.240427 1.57753,3.13985 1.57752,3.04451 1.57753,2.95395 1.57752,2.86773 1.57753,2.78553 1.57752,2.70704 1.57753,2.632 1.57752,2.56019 1.57753,2.4914 1.57753,2.42543"
           style="fill:none;stroke:#17becf;stroke-width:1.5;stroke-linecap:square;stroke-linejoin:round;stroke-miterlimit:10;stroke-dasharray:none;stroke-opacity:1"
           id="path534"
           inkscape:connector-curvature="0" /></g></g><g
       id="g536"><g
         id="g538"
         clip-path="url(#clipPath542)"><path
           d="m 249.47187,37.54375 h 1.57753 1.57753 1.57752 1.57753 1.57752 1.57753 1.57752 1.57753 1.57752 1.57753 1.57752 1.57753 1.57752 1.57753 1.57752 1.57753 1.57752 1.57753 1.57753 1.57752 1.57752 1.57753 1.57753 1.57752 1.57753 1.57752 1.57753 1.57752 1.57753 1.57752 1.57753 l 1.57752,8.066423 1.57753,2.167123 1.57752,1.731814 1.57753,1.534446 1.57752,1.417096 1.57753,1.337471 1.57752,1.278894 1.57753,1.233342 1.57753,1.196451 1.57752,1.16562 1.57753,1.139211 1.57752,1.116129 1.57753,1.095618 1.57752,1.077137 1.57753,1.060293 1.57752,1.044787 1.57753,1.030393 1.57752,1.016932 1.57753,1.004268 1.57752,0.992285 1.57753,0.980897 1.57752,0.970026 1.57753,0.959614 1.57752,0.949609 1.57753,0.939968 1.57752,0.930655 1.57753,0.921639 1.57753,0.912894 1.57752,0.904396 1.57752,0.896126 1.57753,0.888067 1.57753,0.880203 1.57752,0.872521 1.57753,0.86501 1.57752,0.857657 1.57753,0.850455 1.57752,0.843396 1.57753,0.836469 1.57752,0.82967 1.57753,0.822993 1.57752,0.816431 1.57753,0.80998 1.57752,0.803633 1.57753,0.797388 1.57752,0.79124 1.57753,0.785187 1.57752,0.779223 1.57753,0.773346 1.57753,0.767554 1.57752,0.761842 1.57753,0.756211 1.57752,0.750655 1.57753,0.745173 1.57752,0.739764 1.57753,0.734425 1.57752,0.729154 1.57753,0.723946 1.57752,0.71881 1.57753,0.71374 1.57752,0.70872 1.57753,0.70376 1.57752,0.69887 1.57753,0.69403 1.57752,0.68925 1.57753,0.68453 1.57752,0.67985 1.57753,0.67523 1.57753,0.67067"
           style="fill:none;stroke:#1f77b4;stroke-width:1.5;stroke-linecap:square;stroke-linejoin:round;stroke-miterlimit:10;stroke-dasharray:none;stroke-opacity:1"
           id="path544"
           inkscape:connector-curvature="0" /></g></g><g
       id="g546"><g
         id="g548"
         clip-path="url(#clipPath552)"><path
           d="m 249.47187,132.14088 1.57753,-2.59501 1.57753,-2.67217 1.57752,-2.75292 1.57753,-2.83753 1.57752,-2.92627 1.57753,-3.01945 1.57752,-3.11743 1.57753,-3.22062 1.57752,-3.32948 1.57753,-3.44456 1.57752,-3.566571 1.57753,-3.696325 1.57752,-3.834937 1.57753,-3.983892 1.57752,-4.145316 1.57753,-4.322466 1.57752,-4.520736 1.57753,-4.750026 1.57753,-5.031095 1.57752,-5.416869 1.57752,-6.097669 1.57753,-9.570111 1.57753,-5.745677 h 1.57752 1.57753 1.57752 1.57753 1.57752 1.57753 1.57752 1.57753 1.57752 1.57753 1.57752 1.57753 1.57752 1.57753 1.57752 1.57753 1.57753 1.57752 1.57753 1.57752 1.57753 1.57752 1.57753 1.57752 1.57753 1.57752 1.57753 1.57752 1.57753 1.57752 1.57753 1.57752 1.57753 1.57752 1.57753 1.57753 1.57752 1.57752 1.57753 1.57753 1.57752 1.57753 1.57752 1.57753 1.57752 1.57753 1.57752 1.57753 1.57752 1.57753 1.57752 1.57753 1.57752 1.57753 1.57752 1.57753 1.57753 1.57752 1.57753 1.57752 1.57753 1.57752 1.57753 1.57752 1.57753 1.57752 1.57753 1.57752 1.57753 1.57752 1.57753 1.57752 1.57753 1.57752 1.57753 1.57753"
           style="fill:none;stroke:#ff7f0e;stroke-width:1.5;stroke-linecap:square;stroke-linejoin:round;stroke-miterlimit:10;stroke-dasharray:none;stroke-opacity:1"
           id="path554"
           inkscape:connector-curvature="0" /></g></g><g
       id="g556"><g
         id="g558"
         clip-path="url(#clipPath562)"><path
           d="m 249.47187,37.54375 h 1.57753 1.57753 1.57752 1.57753 1.57752 1.57753 1.57752 1.57753 1.57752 1.57753 1.57752 1.57753 1.57752 1.57753 1.57752 1.57753 1.57752 1.57753 1.57753 1.57752 1.57752 1.57753 1.57753 1.57752 1.57753 1.57752 1.57753 1.57752 1.57753 1.57752 1.57753 1.57752 1.57753 1.57752 1.57753 1.57752 1.57753 1.57752 1.57753 1.57753 1.57752 1.57753 1.57752 1.57753 1.57752 1.57753 1.57752 1.57753 1.57752 1.57753 1.57752 1.57753 1.57752 1.57753 1.57752 1.57753 1.57752 1.57753 1.57753 1.57752 1.57752 1.57753 1.57753 1.57752 1.57753 1.57752 1.57753 1.57752 1.57753 1.57752 1.57753 1.57752 1.57753 1.57752 1.57753 1.57752 1.57753 1.57752 1.57753 1.57753 1.57752 1.57753 l 1.57752,13.6964 1.57753,5.468279 1.57752,4.796407 1.57753,4.443437 1.57752,4.198495 1.57753,4.004932 1.57752,3.840894 1.57753,3.696117 1.57752,3.565111 1.57753,3.444642 1.57752,3.332657 1.57753,3.227767 1.57752,3.128977 1.57753,3.035555 1.57752,2.94691 1.57753,2.86262 1.57753,2.78226"
           style="fill:none;stroke:#2ca02c;stroke-width:1.5;stroke-linecap:square;stroke-linejoin:round;stroke-miterlimit:10;stroke-dasharray:none;stroke-opacity:1"
           id="path564"
           inkscape:connector-curvature="0" /></g></g><g
       id="g566"><g
         id="g568"
         clip-path="url(#clipPath572)"><path
           d="m 249.47187,37.54375 h 1.57753 1.57753 1.57752 1.57753 1.57752 1.57753 1.57752 1.57753 1.57752 1.57753 1.57752 1.57753 1.57752 1.57753 1.57752 1.57753 1.57752 1.57753 1.57753 1.57752 1.57752 1.57753 1.57753 1.57752 1.57753 1.57752 1.57753 1.57752 1.57753 1.57752 1.57753 1.57752 1.57753 1.57752 1.57753 1.57752 1.57753 1.57752 1.57753 1.57753 1.57752 1.57753 1.57752 1.57753 1.57752 1.57753 1.57752 1.57753 1.57752 1.57753 1.57752 1.57753 1.57752 1.57753 1.57752 1.57753 1.57752 1.57753 1.57753 1.57752 1.57752 1.57753 1.57753 1.57752 1.57753 1.57752 1.57753 1.57752 l 1.57753,9.273522 1.57752,3.396376 1.57753,2.75902 1.57752,2.486578 1.57753,2.325095 1.57752,2.213402 1.57753,2.128615 1.57752,2.060125 1.57753,2.002316 1.57752,1.951936 1.57753,1.906972 1.57753,1.866107 1.57752,1.828446 1.57753,1.793359 1.57752,1.760388 1.57753,1.729195 1.57752,1.69952 1.57753,1.671163 1.57752,1.643966 1.57753,1.617801 1.57752,1.592567 1.57753,1.568177 1.57752,1.544562 1.57753,1.521659 1.57752,1.499419 1.57753,1.477797 1.57752,1.456756 1.57753,1.436261 1.57752,1.416282 1.57753,1.396788 1.57753,1.37777"
           style="fill:none;stroke:#d62728;stroke-width:1.5;stroke-linecap:square;stroke-linejoin:round;stroke-miterlimit:10;stroke-dasharray:none;stroke-opacity:1"
           id="path574"
           inkscape:connector-curvature="0" /></g></g><g
       id="g576"><g
         id="g578"
         clip-path="url(#clipPath582)"><path
           d="m 249.47187,37.54375 h 1.57753 1.57753 1.57752 1.57753 1.57752 1.57753 1.57752 1.57753 1.57752 1.57753 1.57752 1.57753 1.57752 1.57753 1.57752 1.57753 1.57752 1.57753 1.57753 1.57752 1.57752 1.57753 1.57753 1.57752 1.57753 1.57752 1.57753 1.57752 l 1.57753,7.550323 1.57752,3.065916 1.57753,2.290678 1.57752,2.006466 1.57753,1.848962 1.57752,1.745341 1.57753,1.670043 1.57752,1.611589 1.57753,1.564012 1.57752,1.523894 1.57753,1.489126 1.57753,1.45834 1.57752,1.43061 1.57753,1.405283 1.57752,1.381887 1.57753,1.360076 1.57752,1.339581 1.57753,1.320204 1.57752,1.301783 1.57753,1.284191 1.57752,1.267326 1.57753,1.251108 1.57752,1.235465 1.57753,1.220341 1.57752,1.205689 1.57753,1.191468 1.57752,1.177643 1.57753,1.164186 1.57752,1.151069 1.57753,1.13827 1.57753,1.125771 1.57752,1.113552 1.57752,1.1016 1.57753,1.089898 1.57753,1.078437 1.57752,1.067204 1.57753,1.056188 1.57752,1.045381 1.57753,1.034775 1.57752,1.024361 1.57753,1.014133 1.57752,1.00408 1.57753,0.99421 1.57752,0.98449 1.57753,0.97495 1.57752,0.96555 1.57753,0.95631 1.57752,0.94721 1.57753,0.93827 1.57752,0.92946 1.57753,0.92077 1.57753,0.91224 1.57752,0.90382 1.57753,0.89552 1.57752,0.88737 1.57753,0.87931 1.57752,0.87138 1.57753,0.86356 1.57752,0.85585 1.57753,0.84826 1.57752,0.84076 1.57753,0.83337 1.57752,0.82609 1.57753,0.81891 1.57752,0.81181 1.57753,0.80482 1.57752,0.79792 1.57753,0.79112 1.57752,0.7844 1.57753,0.77776 1.57753,0.77123"
           style="fill:none;stroke:#9467bd;stroke-width:1.5;stroke-linecap:square;stroke-linejoin:round;stroke-miterlimit:10;stroke-dasharray:none;stroke-opacity:1"
           id="path584"
           inkscape:connector-curvature="0" /></g></g><g
       id="g586"><g
         id="g588"
         clip-path="url(#clipPath592)"><path
           d="m 249.47187,99.04683 1.57753,-0.56005 1.57753,-0.563153 1.57752,-0.566286 1.57753,-0.56945 1.57752,-0.572647 1.57753,-0.575877 1.57752,-0.57914 1.57753,-0.582438 1.57752,-0.585771 1.57753,-0.589139 1.57752,-0.592546 1.57753,-0.595989 1.57752,-0.599472 1.57753,-0.602995 1.57752,-0.606559 1.57753,-0.610164 1.57752,-0.613815 1.57753,-0.617509 1.57753,-0.62125 1.57752,-0.625039 1.57752,-0.628878 1.57753,-0.632768 1.57753,-0.63671 1.57752,-0.640708 1.57753,-0.644764 1.57752,-0.64888 1.57753,-0.653056 1.57752,-0.6573 1.57753,-0.661609 1.57752,-0.665992 1.57753,-0.670448 1.57752,-0.674982 1.57753,-0.679601 1.57752,-0.684307 1.57753,-0.689104 1.57752,-0.694001 1.57753,-0.699002 1.57752,-0.704114 1.57753,-0.709346 1.57753,-0.714705 1.57752,-0.720203 1.57753,-0.725849 1.57752,-0.731656 1.57753,-0.737639 1.57752,-0.743812 1.57753,-0.750195 1.57752,-0.756808 1.57753,-0.763678 1.57752,-0.77083 1.57753,-0.778299 1.57752,-0.786124 1.57753,-0.794353 1.57752,-0.803038 1.57753,-0.81225 1.57752,-0.822066 1.57753,-0.83259 1.57752,-0.843944 1.57753,-0.856283 1.57753,-0.869807 1.57752,-0.884773 1.57752,-0.901524 1.57753,-0.920513 1.57753,-0.942379 1.57752,-0.968023 1.57753,-0.998783 1.57752,-1.036725 1.57753,-1.085247 1.57752,-1.150374 1.57753,-1.244052 1.57752,-1.394339 1.57753,-1.690391 1.57752,-2.812095 1.57753,-5.354874 h 1.57752 1.57753 1.57752 1.57753 1.57752 1.57753 1.57753 1.57752 1.57753 1.57752 1.57753 1.57752 1.57753 1.57752 1.57753 1.57752 1.57753 1.57752 1.57753 1.57752 1.57753 1.57752 1.57753 1.57752 1.57753 1.57753"
           style="fill:none;stroke:#8c564b;stroke-width:1.5;stroke-linecap:square;stroke-linejoin:round;stroke-miterlimit:10;stroke-dasharray:none;stroke-opacity:1"
           id="path594"
           inkscape:connector-curvature="0" /></g></g><g
       id="g596"><g
         id="g598"
         clip-path="url(#clipPath602)"><path
           d="m 249.47187,37.54375 h 1.57753 1.57753 1.57752 1.57753 1.57752 1.57753 1.57752 1.57753 1.57752 1.57753 1.57752 1.57753 1.57752 1.57753 1.57752 1.57753 1.57752 1.57753 1.57753 1.57752 1.57752 1.57753 1.57753 1.57752 1.57753 1.57752 1.57753 1.57752 1.57753 1.57752 1.57753 1.57752 1.57753 1.57752 1.57753 1.57752 1.57753 1.57752 1.57753 1.57753 1.57752 1.57753 1.57752 1.57753 1.57752 1.57753 1.57752 1.57753 1.57752 1.57753 1.57752 1.57753 1.57752 1.57753 1.57752 1.57753 1.57752 1.57753 1.57753 1.57752 1.57752 1.57753 1.57753 1.57752 1.57753 1.57752 1.57753 1.57752 1.57753 1.57752 1.57753 1.57752 1.57753 1.57752 1.57753 1.57752 1.57753 l 1.57752,10.816274 1.57753,5.161027 1.57753,4.28966 1.57752,3.916512 1.57753,3.683019 1.57752,3.510208 1.57753,3.369953 1.57752,3.24967 1.57753,3.142877 1.57752,3.045876 1.57753,2.956402 1.57752,2.872975 1.57753,2.794577 1.57752,2.720479 1.57753,2.650137 1.57752,2.583137 1.57753,2.519147 1.57752,2.45789 1.57753,2.39916 1.57752,2.34275 1.57753,2.28853 1.57753,2.23631"
           style="fill:none;stroke:#e377c2;stroke-width:1.5;stroke-linecap:square;stroke-linejoin:round;stroke-miterlimit:10;stroke-dasharray:none;stroke-opacity:1"
           id="path604"
           inkscape:connector-curvature="0" /></g></g><g
       id="g606"><g
         id="g608"
         clip-path="url(#clipPath612)"><path
           d="m 249.47187,112.90368 1.57753,-0.50297 1.57753,-0.50559 1.57752,-0.50822 1.57753,-0.51089 1.57752,-0.51356 1.57753,-0.51627 1.57752,-0.519 1.57753,-0.52175 1.57752,-0.52453 1.57753,-0.52733 1.57752,-0.53015 1.57753,-0.533 1.57752,-0.53588 1.57753,-0.53878 1.57752,-0.54171 1.57753,-0.54466 1.57752,-0.54765 1.57753,-0.55065 1.57753,-0.5537 1.57752,-0.55675 1.57752,-0.55986 1.57753,-0.56298 1.57753,-0.56613 1.57752,-0.56933 1.57753,-0.572539 1.57752,-0.57579 1.57753,-0.579074 1.57752,-0.58239 1.57753,-0.58574 1.57752,-0.589125 1.57753,-0.592547 1.57752,-0.596003 1.57753,-0.599499 1.57752,-0.603031 1.57753,-0.606604 1.57752,-0.610216 1.57753,-0.61387 1.57752,-0.617565 1.57753,-0.621306 1.57753,-0.625089 1.57752,-0.62892 1.57753,-0.632799 1.57752,-0.636725 1.57753,-0.640703 1.57752,-0.644734 1.57753,-0.648818 1.57752,-0.652958 1.57753,-0.657158 1.57752,-0.661417 1.57753,-0.66574 1.57752,-0.670128 1.57753,-0.674586 1.57752,-0.679114 1.57753,-0.683718 1.57752,-0.688402 1.57753,-0.693167 1.57752,-0.69802 1.57753,-0.702966 1.57753,-0.708009 1.57752,-0.713157 1.57752,-0.718414 1.57753,-0.723789 1.57753,-0.729291 1.57752,-0.734927 1.57753,-0.74071 1.57752,-0.746649 1.57753,-0.752758 1.57752,-0.759055 1.57753,-0.765553 1.57752,-0.772275 1.57753,-0.779241 1.57752,-0.78648 1.57753,-0.794021 1.57752,-0.801903 1.57753,-0.810165 1.57752,-0.818861 1.57753,-0.82805 1.57752,-0.83781 1.57753,-0.848226 1.57753,-0.859415 1.57752,-0.871513 1.57753,-0.8847 1.57752,-0.899202 1.57753,-0.915316 1.57752,-0.933442 1.57753,-0.95412 1.57752,-0.978113 1.57753,-1.006523 1.57752,-1.041024 1.57753,-1.084271 1.57752,-1.140791 1.57753,-1.219034 1.57752,-1.337073 1.57753,-1.543065 1.57752,-2.040079 1.57753,-7.111104 h 1.57752 1.57753 1.57753"
           style="fill:none;stroke:#7f7f7f;stroke-width:1.5;stroke-linecap:square;stroke-linejoin:round;stroke-miterlimit:10;stroke-dasharray:none;stroke-opacity:1"
           id="path614"
           inkscape:connector-curvature="0" /></g></g><g
       id="g616"><g
         id="g618"
         clip-path="url(#clipPath622)"><path
           d="m 249.47187,37.54375 h 1.57753 1.57753 1.57752 1.57753 1.57752 1.57753 1.57752 1.57753 1.57752 1.57753 1.57752 1.57753 1.57752 1.57753 1.57752 1.57753 1.57752 l 1.57753,6.750249 1.57753,1.948508 1.57752,1.439961 1.57752,1.235401 1.57753,1.119493 1.57753,1.043196 1.57752,0.988391 1.57753,0.946672 1.57752,0.913561 1.57753,0.886436 1.57752,0.86365 1.57753,0.84412 1.57752,0.827097 1.57753,0.812047 1.57752,0.79858 1.57753,0.786402 1.57752,0.775292 1.57753,0.765074 1.57752,0.755609 1.57753,0.74679 1.57752,0.738525 1.57753,0.730741 1.57753,0.72338 1.57752,0.716388 1.57753,0.709725 1.57752,0.703355 1.57753,0.697247 1.57752,0.691375 1.57753,0.685715 1.57752,0.680249 1.57753,0.67496 1.57752,0.669832 1.57753,0.664853 1.57752,0.66001 1.57753,0.655293 1.57752,0.650695 1.57753,0.646205 1.57752,0.641818 1.57753,0.637524 1.57752,0.633322 1.57753,0.629203 1.57753,0.625164 1.57752,0.621198 1.57752,0.617305 1.57753,0.613479 1.57753,0.609715 1.57752,0.606014 1.57753,0.60237 1.57752,0.598781 1.57753,0.595246 1.57752,0.591762 1.57753,0.588326 1.57752,0.584938 1.57753,0.581593 1.57752,0.578294 1.57753,0.575036 1.57752,0.571818 1.57753,0.568639 1.57752,0.565499 1.57753,0.562396 1.57752,0.559327 1.57753,0.556295 1.57753,0.553294 1.57752,0.550327 1.57753,0.547392 1.57752,0.544488 1.57753,0.541614 1.57752,0.53877 1.57753,0.535953 1.57752,0.533166 1.57753,0.530406 1.57752,0.527672 1.57753,0.524965 1.57752,0.522284 1.57753,0.519627 1.57752,0.516996 1.57753,0.514388 1.57752,0.511804 1.57753,0.509243 1.57752,0.506706 1.57753,0.50419 1.57753,0.501697"
           style="fill:none;stroke:#bcbd22;stroke-width:1.5;stroke-linecap:square;stroke-linejoin:round;stroke-miterlimit:10;stroke-dasharray:none;stroke-opacity:1"
           id="path624"
           inkscape:connector-curvature="0" /></g></g><g
       id="g626"><g
         id="g628"
         clip-path="url(#clipPath632)"><path
           d="m 249.47187,37.54375 h 1.57753 1.57753 1.57752 1.57753 1.57752 1.57753 1.57752 1.57753 1.57752 1.57753 1.57752 1.57753 1.57752 1.57753 1.57752 1.57753 1.57752 1.57753 1.57753 1.57752 1.57752 1.57753 1.57753 1.57752 1.57753 1.57752 1.57753 1.57752 1.57753 1.57752 1.57753 1.57752 1.57753 l 1.57752,3.807543 1.57753,6.69296 1.57752,3.215327 1.57753,2.736617 1.57752,2.50354 1.57753,2.357295 1.57753,2.252577 1.57752,2.171147 1.57753,2.104185 1.57752,2.046891 1.57753,1.996427 1.57752,1.951007 1.57753,1.909453 1.57752,1.870953 1.57753,1.834931 1.57752,1.800966 1.57753,1.768743 1.57752,1.73802 1.57753,1.708611 1.57752,1.680362 1.57753,1.653156 1.57752,1.626894 1.57753,1.601494 1.57752,1.576884 1.57753,1.553011 1.57753,1.529821 1.57752,1.507271 1.57752,1.485325 1.57753,1.463947 1.57753,1.443112 1.57752,1.42278 1.57753,1.40294 1.57752,1.38358 1.57753,1.36465 1.57752,1.34614 1.57753,1.32807 1.57752,1.31037 1.57753,1.29307 1.57752,1.27612 1.57753,1.25954 1.57752,1.24329 1.57753,1.22738 1.57752,1.21179 1.57753,1.19651 1.57752,1.18153 1.57753,1.16684 1.57753,1.15245 1.57752,1.13831 1.57753,1.12446 1.57752,1.11086 1.57753,1.09752 1.57752,1.08442 1.57753,1.07157 1.57752,1.05894 1.57753,1.04654 1.57752,1.03437 1.57753,1.02242 1.57752,1.01066 1.57753,0.99913 1.57752,0.98779 1.57753,0.97664 1.57752,0.96569 1.57753,0.95492 1.57752,0.94433 1.57753,0.93393 1.57753,0.9237"
           style="fill:none;stroke:#17becf;stroke-width:1.5;stroke-linecap:square;stroke-linejoin:round;stroke-miterlimit:10;stroke-dasharray:none;stroke-opacity:1"
           id="path634"
           inkscape:connector-curvature="0" /></g></g><g
       id="g636"><path
         d="m 249.47187,37.54375 v 109.4"
         style="fill:none;stroke:#000000;stroke-width:0.80000001;stroke-linecap:square;stroke-linejoin:miter;stroke-miterlimit:10;stroke-dasharray:none;stroke-opacity:1"
         id="path638"
         inkscape:connector-curvature="0" /><path
         d="M 249.47187,37.54375 H 405.64688"
         style="fill:none;stroke:#000000;stroke-width:0.80000001;stroke-linecap:square;stroke-linejoin:miter;stroke-miterlimit:10;stroke-dasharray:none;stroke-opacity:1"
         id="path642"
         inkscape:connector-curvature="0" /><text
         transform="scale(1,-1)"
         style="font-style:normal;font-variant:normal;font-weight:bold;font-stretch:normal;font-size:10px;font-family:Junicode;-inkscape-font-specification:'Junicode Bold';writing-mode:lr-tb;fill:#000000;fill-opacity:1;fill-rule:nonzero;stroke:none"
         id="text648"
         x="316.39484"
         y="-152.94376"><tspan
           x="316.39484"
           y="-152.94376"
           sodipodi:role="line"
           id="tspan646">Rates</tspan></text>
</g></g></svg>